<svg width="9" height="7" viewBox="0 0 9 7" fill="none" xmlns="http://www.w3.org/2000/svg">
<path d="M8.8333 2.66475C8.78025 2.61253 8.71723 2.57109 8.64785 2.54282C8.57847 2.51455 8.50409 2.5 8.42898 2.5C8.35386 2.5 8.27948 2.51455 8.2101 2.54282C8.14072 2.57109 8.0777 2.61253 8.02465 2.66475L5.4976 5.14638L2.97056 2.66249C2.86278 2.55971 2.71816 2.50269 2.56793 2.50374C2.4177 2.5048 2.27392 2.56386 2.16766 2.66815C2.0614 2.77244 2.00118 2.9136 2.00002 3.06113C1.99885 3.20866 2.05684 3.35072 2.16144 3.45662L5.09144 6.33395C5.19614 6.43849 5.33866 6.49817 5.48795 6.5H5.49806C5.57317 6.50026 5.64759 6.48588 5.717 6.45769C5.7864 6.42949 5.84942 6.38805 5.90239 6.33576L8.83192 3.45887C8.93929 3.35371 8.99974 3.211 9 3.06209C9.00026 2.91318 8.9403 2.77027 8.8333 2.66475Z" fill="#F4213A"/>
</svg>
