<svg width="14" height="11" viewBox="0 0 14 11" fill="none" xmlns="http://www.w3.org/2000/svg">
<path fill-rule="evenodd" clip-rule="evenodd" d="M13.7431 1.16409C13.8181 1.22157 13.8794 1.29153 13.9233 1.3699C13.9672 1.44828 13.9928 1.5335 13.9987 1.62061C14.0046 1.70772 13.9906 1.79499 13.9576 1.87734C13.9245 1.95968 13.8731 2.03547 13.8063 2.10028L5.89048 9.78272C5.82334 9.84778 5.74202 9.90046 5.65129 9.93768C5.56055 9.9749 5.46224 9.9959 5.3621 9.99946C5.26197 10.003 5.16203 9.98905 5.06814 9.95839C4.97426 9.92773 4.88832 9.88099 4.81536 9.8209L0.234823 6.05046C0.0974056 5.93572 0.0142033 5.78009 0.0016574 5.6143C-0.0108885 5.44852 0.0481347 5.28466 0.167064 5.15508C0.231258 5.08484 0.311109 5.02673 0.401767 4.9843C0.492425 4.94186 0.592 4.91598 0.694446 4.90822C0.796893 4.90046 0.900074 4.91099 0.997725 4.93917C1.09538 4.96734 1.18546 5.01258 1.26251 5.07213L4.81612 7.86754C4.96449 7.98432 5.15984 8.04479 5.35919 8.03566C5.55854 8.02652 5.74558 7.94852 5.87919 7.81882L12.6875 1.21741C12.82 1.08893 13.0051 1.01123 13.2026 1.00112C13.4002 0.991021 13.5943 1.04933 13.7431 1.16343V1.16409Z" fill="white"/>
</svg>
