<svg width="23" height="23" viewBox="0 0 23 23" fill="none" xmlns="http://www.w3.org/2000/svg">
<path d="M6.5 19C7.32843 19 8 19.6716 8 20.5C8 21.3284 7.32843 22 6.5 22C5.67157 22 5 21.3284 5 20.5C5 19.6716 5.67157 19 6.5 19Z" stroke="#F4213A" stroke-width="2"/>
<path d="M16.5 19.0001C17.3284 19.0001 18 19.6716 18 20.5001C18 21.3285 17.3284 22.0001 16.5 22.0001C15.6716 22.0001 15 21.3285 15 20.5001C15 19.6716 15.6716 19.0001 16.5 19.0001Z" stroke="#F4213A" stroke-width="2"/>
<path d="M1 1L1.2887 1.1102C2.72731 1.65934 3.44661 1.93391 3.85803 2.58758C4.26946 3.24125 4.26946 4.10951 4.26946 5.84603V9.112C4.26946 12.6419 4.33935 13.8068 5.29695 14.9034C6.25455 16 7.79579 16 10.8783 16H16.7393C18.4647 16 19.3274 16 19.9372 15.4605C20.5469 14.921 20.7211 14.0036 21.0694 12.169L21.6217 9.2593C22.0054 7.17243 22.1972 6.129 21.7066 5.4365C21.2159 4.744 19.5394 4.744 17.6771 4.744H10.9733M4.26946 4.744H6.52632" stroke="#F4213A" stroke-width="2" stroke-linecap="round"/>
</svg>
