<svg width="29" height="27" viewBox="0 0 29 27" fill="none" xmlns="http://www.w3.org/2000/svg">
<path d="M9 22C10.1046 22 11 22.8954 11 24C11 25.1046 10.1046 26 9 26C7.89543 26 7 25.1046 7 24C7 22.8954 7.89543 22 9 22Z" stroke="#F4213A" stroke-width="2"/>
<path d="M21 22.0001C22.1046 22.0001 23 22.8955 23 24.0001C23 25.1047 22.1046 26.0001 21 26.0001C19.8954 26.0001 19 25.1047 19 24.0001C19 22.8955 19.8954 22.0001 21 22.0001Z" stroke="#F4213A" stroke-width="2"/>
<path d="M2 2L2.3437 2.1249C4.05632 2.74725 4.91263 3.05843 5.40242 3.79926C5.89221 4.54008 5.89221 5.52411 5.89221 7.49217V11.1936C5.89221 15.1941 5.97542 16.5144 7.11542 17.7572C8.25542 19 10.0902 19 13.7598 19H20.7373C22.7913 19 23.8183 19 24.5442 18.3885C25.2702 17.7771 25.4775 16.7374 25.8921 14.6582L26.5497 11.3605C27.0064 8.99542 27.2348 7.81286 26.6507 7.02803C26.0665 6.2432 24.0708 6.2432 21.8537 6.2432H13.873M5.89221 6.2432H8.57895" stroke="#F4213A" stroke-width="3" stroke-linecap="round"/>
</svg>
