<svg width="59" height="59" viewBox="0 0 59 59" fill="none" xmlns="http://www.w3.org/2000/svg">
<g clip-path="url(#clip0_1_11248)">
<path d="M29.5 59C45.7924 59 59 45.7924 59 29.5C59 13.2076 45.7924 0 29.5 0C13.2076 0 0 13.2076 0 29.5C0 45.7924 13.2076 59 29.5 59Z" fill="#0A0A0A"/>
<path d="M13 28V20H16.14C16.704 20 17.1756 20.085 17.5576 20.2535C17.9396 20.422 18.225 20.6593 18.4181 20.9641C18.6111 21.2689 18.7063 21.622 18.7063 22.022C18.7063 22.3267 18.6456 22.5978 18.5256 22.8366C18.4057 23.0755 18.2402 23.2718 18.0292 23.4286C17.8182 23.5853 17.5741 23.6938 17.2969 23.7568V23.8344C17.6003 23.8505 17.8816 23.937 18.1409 24.0967C18.4001 24.2549 18.607 24.4762 18.7642 24.759C18.9214 25.0418 19 25.3758 19 25.7612C19 26.1905 18.8966 26.5744 18.6911 26.9114C18.4856 27.2484 18.1878 27.5136 17.7975 27.7084C17.4073 27.9018 16.9343 28 16.3785 28H13ZM14.8203 23.2894H15.8269C16.0255 23.2894 16.202 23.2542 16.3565 23.1839C16.5109 23.1136 16.6323 23.0125 16.7191 22.8791C16.806 22.7458 16.8501 22.5861 16.8501 22.3985C16.8501 22.1304 16.7605 21.9194 16.5812 21.7656C16.402 21.6117 16.1607 21.5355 15.8573 21.5355H14.8203V23.2894ZM14.8203 26.441H15.9455C16.3399 26.441 16.6309 26.3619 16.8184 26.2022C17.006 26.044 17.0997 25.8227 17.0997 25.5385C17.0997 25.3333 17.0542 25.1546 16.9632 25.0051C16.8722 24.8557 16.744 24.7399 16.5771 24.6579C16.4103 24.5758 16.2103 24.5348 15.9772 24.5348H14.8189V26.441H14.8203Z" fill="white"/>
<path d="M20 28V20H21.8379V26.4293H25V28H20Z" fill="white"/>
<path d="M28.0849 28H26L28.7083 20H31.2917L34 28H31.9151L30.0301 22.0161H29.9669L28.0849 28ZM27.807 24.8513H32.1665V26.3194H27.807V24.8513Z" fill="white"/>
<path d="M40.9986 22.9305H39.138C39.1129 22.7351 39.0626 22.5597 38.9858 22.4014C38.9091 22.2446 38.8072 22.1105 38.6802 21.9979C38.5531 21.8852 38.4038 21.8011 38.2321 21.7412C38.059 21.6813 37.8692 21.6513 37.6612 21.6513C37.2913 21.6513 36.9731 21.744 36.7065 21.9294C36.4399 22.1148 36.2347 22.3815 36.0923 22.7323C35.95 23.0816 35.8788 23.5052 35.8788 24.0014C35.8788 24.4977 35.9513 24.9512 36.0965 25.2991C36.2417 25.6471 36.4469 25.9094 36.7107 26.0863C36.9745 26.2631 37.2885 26.3501 37.65 26.3501C37.8538 26.3501 38.0395 26.323 38.207 26.2702C38.3745 26.2175 38.5224 26.139 38.6495 26.0364C38.7779 25.9337 38.8826 25.8082 38.9663 25.6599C39.0501 25.5116 39.1073 25.3433 39.1394 25.1565L41 25.1679C40.9679 25.513 40.8702 25.8524 40.7083 26.1861C40.5464 26.5212 40.323 26.825 40.0397 27.1002C39.7563 27.3754 39.413 27.5936 39.0068 27.7561C38.6006 27.9187 38.1372 28 37.6138 28C36.9242 28 36.3073 27.8446 35.7629 27.5337C35.2185 27.2228 34.7886 26.7708 34.4732 26.1747C34.1577 25.5786 34 24.8542 34 24C34 23.1458 34.1605 22.4171 34.4802 21.821C34.7998 21.225 35.2325 20.7729 35.7783 20.4635C36.324 20.154 36.9354 20 37.6124 20C38.0744 20 38.5001 20.0656 38.8923 20.1954C39.2845 20.3266 39.6293 20.5162 39.9266 20.7658C40.2239 21.0153 40.4668 21.3219 40.6524 21.6841C40.8381 22.0463 40.9539 22.4613 40.9986 22.9276V22.9305Z" fill="white"/>
<path d="M42.0015 27.9985V20H43.9321V23.3825H44.0374L46.6774 20H48.9503L46.1187 23.57L49 27.9985H46.692L44.7029 24.8548L43.9306 25.8319V28H42L42.0015 27.9985Z" fill="white"/>
<path d="M25 37C25 37.857 24.8442 38.5829 24.534 39.179C24.2237 39.775 23.8047 40.2271 23.2755 40.5365C22.7464 40.846 22.1541 41 21.4973 41C20.8406 41 20.2456 40.8446 19.7178 40.5323C19.1899 40.22 18.7723 39.7679 18.4634 39.1733C18.1545 38.5786 18 37.8542 18 37C18 36.1458 18.1545 35.4171 18.4634 34.821C18.7723 34.225 19.1913 33.7729 19.7178 33.4635C20.2442 33.154 20.8392 33 21.4973 33C22.1554 33 22.7464 33.154 23.2755 33.4635C23.8047 33.7729 24.2237 34.225 24.534 34.821C24.8442 35.4171 25 36.143 25 37ZM23.1882 37C23.1882 36.4938 23.1211 36.0645 22.9854 35.7152C22.8511 35.3658 22.6577 35.1005 22.4052 34.9209C22.1527 34.7412 21.8505 34.6513 21.4973 34.6513C21.1441 34.6513 20.8446 34.7412 20.5908 34.9209C20.3383 35.1005 20.1435 35.3658 20.0092 35.7152C19.8749 36.0645 19.8064 36.4938 19.8064 37C19.8064 37.5062 19.8736 37.9355 20.0092 38.2848C20.1435 38.6342 20.3383 38.8995 20.5908 39.0791C20.8432 39.2588 21.1454 39.3487 21.4973 39.3487C21.8492 39.3487 22.1527 39.2588 22.4052 39.0791C22.6577 38.8995 22.8498 38.6342 22.9854 38.2848C23.1197 37.9355 23.1882 37.5062 23.1882 37Z" fill="white"/>
<path d="M31.005 33H33V38.0951C33 38.6839 32.8531 39.196 32.5592 39.6315C32.2653 40.0669 31.8563 40.404 31.3322 40.6427C30.8065 40.8799 30.1976 41 29.5023 41C28.807 41 28.1859 40.8814 27.6602 40.6427C27.1346 40.4054 26.7271 40.0684 26.4363 39.6315C26.1454 39.1946 26 38.6839 26 38.0951V33H27.9996V37.9288C27.9996 38.2007 28.0617 38.4438 28.1874 38.6579C28.3131 38.872 28.4889 39.0383 28.7146 39.1599C28.9403 39.2814 29.2039 39.3407 29.5023 39.3407C29.8007 39.3407 30.0628 39.2799 30.2885 39.1599C30.5127 39.0398 30.6884 38.872 30.8156 38.6579C30.9414 38.4452 31.005 38.2022 31.005 37.9288V33Z" fill="white"/>
<path d="M34 34.5707V33H41V34.5707H38.4882V41H36.5148V34.5707H34Z" fill="white"/>
<path d="M29.5007 56C35.7521 56 41.4929 53.7517 46 50H13C17.5085 53.7517 23.2493 56 29.4993 56H29.5007Z" fill="white"/>
<path d="M29.4993 3C23.2479 3 17.5071 5.24834 13 9H46C41.4915 5.24834 35.7507 3 29.5007 3H29.4993Z" fill="white"/>
</g>
<defs>
<clipPath id="clip0_1_11248">
<rect width="59" height="59" fill="white"/>
</clipPath>
</defs>
</svg>
