<svg width="29" height="29" viewBox="0 0 29 29" fill="none" xmlns="http://www.w3.org/2000/svg">
<path fill-rule="evenodd" clip-rule="evenodd" d="M28.163 0.585786C27.3819 -0.195262 26.1156 -0.195262 25.3345 0.585786L14.3744 11.5459L3.41429 0.585786C2.63324 -0.195262 1.36691 -0.195262 0.585866 0.585786C-0.195182 1.36683 -0.195182 2.63317 0.585866 3.41421L11.546 14.3743L0.585786 25.3345C-0.195262 26.1156 -0.195262 27.3819 0.585786 28.163C1.36683 28.944 2.63316 28.944 3.41421 28.163L14.3744 17.2028L25.3346 28.163C26.1157 28.944 27.382 28.944 28.163 28.163C28.9441 27.3819 28.9441 26.1156 28.163 25.3345L17.2028 14.3743L28.163 3.41421C28.944 2.63317 28.944 1.36683 28.163 0.585786Z" fill="#F4213A"/>
</svg>
