<svg width="13" height="13" viewBox="0 0 13 13" fill="none" xmlns="http://www.w3.org/2000/svg">
<g clip-path="url(#clip0_1_11239)">
<path d="M6.49959 8.16593V3.20836C6.35904 3.22136 6.22011 3.2433 6.07874 3.2498H2.03112C1.80689 3.2498 1.6249 3.43179 1.6249 3.65602V4.06225H0.406225C0.181989 4.06225 0 4.24423 0 4.46847V6.90582C0 7.13005 0.181989 7.31204 0.406225 7.31204H1.6249V7.71827C1.6249 7.9425 1.80689 8.12449 2.03112 8.12449H2.2773L3.91032 12.4776C4.01025 12.7384 4.23367 12.9277 4.50828 12.9829C4.56271 12.9943 4.61715 13 4.67077 13C4.88769 13 5.09406 12.9139 5.24192 12.7595L6.21767 11.7919C6.4671 11.5425 6.5264 11.1533 6.36716 10.8519L5.00387 8.12449H6.08281C6.22255 8.13099 6.36066 8.15293 6.49959 8.16593ZM12.9326 0.196613C12.9244 0.182801 12.9171 0.171427 12.9066 0.158428C12.8619 0.101556 12.8058 0.0552465 12.7368 0.0284357C12.7343 0.0276233 12.7327 0.0243735 12.7303 0.023561C12.7221 0.0211237 12.7148 0.0251859 12.7067 0.0227486C12.6701 0.0121867 12.6336 0 12.593 0C12.5653 0 12.541 0.0105618 12.5142 0.016249C12.4987 0.0194988 12.4841 0.0203112 12.4687 0.0251859C12.3988 0.0479345 12.3387 0.0869321 12.2907 0.140554C12.2875 0.143803 12.2826 0.144616 12.2794 0.147866C11.0127 1.68583 9.24648 2.71439 7.31204 3.09137V8.28373C9.24648 8.66071 11.0127 9.68846 12.2794 11.2264C12.2826 11.2305 12.2883 11.2321 12.2924 11.237C12.3208 11.2687 12.3557 11.2939 12.3931 11.315C12.4053 11.3223 12.415 11.3329 12.4272 11.3385C12.4784 11.3605 12.5337 11.3743 12.593 11.3743C12.6393 11.3743 12.6848 11.3662 12.7303 11.3507C12.7327 11.3499 12.7343 11.3467 12.7368 11.3459C12.8058 11.319 12.8619 11.2735 12.9066 11.2159C12.9163 11.2029 12.9236 11.1915 12.9326 11.1777C12.9716 11.1151 12.9992 11.0461 12.9992 10.9681V0.406225C12.9992 0.328229 12.9716 0.259171 12.9326 0.196613Z" fill="#878787"/>
</g>
<defs>
<clipPath id="clip0_1_11239">
<rect width="13" height="13" fill="white"/>
</clipPath>
</defs>
</svg>
