<svg width="21" height="19" viewBox="0 0 21 19" fill="none" xmlns="http://www.w3.org/2000/svg">
<path d="M10.5 3.18804L9.76624 3.86745C9.77061 3.87216 9.77501 3.87683 9.77947 3.88146L10.5 3.18804ZM7.61365 16.4307L6.97982 17.2042H6.97982L7.61365 16.4307ZM13.3864 16.4307L12.7525 15.6573L13.3864 16.4307ZM5.94788 13.7839C5.52821 13.4248 4.89696 13.474 4.53793 13.8937C4.17891 14.3133 4.22807 14.9446 4.64774 15.3036L5.94788 13.7839ZM1.06502 11.1103C1.32218 11.599 1.92687 11.7868 2.41563 11.5296C2.90439 11.2725 3.09214 10.6678 2.83498 10.179L1.06502 11.1103ZM11.6795 5.85575C12.0624 6.25369 12.6955 6.26583 13.0934 5.88287C13.4914 5.4999 13.5035 4.86686 13.1205 4.46892L11.6795 5.85575ZM2 6.77907C2 4.73088 3.11306 3.04984 4.5761 2.35468C5.96456 1.69495 7.88038 1.83076 9.76624 3.86745L11.2338 2.50862C8.84477 -0.0714376 6.0106 -0.541209 3.71777 0.548227C1.49951 1.60223 0 4.02508 0 6.77907H2ZM6.97982 17.2042C7.46361 17.6006 8.00146 18.0392 8.5513 18.3731C9.09983 18.7063 9.76118 19 10.5 19V17C10.2888 17 10.0002 16.9132 9.58961 16.6638C9.18037 16.4152 8.75003 16.0691 8.24747 15.6573L6.97982 17.2042ZM14.0202 17.2042C15.3594 16.1068 17.1221 14.8111 18.5017 13.1963C19.9152 11.5419 21 9.47974 21 6.77907H19C19 8.88057 18.1756 10.499 16.9811 11.8972C15.7526 13.3351 14.2085 14.4642 12.7525 15.6573L14.0202 17.2042ZM21 6.77907C21 4.02508 19.5005 1.60223 17.2822 0.548227C14.9894 -0.541209 12.1552 -0.0714376 9.76624 2.50862L11.2338 3.86745C13.1196 1.83076 15.0354 1.69495 16.4239 2.35468C17.8869 3.04984 19 4.73088 19 6.77907H21ZM12.7525 15.6573C12.25 16.0691 11.8196 16.4152 11.4104 16.6638C10.9998 16.9132 10.7112 17 10.5 17V19C11.2388 19 11.9002 18.7063 12.4487 18.3731C12.9985 18.0392 13.5364 17.6006 14.0202 17.2042L12.7525 15.6573ZM8.24747 15.6573C7.48139 15.0295 6.72576 14.4493 5.94788 13.7839L4.64774 15.3036C5.43827 15.9799 6.28422 16.6342 6.97982 17.2042L8.24747 15.6573ZM2.83498 10.179C2.31927 9.19888 2 8.08859 2 6.77907H0C0 8.43573 0.409141 9.86372 1.06502 11.1103L2.83498 10.179ZM9.77947 3.88146L11.6795 5.85575L13.1205 4.46892L11.2205 2.49462L9.77947 3.88146Z" fill="#F4213A"/>
</svg>
