<svg width="27" height="23" viewBox="0 0 27 23" fill="none" xmlns="http://www.w3.org/2000/svg">
<path d="M13.5 4.44545L12.4409 5.50764C12.4477 5.51445 12.4546 5.52119 12.4616 5.52787L13.5 4.44545ZM10.006 19.2461L9.10097 20.4423L10.006 19.2461ZM16.994 19.2461L16.089 18.0499L16.994 19.2461ZM8.13236 15.96C7.48226 15.4465 6.53899 15.5573 6.02551 16.2074C5.51202 16.8575 5.62277 17.8007 6.27286 18.3142L8.13236 15.96ZM1.84677 13.522C2.25694 14.2418 3.17293 14.4927 3.89268 14.0826C4.61244 13.6724 4.86341 12.7564 4.45323 12.0366L1.84677 13.522ZM14.7616 7.73444C15.3594 8.30796 16.3089 8.28827 16.8824 7.69047C17.4559 7.09267 17.4362 6.14312 16.8384 5.5696L14.7616 7.73444ZM3.5 8.45896C3.5 6.37129 4.72868 4.61668 6.41205 3.8782C8.01587 3.17462 10.243 3.31609 12.4409 5.50764L14.5591 3.38326C11.5822 0.414915 8.05932 -0.12043 5.20684 1.13093C2.43391 2.34739 0.5 5.17948 0.5 8.45896H3.5ZM9.10097 20.4423C9.68451 20.8838 10.351 21.3861 11.0358 21.7701C11.7215 22.1547 12.5595 22.5 13.5 22.5V19.5C13.2905 19.5 12.9785 19.4201 12.5032 19.1535C12.027 18.8864 11.5215 18.5118 10.911 18.0499L9.10097 20.4423ZM17.899 20.4423C19.5004 19.2307 21.6703 17.7574 23.3668 15.924C25.1149 14.0349 26.5 11.6313 26.5 8.45896H23.5C23.5 10.6537 22.5739 12.3638 21.1649 13.8865C19.7044 15.4648 17.8712 16.7015 16.089 18.0499L17.899 20.4423ZM26.5 8.45896C26.5 5.17948 24.5661 2.34739 21.7932 1.13093C18.9407 -0.12043 15.4178 0.414915 12.4409 3.38326L14.5591 5.50764C16.757 3.31609 18.9841 3.17462 20.588 3.8782C22.2713 4.61668 23.5 6.37129 23.5 8.45896H26.5ZM16.089 18.0499C15.4785 18.5118 14.973 18.8864 14.4968 19.1535C14.0215 19.4201 13.7095 19.5 13.5 19.5V22.5C14.4405 22.5 15.2785 22.1547 15.9642 21.7701C16.649 21.3861 17.3155 20.8838 17.899 20.4423L16.089 18.0499ZM10.911 18.0499C9.97285 17.3401 9.07199 16.7022 8.13236 15.96L6.27286 18.3142C7.23183 19.0717 8.26973 19.8134 9.10097 20.4423L10.911 18.0499ZM4.45323 12.0366C3.8611 10.9976 3.5 9.83294 3.5 8.45896H0.5C0.5 10.4001 1.02066 12.0724 1.84677 13.522L4.45323 12.0366ZM12.4616 5.52787L14.7616 7.73444L16.8384 5.5696L14.5384 3.36304L12.4616 5.52787Z" fill="#F4213A"/>
</svg>
