<svg width="58" height="58" viewBox="0 0 58 58" fill="none" xmlns="http://www.w3.org/2000/svg">
<g clip-path="url(#clip0_1_1726)">
<path d="M2.71608 32.1587C1.76131 30.1611 1.76131 27.8389 2.71608 25.8413C3.12888 24.9776 3.83283 24.1516 5.24073 22.4995C5.80108 21.842 6.08125 21.5132 6.31659 21.1621C6.85606 20.3572 7.23048 19.4533 7.41815 18.5027C7.50002 18.088 7.53438 17.6574 7.60311 16.7962C7.77577 14.6325 7.86211 13.5506 8.18092 12.648C8.91829 10.5604 10.5604 8.91829 12.648 8.18092C13.5506 7.86211 14.6325 7.77577 16.7962 7.60311C17.6574 7.53438 18.088 7.50002 18.5027 7.41815C19.4533 7.23048 20.3572 6.85606 21.1621 6.31659C21.5132 6.08125 21.842 5.80108 22.4995 5.24073C24.1516 3.83283 24.9776 3.12888 25.8413 2.71608C27.8389 1.76131 30.1611 1.76131 32.1587 2.71608C33.0224 3.12888 33.8484 3.83283 35.5005 5.24073C36.158 5.80108 36.4868 6.08125 36.8379 6.31659C37.6428 6.85606 38.5467 7.23048 39.4973 7.41815C39.912 7.50002 40.3426 7.53438 41.2038 7.60311C43.3675 7.77577 44.4494 7.86211 45.352 8.18092C47.4396 8.91829 49.0817 10.5604 49.8191 12.648M8.18092 45.352C8.91829 47.4396 10.5604 49.0817 12.648 49.8191C13.5506 50.1379 14.6325 50.2242 16.7962 50.3969C17.6574 50.4656 18.088 50.5 18.5027 50.5818C19.4533 50.7695 20.3572 51.1439 21.1621 51.6834C21.5132 51.9187 21.842 52.1989 22.4995 52.7593C24.1516 54.1672 24.9776 54.8711 25.8413 55.2839C27.8389 56.2387 30.1611 56.2387 32.1587 55.2839C33.0224 54.8711 33.8484 54.1672 35.5005 52.7593C36.158 52.1989 36.4868 51.9187 36.8379 51.6834C37.6428 51.1439 38.5467 50.7695 39.4973 50.5818C39.912 50.5 40.3426 50.4656 41.2038 50.3969C43.3675 50.2242 44.4494 50.1379 45.352 49.8191C47.4396 49.0817 49.0817 47.4396 49.8191 45.352C50.1379 44.4494 50.2242 43.3675 50.3969 41.2038C50.4656 40.3426 50.5 39.912 50.5818 39.4973C50.7695 38.5467 51.1439 37.6428 51.6834 36.8379C51.9187 36.4868 52.1989 36.158 52.7593 35.5005C54.1672 33.8484 54.8711 33.0224 55.2839 32.1587C56.2387 30.1611 56.2387 27.8389 55.2839 25.8413" stroke="#282828" stroke-width="3" stroke-linecap="round"/>
<path d="M20 38L38 20" stroke="#282828" stroke-width="3" stroke-linecap="round"/>
<path d="M39 36C39 37.6569 37.6569 39 36 39C34.3431 39 33 37.6569 33 36C33 34.3431 34.3431 33 36 33C37.6569 33 39 34.3431 39 36Z" fill="#282828"/>
<path d="M25 22C25 23.6569 23.6569 25 22 25C20.3431 25 19 23.6569 19 22C19 20.3431 20.3431 19 22 19C23.6569 19 25 20.3431 25 22Z" fill="#282828"/>
</g>
<defs>
<clipPath id="clip0_1_1726">
<rect width="58" height="58" fill="white"/>
</clipPath>
</defs>
</svg>
