<svg width="58" height="58" viewBox="0 0 58 58" fill="none" xmlns="http://www.w3.org/2000/svg">
<path d="M26.7225 16.8971C27.7359 14.9657 28.2425 14 29 14C29.7575 14 30.2641 14.9657 31.2775 16.8971L31.5396 17.3968C31.8276 17.9456 31.9716 18.2201 32.196 18.4011C32.4205 18.5822 32.7001 18.6494 33.2593 18.7838L33.7684 18.9062C35.7361 19.3793 36.72 19.6158 36.9541 20.4156C37.1881 21.2153 36.5174 22.0487 35.1759 23.7154L34.8289 24.1466C34.4477 24.6203 34.2571 24.8571 34.1713 25.1501C34.0856 25.443 34.1144 25.759 34.172 26.3909L34.2245 26.9662C34.4273 29.19 34.5287 30.3019 33.9159 30.7962C33.3031 31.2905 32.3819 30.8398 30.5395 29.9385L30.0628 29.7053C29.5393 29.4492 29.2775 29.3211 29 29.3211C28.7225 29.3211 28.4607 29.4492 27.9372 29.7053L27.4605 29.9385C25.6181 30.8398 24.6969 31.2905 24.0841 30.7962C23.4713 30.3019 23.5727 29.19 23.7755 26.9662L23.828 26.3909C23.8856 25.759 23.9144 25.443 23.8287 25.1501C23.7429 24.8571 23.5523 24.6203 23.1711 24.1466L22.8241 23.7154C21.4826 22.0487 20.8119 21.2153 21.0459 20.4156C21.28 19.6158 22.2639 19.3793 24.2316 18.9062L24.7407 18.7838C25.2999 18.6494 25.5795 18.5822 25.804 18.4011C26.0284 18.2201 26.1724 17.9456 26.4604 17.3968L26.7225 16.8971Z" stroke="#282828" stroke-width="3"/>
<path d="M29 41.8476L18.8171 52.2609C17.3588 53.7522 16.6296 54.4978 16.0121 54.7558C14.605 55.3438 13.0441 54.8406 12.3039 53.5604C11.9791 52.9986 11.8779 51.9853 11.6755 49.9586C11.5612 48.8143 11.504 48.2421 11.3305 47.7629C10.9422 46.6901 10.1261 45.8555 9.07698 45.4584C8.60837 45.281 8.04888 45.2225 6.9299 45.1057C4.94804 44.8986 3.95712 44.7951 3.40773 44.4629C2.15584 43.706 1.66379 42.1098 2.23876 40.6709C2.49108 40.0394 3.22024 39.2938 4.67855 37.8025L11.3305 31" stroke="#282828" stroke-width="3"/>
<path d="M29 41.8476L39.1829 52.2609C40.6412 53.7522 41.3704 54.4978 41.9879 54.7558C43.395 55.3438 44.9559 54.8406 45.6961 53.5604C46.0209 52.9986 46.1221 51.9853 46.3245 49.9586C46.4388 48.8143 46.496 48.2421 46.6695 47.7629C47.0578 46.6901 47.8739 45.8555 48.923 45.4584C49.3916 45.281 49.9511 45.2225 51.0701 45.1057C53.052 44.8986 54.0429 44.7951 54.5923 44.4629C55.8442 43.706 56.3362 42.1098 55.7612 40.6709C55.5089 40.0394 54.7798 39.2938 53.3214 37.8025L46.6695 31" stroke="#282828" stroke-width="3"/>
<path d="M11.3571 15.9345C10.4817 18.1186 10 20.503 10 23C10 33.4934 18.5066 42 29 42C39.4934 42 48 33.4934 48 23C48 12.5066 39.4934 4 29 4C26.503 4 24.1186 4.48166 21.9345 5.35714" stroke="#282828" stroke-width="3" stroke-linecap="round"/>
</svg>
