<svg width="59" height="58" viewBox="0 0 59 58" fill="none" xmlns="http://www.w3.org/2000/svg">
<path d="M47.9 29.625L50.4775 27.0475C54.1592 23.3658 56 21.525 56 19.2375C56 16.95 54.1592 15.1092 50.4775 11.4275L46.5725 7.5225C42.8908 3.84083 41.05 2 38.7625 2C36.475 2 34.6342 3.84083 30.9525 7.5225L7.5225 30.9525C3.84083 34.6342 2 36.475 2 38.7625C2 41.05 3.84083 42.8908 7.5225 46.5725L11.4275 50.4775C15.1092 54.1592 16.95 56 19.2375 56C21.525 56 23.3658 54.1592 27.0475 50.4775L40.425 37.1" stroke="#282828" stroke-width="3" stroke-linecap="round"/>
<path d="M20 20L23.5355 23.5355" stroke="#282828" stroke-width="3" stroke-linecap="round"/>
<path d="M31 8L34.5355 11.5355" stroke="#282828" stroke-width="3" stroke-linecap="round"/>
<path d="M8 31L11.5355 34.5355" stroke="#282828" stroke-width="3" stroke-linecap="round"/>
<path d="M14 26L19.6569 31.6569" stroke="#282828" stroke-width="3" stroke-linecap="round"/>
<path d="M26 14L31.6569 19.6569" stroke="#282828" stroke-width="3" stroke-linecap="round"/>
</svg>
