<svg width="58" height="58" viewBox="0 0 58 58" fill="none" xmlns="http://www.w3.org/2000/svg">
<g clip-path="url(#clip0_1_1720)">
<path d="M56.0701 18.0646L39.9354 1.92808C37.3647 -0.642693 33.1836 -0.642693 30.613 1.92808L1.928 30.6142C-0.642667 33.1909 -0.642667 37.3615 1.928 39.937L18.0627 56.0724C20.6334 58.6431 24.8156 58.6419 27.3851 56.0724L28.5011 54.9563C28.8445 54.6759 29.0644 54.2504 29.0644 53.7726C29.0644 52.9287 28.381 52.2453 27.5372 52.2453C27.1415 52.2453 26.7825 52.3975 26.5116 52.6435L26.5056 52.6482C26.4735 52.6779 26.4426 52.7089 26.4141 52.7397L25.234 53.92C23.8494 55.3046 21.5984 55.3046 20.2138 53.92L8.44202 42.1476L42.1483 8.44355L53.9201 20.2159C55.3047 21.6005 55.3023 23.8539 53.9201 25.2362L31.452 47.7052C31.105 47.9857 30.8828 48.4135 30.8828 48.8937C30.8828 49.7375 31.5661 50.4209 32.41 50.4209C32.7938 50.4209 33.1432 50.2783 33.4118 50.0454L33.4142 50.0477L33.4582 50.0038C33.4796 49.9836 33.4998 49.9634 33.52 49.942L56.0724 27.3886C58.6431 24.8178 58.6419 20.6354 56.0724 18.0658L56.0701 18.0646ZM6.2897 39.9964L4.07914 37.7858C2.69457 36.4011 2.69457 34.1501 4.07914 32.7655L32.7641 4.08049C34.1463 2.69824 36.3997 2.69586 37.7842 4.08049L39.9948 6.29114L6.2897 39.9964Z" fill="#282828"/>
<path d="M43.7425 29.5293L47.5293 25.7425C48.1569 25.1149 48.1569 24.0983 47.5293 23.4707C46.9017 22.8431 45.8851 22.8431 45.2575 23.4707L41.4707 27.2575C40.8431 27.8851 40.8431 28.9017 41.4707 29.5293C42.0983 30.1569 43.1149 30.1569 43.7425 29.5293Z" fill="#282828"/>
</g>
<defs>
<clipPath id="clip0_1_1720">
<rect width="58" height="58" fill="white"/>
</clipPath>
</defs>
</svg>
