<svg width="56" height="55" viewBox="0 0 56 55" fill="none" xmlns="http://www.w3.org/2000/svg">
<g clip-path="url(#clip0_1_2050)">
<path d="M54.0745 10.0273C53.9083 9.69261 53.7222 9.34569 53.5183 8.99654C53.2712 8.57068 52.8235 8.31605 52.3227 8.31605C51.9537 8.31605 51.608 8.45726 51.3476 8.713L47.6322 12.3645L43.7108 16.2185L41.7196 18.1754L40.9052 18.976L37.8225 18.35L37.7283 17.8875C37.5555 17.0413 37.376 16.1651 37.2042 15.3034L37.202 15.2945C37.1987 15.28 37.1965 15.2655 37.1931 15.2511C37.1931 15.2333 37.1909 15.2177 37.1887 15.2022C37.1887 15.1888 37.1887 15.1755 37.1876 15.1621C37.1876 15.1355 37.1854 15.1088 37.1854 15.081C37.1854 15.0721 37.1887 15.0565 37.1909 15.0421C37.1965 15.0054 37.202 14.962 37.2042 14.9153C37.2064 14.9075 37.2075 14.8986 37.2098 14.8908C37.2197 14.8508 37.2341 14.8085 37.2474 14.763L37.2574 14.7318C37.3028 14.6473 37.3449 14.5706 37.3915 14.5005L37.3937 14.4972C37.4103 14.4783 37.4281 14.4605 37.4458 14.4416C37.5976 14.2848 37.756 14.1269 37.9101 13.9735C37.9898 13.8945 38.0685 13.8156 38.1472 13.7367L41.5434 10.3286L43.3052 8.56067L45.0671 6.79272C45.1114 6.74824 45.1568 6.70376 45.2022 6.65929L46.2837 5.51846C46.7768 4.888 47.1148 4.14857 46.8843 3.25014C46.7591 2.75978 46.4898 2.40063 46.1552 2.12265C46.153 2.12154 46.1508 2.11821 46.1485 2.1171C46.102 2.07818 46.0544 2.04148 46.0045 2.0059C45.9934 1.99701 45.9823 1.98922 45.9701 1.98033C45.7275 1.80909 45.4604 1.67233 45.1945 1.55224V1.54668L45.1934 1.55113C45.0216 1.47329 44.8499 1.40324 44.687 1.33653L44.6139 1.30651C43.8371 0.987385 43.0293 0.724972 42.2149 0.524826C40.7933 0.176795 39.3395 0 37.8934 0C37.653 0 37.4092 0.0055596 37.1699 0.014455C34.4629 0.126759 31.7703 0.856178 29.3846 2.12377C27.0842 3.34577 25.0753 5.07369 23.4143 7.25861C21.8453 9.32234 20.7306 11.7597 20.1898 14.3071C19.8896 15.7237 19.7522 17.1458 19.7821 18.5346C19.7921 18.9938 19.8209 19.4586 19.8685 19.9178C19.8984 20.208 19.9372 20.5016 19.9727 20.754C19.9738 20.7629 19.9749 20.7718 19.9749 20.7818C19.9771 20.8107 19.9804 20.8485 19.9882 20.8896C19.9982 20.9808 20.007 21.0664 20.0126 21.1521C20.0236 21.3144 20.0259 21.4723 20.0214 21.6224C20.0203 21.6691 20.017 21.7158 20.0137 21.7625C20.0114 21.7992 20.0081 21.8359 20.007 21.8715C19.9871 21.976 19.9638 22.0883 19.9328 22.1939C19.925 22.2217 19.915 22.2495 19.9062 22.2773L19.8995 22.2984C19.8929 22.3107 19.8862 22.324 19.8796 22.3374C19.8674 22.3618 19.8552 22.3863 19.843 22.4074C19.7876 22.4597 19.7355 22.5164 19.6868 22.5764L16.2839 25.8166L15.7011 26.3714L15.5482 26.5171L15.1315 26.914C14.8689 27.1642 14.7204 27.53 14.7238 27.9203C14.7271 28.3006 14.8767 28.6553 15.1348 28.8932C15.4063 29.1434 15.7531 29.2813 16.1099 29.2813C16.4667 29.2813 16.8102 29.1423 17.0762 28.8888L21.1926 24.9704C21.2392 24.9259 21.2868 24.8825 21.3356 24.8381C21.4386 24.7447 21.5439 24.6479 21.6425 24.5423L21.6868 24.5C22.7085 23.5271 22.8171 22.0738 22.7905 21.2944C22.7849 21.1198 22.7694 20.9363 22.7439 20.7162C22.7284 20.5816 22.7085 20.4371 22.6819 20.2492L22.6786 20.2236L22.6764 20.2036L22.6675 20.1291L22.6631 20.0946C22.6132 19.671 22.5799 19.2418 22.5622 18.8192C22.5356 18.1387 22.5511 17.446 22.6088 16.7622C22.6221 16.6076 22.6376 16.452 22.6542 16.2996C22.6608 16.2429 22.6675 16.1862 22.6741 16.1295L22.6797 16.0861V16.0828C22.6841 16.0628 22.6874 16.0406 22.6896 16.0183V16.0161C22.734 15.7137 22.7883 15.4101 22.8492 15.1121C22.9711 14.5206 23.1262 13.9312 23.3124 13.3597C23.4044 13.0773 23.5052 12.7926 23.6127 12.5135C23.637 12.4491 23.6625 12.3857 23.688 12.3212L23.7213 12.24C23.7268 12.2267 23.739 12.1989 23.7501 12.1722C23.7634 12.1422 23.7767 12.1099 23.7811 12.0988C23.8132 12.0254 23.8454 11.952 23.8786 11.8798C24.1268 11.3338 24.4094 10.7945 24.7174 10.2775C25.0055 9.7949 25.3268 9.31455 25.7014 8.81085C25.7047 8.80641 25.708 8.80196 25.7113 8.7964C25.7291 8.77416 25.7468 8.75192 25.7634 8.72968C25.7845 8.703 25.8044 8.67631 25.8255 8.65074C25.9241 8.52731 26.0249 8.40389 26.1258 8.28491C26.3141 8.06253 26.5114 7.84126 26.7108 7.62888C27.1186 7.19523 27.5552 6.77938 28.0073 6.39354C28.1092 6.3057 28.2145 6.21897 28.3186 6.13335C28.3707 6.0911 28.4239 6.04884 28.4771 6.00659C28.4859 5.99992 28.4948 5.99214 28.5037 5.98546C28.5114 5.97991 28.5192 5.97435 28.5303 5.96656C28.7386 5.81089 28.9868 5.62854 29.2472 5.45063C29.7325 5.12039 30.2422 4.81461 30.7597 4.53886C31.0201 4.40098 31.2871 4.26755 31.5542 4.14412C31.6362 4.10632 31.7204 4.06963 31.8035 4.03293C31.8523 4.01181 31.901 3.98957 31.9498 3.96844C31.9531 3.96733 31.9575 3.96511 31.9608 3.96399L32.003 3.94732C32.0639 3.92285 32.1248 3.89839 32.1858 3.87393C33.3171 3.42916 34.5016 3.11004 35.705 2.9288C35.7094 2.9288 35.7161 2.92657 35.7238 2.92546C35.7471 2.92546 35.7726 2.92101 35.8668 2.90767C35.9033 2.90211 35.9388 2.89766 35.9521 2.89544C36.1039 2.87765 36.259 2.86097 36.4131 2.84763C36.7222 2.81983 37.0358 2.80093 37.3449 2.79092C37.5256 2.78536 37.7084 2.78202 37.889 2.78202C38.4818 2.78202 39.078 2.81427 39.663 2.87765C39.755 2.88766 39.847 2.89877 39.94 2.90989L39.9711 2.91323C39.9833 2.91545 39.9999 2.91768 40.0231 2.92101C40.2115 2.94992 40.4353 2.9855 40.6581 3.02776C41.0437 3.10114 41.4304 3.18899 41.8093 3.28906C42.185 3.38913 42.5617 3.50366 42.9285 3.63042C43.1102 3.69269 43.2942 3.7594 43.4748 3.82945C43.5579 3.8617 43.641 3.89394 43.7241 3.9273C43.7474 3.9362 43.7983 3.95843 43.8404 3.97623C43.8759 3.99179 43.9036 4.00291 43.9269 4.01181C43.928 4.01181 43.9291 4.01292 43.9313 4.01403C43.8138 4.13301 43.6942 4.25198 43.5778 4.36762C43.4969 4.44768 43.416 4.52885 43.3352 4.60891L42.2293 5.7186L40.0165 7.93911L38.2702 9.69149L36.5239 11.4439C36.4219 11.5462 36.3178 11.6485 36.2125 11.7508C35.51 12.4368 34.7842 13.1462 34.5305 14.2037C34.3255 15.0598 34.4939 15.8682 34.6568 16.6488C34.6745 16.7311 34.6911 16.8145 34.7077 16.8978L34.9604 18.1387L35.213 19.3797L35.233 19.4786L35.3139 19.8745C35.408 20.3392 35.8457 20.7773 36.3078 20.8718L38.4663 21.3099L40.6248 21.748L40.647 21.7525C40.873 21.7981 41.1068 21.8459 41.344 21.8459C41.7174 21.8459 42.0343 21.7258 42.3157 21.4778C42.3567 21.4423 42.3933 21.4045 42.4254 21.3722C42.4387 21.3589 42.4531 21.3444 42.4664 21.3311L43.416 20.3982L47.0317 16.8456L48.5597 15.3434L51.0794 12.8671C51.321 12.6303 51.5703 12.3912 51.8119 12.16C51.8617 12.1121 51.9116 12.0643 51.9615 12.0165C51.9615 12.0165 51.9615 12.0176 51.9615 12.0187C51.967 12.031 51.9847 12.0743 52.0036 12.1188C52.018 12.1533 52.0324 12.1866 52.0479 12.2189C52.3227 12.8994 52.551 13.5821 52.726 14.2481C52.8158 14.5906 52.8956 14.9409 52.9632 15.2889C52.9975 15.4635 53.0285 15.6414 53.0573 15.8182C53.0673 15.8771 53.0762 15.9371 53.085 15.9972L53.0983 16.0884V16.0995L53.1006 16.1073C53.1061 16.1562 53.1127 16.204 53.1183 16.2529C53.2025 16.9812 53.2391 17.7262 53.2269 18.4645C53.2169 19.0238 53.1759 19.6087 53.0994 20.2514V20.2558L53.085 20.3504C53.0795 20.3904 53.0729 20.4293 53.0673 20.4693C53.0452 20.6083 53.0219 20.7495 52.9964 20.8874C52.9421 21.1854 52.8778 21.4856 52.8069 21.7803C52.6717 22.3407 52.5044 22.9011 52.3105 23.4437C52.2839 23.5182 52.2595 23.5994 52.2352 23.6783C52.193 23.8184 52.1487 23.963 52.0944 24.072C52.0712 24.1053 52.0357 24.1587 52.0113 24.2165C51.9836 24.2799 51.9559 24.3421 51.9282 24.4044C51.8628 24.549 51.7941 24.6957 51.7254 24.8381C51.4783 25.3462 51.2013 25.8488 50.9021 26.3303C50.7592 26.5604 50.6085 26.7895 50.4556 27.0119C50.3791 27.1219 50.2994 27.2343 50.2196 27.3432C50.1797 27.3977 50.1398 27.4522 50.0988 27.5067L50.0478 27.5745C49.3287 28.4818 48.5453 29.2957 47.7198 29.9963C47.6167 30.083 47.5115 30.1708 47.4073 30.2553C47.373 30.2831 47.3375 30.3109 47.3031 30.3387L47.2577 30.3743L47.2544 30.3765L47.25 30.3799C47.0261 30.5467 46.7835 30.7246 46.5319 30.8958C46.0643 31.2127 45.5768 31.5085 45.0804 31.7753C44.841 31.9043 44.595 32.0277 44.3501 32.1445C44.2271 32.2023 44.1019 32.2601 43.9767 32.3157C43.9601 32.3235 43.9413 32.3324 43.9224 32.3413C43.9025 32.3491 43.8792 32.3591 43.8482 32.3713C43.8072 32.388 43.7651 32.4058 43.7219 32.4225C43.19 32.6371 42.6415 32.825 42.0908 32.9818C41.4658 33.1597 40.8221 33.3009 40.1794 33.4032C40.1395 33.4099 40.1007 33.4154 40.0608 33.421L39.9666 33.4354H39.9611L39.9522 33.4377L39.8979 33.4443C39.7339 33.4643 39.5677 33.4821 39.4026 33.4977C39.0702 33.5277 38.7322 33.5488 38.3987 33.5589C38.2436 33.5633 38.084 33.5655 37.9256 33.5655C37.2685 33.5655 36.5737 33.5233 35.8612 33.441L35.818 33.4365L35.7693 33.4288L35.6418 33.4087C35.5576 33.3954 35.4734 33.3821 35.3903 33.3687C35.1731 33.3309 34.9548 33.2898 34.741 33.2431C34.331 33.1552 33.9022 33.0451 33.4689 32.9173C33.3515 32.8828 33.2263 32.865 33.0988 32.865C32.7221 32.865 32.352 33.0207 32.1093 33.2809C31.5221 33.9113 30.8694 34.514 30.2378 35.0966C29.9508 35.3613 29.655 35.6348 29.368 35.9083L26.856 38.299L23.5362 41.459L17.4984 47.2066C17.1493 47.5379 16.8003 47.8693 16.4512 48.2006C15.7642 48.8511 15.054 49.5249 14.3614 50.1932C14.3326 50.221 14.3038 50.2488 14.275 50.2777C14.2373 50.3144 14.1996 50.3511 14.162 50.3878C14.0733 50.4723 13.9813 50.5557 13.8883 50.6357C13.8772 50.6457 13.8428 50.6691 13.8185 50.6858C13.7387 50.7402 13.6511 50.8014 13.5813 50.8826C13.5448 50.9092 13.5071 50.9359 13.4705 50.9615C13.3553 51.0416 13.2345 51.1216 13.1115 51.1983C12.9121 51.3218 12.7037 51.4385 12.4921 51.5442C12.4145 51.5831 12.3359 51.6198 12.2528 51.6576L12.1719 51.6954C12.142 51.7065 12.1131 51.7176 12.0832 51.7298C12.0456 51.7443 12.0079 51.7599 11.9702 51.7732C11.5048 51.9456 11.0195 52.0745 10.5286 52.1546C10.5098 52.1579 10.4865 52.1635 10.461 52.1691C10.44 52.1691 10.4189 52.1713 10.3979 52.1735C10.2715 52.188 10.1441 52.198 10.02 52.2057C9.86045 52.2158 9.69756 52.2202 9.53689 52.2202C9.44492 52.2202 9.35295 52.2191 9.26098 52.2158C9.14574 52.2113 9.0294 52.2046 8.91637 52.1957C8.88202 52.1935 8.84546 52.1924 8.80224 52.1924C8.7823 52.1924 8.76124 52.1924 8.74019 52.1924C8.7136 52.1835 8.68368 52.1768 8.65154 52.1713L8.56955 52.1579C8.52633 52.1513 8.48423 52.1446 8.44101 52.1368C8.30361 52.1123 8.16732 52.0845 8.03435 52.0534C7.80831 52 7.58337 51.9367 7.36508 51.8655C7.25427 51.8288 7.14346 51.7899 7.03598 51.7487C7.01382 51.7399 6.98834 51.7321 6.96285 51.7232C6.91963 51.7043 6.87753 51.6854 6.83431 51.6654C6.38333 51.4596 5.94897 51.2095 5.54231 50.9193C5.52236 50.9048 5.5002 50.8903 5.47804 50.8759C5.47139 50.8714 5.46363 50.867 5.45699 50.8614C5.44591 50.8525 5.4315 50.8403 5.41266 50.8247C5.31848 50.748 5.22208 50.668 5.129 50.5868C5.07249 50.5379 5.01819 50.4856 4.95946 50.43C4.91071 50.3844 4.86195 50.3377 4.80988 50.291L4.75226 50.2332C4.58383 50.0631 4.43646 49.9018 4.30127 49.7417C4.29241 49.7306 4.28133 49.7128 4.26914 49.695C4.22482 49.6294 4.17274 49.5516 4.10293 49.4904C4.07633 49.4537 4.04974 49.4171 4.02315 49.3792C3.78713 49.0401 3.57549 48.6776 3.39598 48.3018C3.38158 48.2718 3.36496 48.2406 3.34833 48.2084C3.33947 48.1917 3.3295 48.1717 3.31952 48.1528C3.31066 48.125 3.30069 48.0994 3.29182 48.075C3.28296 48.0527 3.27409 48.0305 3.26634 48.0082C3.25747 47.9849 3.24861 47.9627 3.23974 47.9393C3.1655 47.7436 3.09902 47.5424 3.0414 47.3422C2.9871 47.1532 2.93835 46.9597 2.89846 46.7673C2.87741 46.665 2.85746 46.5616 2.84084 46.4605C2.8353 46.4304 2.83087 46.4015 2.82643 46.3715L2.82089 46.3359C2.77546 45.8678 2.76106 45.482 2.77546 45.1184C2.78211 44.9594 2.7943 44.7904 2.81646 44.5746C2.82865 44.5135 2.83862 44.459 2.83973 44.4079C2.85524 44.3133 2.87297 44.2188 2.89181 44.1265C2.97602 43.7162 3.09237 43.3115 3.24085 42.9212C3.25304 42.889 3.26745 42.8434 3.28074 42.7933H3.28407C3.28961 42.7689 3.3162 42.7188 3.33836 42.6777C3.35387 42.6477 3.36939 42.6188 3.38268 42.5899C3.47355 42.3975 3.57438 42.2074 3.67965 42.025C3.78602 41.8415 3.90126 41.6592 4.02315 41.4835C4.0309 41.4735 4.04309 41.4602 4.05528 41.4457C4.08298 41.4146 4.11622 41.3756 4.14614 41.3367C4.17163 41.3078 4.20265 41.2645 4.22703 41.21C4.25252 41.1788 4.27689 41.1488 4.30238 41.1177C4.46859 40.9209 4.62261 40.753 4.77553 40.6051C4.9096 40.475 5.04811 40.3438 5.18329 40.2159C5.25199 40.1514 5.32069 40.0858 5.38939 40.0213L7.33959 38.1655L7.85928 37.6718L9.27871 36.3197L9.65656 35.9595C9.91917 35.7093 10.0677 35.3435 10.0643 34.9532C10.061 34.5729 9.91142 34.2182 9.65324 33.9803C9.38176 33.7301 9.03494 33.5922 8.67814 33.5922C8.32134 33.5922 7.97784 33.7312 7.7119 33.9847L4.64145 36.908L3.51233 37.9821C2.79652 38.6637 1.98209 39.4754 1.36711 40.4939C0.321095 42.2274 -0.149834 44.2744 0.0418616 46.257C0.157101 47.4523 0.459603 48.5542 0.96599 49.6228C1.19758 50.1109 1.47792 50.5801 1.80036 51.0182C1.83804 51.0683 1.87682 51.1227 1.91782 51.1794C2.15605 51.5108 2.45302 51.9222 2.81425 52.2169C4.54061 53.9248 6.82102 54.911 9.23771 54.9944C9.34298 54.9978 9.44935 55 9.55462 55C11.7885 55 13.9891 54.1783 15.7498 52.6861C16.0368 52.4426 16.3094 52.1779 16.5731 51.9211C16.674 51.8221 16.7759 51.7243 16.8767 51.6275L17.5737 50.9648L18.7106 49.8818L21.9484 46.7996L24.5656 44.3078L26.0726 42.8734L30.6722 38.4958C31.0245 38.16 31.3791 37.8253 31.7337 37.4906C32.3154 36.9402 32.916 36.3731 33.5033 35.8072C34.9327 36.1619 36.4097 36.342 37.8945 36.342C39.2619 36.342 40.6281 36.1885 41.9556 35.8872C44.4166 35.3279 46.7713 34.2249 48.7658 32.6982C50.8711 31.0871 52.5532 29.1445 53.7654 26.9263C55.0275 24.6168 55.7643 22.0916 55.9549 19.4197C56.1843 16.2151 55.535 12.9683 54.0779 10.0306L54.0745 10.0273Z" fill="#1D1D1B"/>
</g>
<defs>
<clipPath id="clip0_1_2050">
<rect width="56" height="55" fill="white"/>
</clipPath>
</defs>
</svg>
