<svg width="19" height="19" viewBox="0 0 19 19" fill="none" xmlns="http://www.w3.org/2000/svg">
<path d="M3.31202 9.46746C2.46926 8.64449 1.99731 7.52978 2.00001 6.36854C2.00271 5.20731 2.47984 4.09468 3.32643 3.27542C4.17301 2.45617 5.31972 1.99739 6.51427 2.00001C7.70883 2.00264 8.85338 2.46645 9.69615 3.28942L10.0042 3.58884L10.3122 3.28942C10.7303 2.88278 11.2267 2.5602 11.7731 2.34012C12.3195 2.12004 12.9052 2.00676 13.4966 2.00676C14.0881 2.00676 14.6737 2.12004 15.2201 2.34012C15.7665 2.5602 16.263 2.88278 16.6811 3.28942C17.5231 4.10821 17.9973 5.21781 18 6.37555C18.0027 7.5333 17.5337 8.64497 16.6955 9.46746L10.5858 15.7567C10.511 15.8336 10.4209 15.8948 10.321 15.9366C10.221 15.9784 10.1134 16 10.0046 16C9.89575 16 9.78809 15.9784 9.68815 15.9366C9.58822 15.8948 9.49811 15.8336 9.42335 15.7567L3.31202 9.46746ZM10.0042 14.0909L15.5347 8.39812L15.5507 8.38257C16.0948 7.8527 16.4005 7.13456 16.4005 6.38583C16.4005 5.6371 16.0948 4.91896 15.5507 4.38909C15.0057 3.8599 14.2669 3.56266 13.4966 3.56266C12.7263 3.56266 11.9876 3.8599 11.4426 4.38909L10.5698 5.23834C10.4197 5.38413 10.2163 5.46604 10.0042 5.46604C9.79202 5.46604 9.58857 5.38413 9.43855 5.23834L8.56493 4.38909C8.15909 3.99345 7.64155 3.72386 7.07791 3.61447C6.51428 3.50509 5.92992 3.56084 5.39892 3.77466C4.86792 3.98849 4.41417 4.35075 4.0952 4.81554C3.77623 5.28033 3.6064 5.82672 3.60723 6.38544C3.60696 6.75997 3.68336 7.1308 3.83197 7.47635C3.98058 7.82189 4.19844 8.13523 4.47285 8.39812L10.0042 14.0909Z" fill="#F4213A"/>
</svg>
