<svg width="20" height="21" viewBox="0 0 20 21" fill="none" xmlns="http://www.w3.org/2000/svg">
<path d="M20 6.39306V5.50224C20 3.84684 18.6729 2.5 17.0415 2.5H7.6759C6.98395 2.5 6.40836 3.01437 6.30043 3.68606H5.50297C4.63918 3.68606 3.93645 4.39922 3.93645 5.27574V5.35454H0V6.5406H3.93641V6.61945C3.93641 7.496 4.63918 8.20912 5.50293 8.20912H6.30039C6.40836 8.88082 6.98391 9.39518 7.67586 9.39518H11.1852L12.102 11.7319H13.2695L14.1981 14.0053C14.2017 14.0154 14.2063 14.0353 14.1904 14.059C14.1722 14.086 14.1489 14.086 14.14 14.086H12.6141V19.5H17.7943C18.9476 19.5 19.8858 18.5479 19.8858 17.3776V13.9304L17.8814 9.27202C19.1048 8.90393 20 7.75255 20 6.39306ZM6.27398 7.02318H5.50293C5.28363 7.02318 5.1052 6.8421 5.1052 6.61957V5.27586C5.1052 5.05332 5.28363 4.87224 5.50293 4.87224H6.27398V7.02318ZM9.82973 8.20924H7.6759C7.61621 8.20918 7.55898 8.18509 7.51677 8.14226C7.47456 8.09944 7.45081 8.04137 7.45074 7.9808V3.91459C7.4508 3.85401 7.47455 3.79594 7.51676 3.75311C7.55897 3.71028 7.61621 3.68619 7.6759 3.68614H9.82973V8.20924ZM18.717 17.3777C18.717 17.894 18.303 18.3141 17.7942 18.3141H13.7829V17.328H18.717V17.3777ZM18.8312 6.39306C18.8312 7.39448 18.0284 8.2092 17.0415 8.2092H16.1487L18.717 14.1782V16.142H13.7829V15.2723H14.1401C14.3403 15.2724 14.5374 15.2228 14.7144 15.128C14.8914 15.0331 15.0429 14.8959 15.1557 14.7281C15.2686 14.5604 15.3395 14.3673 15.3621 14.1655C15.3847 13.9637 15.3584 13.7594 15.2855 13.5702L13.0958 8.20924H10.9986V3.68614H17.0415C18.0284 3.68614 18.8312 4.50086 18.8312 5.50228V6.39306Z" fill="#F4213A"/>
</svg>
