<svg width="13" height="16" viewBox="0 0 13 16" fill="none" xmlns="http://www.w3.org/2000/svg">
<g clip-path="url(#clip0_1_14092)">
<path d="M12.9939 6C12.9938 5.82675 12.9339 5.65608 12.8096 5.52863L7.60959 0.195292C7.48532 0.0674165 7.31896 0.00537491 7.15 0.00537491V0H3.25C1.45807 0 0 1.49546 0 3.33333V12.6667C0 14.5045 1.45807 16 3.25 16H9.75C11.5419 16 13 14.5045 13 12.6667V6H12.9939ZM7.8 2.27604L10.7809 5.33333H9.75C8.6747 5.33333 7.8 4.43621 7.8 3.33333V2.27604ZM9.75 14.6667H3.25C2.1747 14.6667 1.3 13.7695 1.3 12.6667V3.33333C1.3 2.23046 2.1747 1.33333 3.25 1.33333H6.5V3.33333C6.5 5.17121 7.95807 6.66667 9.75 6.66667H11.7V12.6667C11.7 13.7695 10.8253 14.6667 9.75 14.6667ZM9.75 12C9.75 12.3685 9.45896 12.6667 9.1 12.6667H3.9C3.54104 12.6667 3.25 12.3685 3.25 12C3.25 11.6315 3.54104 11.3333 3.9 11.3333H9.1C9.45896 11.3333 9.75 11.6315 9.75 12ZM9.75 9.33333C9.75 9.70183 9.45896 10 9.1 10H3.9C3.54104 10 3.25 9.70183 3.25 9.33333C3.25 8.96483 3.54104 8.66667 3.9 8.66667H9.1C9.45896 8.66667 9.75 8.96483 9.75 9.33333ZM3.25 6.66667C3.25 6.29817 3.54104 6 3.9 6H5.2C5.55896 6 5.85 6.29817 5.85 6.66667C5.85 7.03517 5.55896 7.33333 5.2 7.33333H3.9C3.54104 7.33333 3.25 7.03517 3.25 6.66667Z" fill="#F4213A"/>
</g>
<defs>
<clipPath id="clip0_1_14092">
<rect width="13" height="16" fill="white"/>
</clipPath>
</defs>
</svg>
