<svg width="24" height="15" viewBox="0 0 24 15" fill="none" xmlns="http://www.w3.org/2000/svg">
<g clip-path="url(#clip0_1_11139)">
<path d="M21.6081 2.11703C20.3366 0.751893 18.6316 0 16.8067 0C15.4423 0 14.1292 0.42776 13.0079 1.23738L12.9848 1.25442L12.9566 1.25773C12.8999 1.26483 12.8441 1.28044 12.7915 1.30505L8.25557 3.41073C8.051 3.50584 7.919 3.71782 7.919 3.9511V6.90852C7.919 7.23454 8.17347 7.5 8.486 7.5H10.1339L10.143 7.60789C10.1852 8.10852 10.2782 8.60158 10.4192 9.07334L10.465 9.22666H1.06699C0.754467 9.22666 0.5 9.49211 0.5 9.81814V14.408C0.5 14.7341 0.754467 14.9995 1.06699 14.9995C1.37952 14.9995 1.63399 14.7341 1.63399 14.408V13.9585H22.8196H22.9289C23.0813 13.9585 23.2233 13.897 23.3304 13.7858C23.4379 13.6741 23.4968 13.5256 23.4968 13.367V7.17871C23.5472 5.27603 22.8763 3.47934 21.6076 2.11703H21.6081ZM16.8067 1.18297C18.3227 1.18297 19.7388 1.80757 20.7948 2.94133C21.8503 4.07508 22.4073 5.56987 22.3637 7.15126V7.16877V12.7751L17.171 12.7647C17.1587 12.7647 17.1479 12.7647 17.137 12.7656C17.0245 12.7727 16.912 12.776 16.7999 12.776C15.3775 12.776 14.0366 12.2219 12.9934 11.1956C11.8694 10.0897 11.2507 8.59259 11.2507 6.97997C11.2507 3.7836 13.7432 1.18344 16.8072 1.18344L16.8067 1.18297ZM10.157 6.21151L10.1457 6.31704H9.05299V4.33533L11.0515 3.40741L10.8969 3.71073C10.4986 4.49148 10.2496 5.33281 10.157 6.21151ZM1.63399 12.776V10.4101H3.22157V10.6703C3.22157 10.9964 3.47604 11.2618 3.78857 11.2618C4.10109 11.2618 4.35556 10.9964 4.35556 10.6703V10.4101H5.94314V10.6703C5.94314 10.9964 6.19761 11.2618 6.51014 11.2618C6.82266 11.2618 7.07713 10.9964 7.07713 10.6703V10.4101H8.66471V10.6703C8.66471 10.9964 8.91918 11.2618 9.23171 11.2618C9.54424 11.2618 9.7987 10.9964 9.7987 10.6703V10.4101H10.9744L11.0071 10.4692C11.3314 11.0522 11.7374 11.5864 12.215 12.0558C12.396 12.2338 12.5901 12.4046 12.7915 12.5636L13.0619 12.7765H1.63399V12.776Z" fill="#F4213A"/>
<path d="M17.5 10C19.1542 10 20.5 8.65416 20.5 7C20.5 5.34584 19.1542 4 17.5 4C15.8458 4 14.5 5.34584 14.5 7C14.5 8.65416 15.8458 10 17.5 10ZM17.5 5.18765C18.4995 5.18765 19.3124 6.00047 19.3124 7C19.3124 7.99952 18.4995 8.81235 17.5 8.81235C16.5005 8.81235 15.6876 7.99952 15.6876 7C15.6876 6.00047 16.5009 5.18765 17.5 5.18765Z" fill="#F4213A"/>
</g>
<defs>
<clipPath id="clip0_1_11139">
<rect width="23" height="15" fill="white" transform="translate(0.5)"/>
</clipPath>
</defs>
</svg>
