<svg width="22" height="21" viewBox="0 0 22 21" fill="none" xmlns="http://www.w3.org/2000/svg">
<path d="M6.17578 9.97461C6.30984 9.93603 6.42771 9.85489 6.51161 9.74345C6.59551 9.632 6.64088 9.49629 6.64088 9.3568C6.64088 9.2173 6.59551 9.08159 6.51161 8.97014C6.42771 8.8587 6.30984 8.77756 6.17578 8.73899C5.81095 8.66175 5.4764 8.48024 5.21277 8.2165C4.94913 7.95276 4.76776 7.61814 4.69068 7.25328C4.65248 7.1187 4.57142 7.00026 4.45981 6.91592C4.34819 6.83157 4.21211 6.78594 4.07221 6.78594C3.93231 6.78594 3.79623 6.83157 3.68461 6.91592C3.573 7.00026 3.49194 7.1187 3.45374 7.25328C3.3763 7.61812 3.19464 7.95264 2.9308 8.21625C2.66695 8.47986 2.33227 8.66122 1.96736 8.73834C1.83277 8.77654 1.71432 8.8576 1.62998 8.96921C1.54563 9.08082 1.5 9.2169 1.5 9.3568C1.5 9.49669 1.54563 9.63277 1.62998 9.74438C1.71432 9.856 1.83277 9.93705 1.96736 9.97525C2.33239 10.0524 2.66713 10.234 2.9309 10.4978C3.19466 10.7617 3.37608 11.0965 3.4531 11.4616C3.4913 11.5962 3.57235 11.7146 3.68397 11.799C3.79559 11.8833 3.93167 11.9289 4.07157 11.9289C4.21147 11.9289 4.34755 11.8833 4.45916 11.799C4.57078 11.7146 4.65184 11.5962 4.69004 11.4616C4.76728 11.0966 4.94877 10.7619 5.2125 10.4981C5.47622 10.2343 5.81085 10.0526 6.17578 9.97525V9.97461ZM4.07221 9.84474C3.92942 9.66357 3.76562 9.49999 3.58425 9.35744C3.76566 9.21469 3.92946 9.0509 4.07221 8.86949C4.21457 9.05103 4.37817 9.21485 4.55953 9.35744C4.37821 9.49983 4.21461 9.66343 4.07221 9.84474ZM6.46765 4.83155C6.9906 4.94209 7.47017 5.20217 7.84807 5.58017C8.22596 5.95817 8.4859 6.43781 8.59629 6.96077C8.63449 7.09535 8.71555 7.2138 8.82717 7.29814C8.93878 7.38248 9.07486 7.42812 9.21476 7.42812C9.35466 7.42812 9.49075 7.38248 9.60236 7.29814C9.71398 7.2138 9.79503 7.09535 9.83323 6.96077C9.94381 6.43796 10.2038 5.9585 10.5817 5.58064C10.9596 5.20278 11.439 4.94276 11.9619 4.83219C12.0965 4.79399 12.2149 4.71294 12.2993 4.60132C12.3836 4.48971 12.4292 4.35363 12.4292 4.21374C12.4292 4.07384 12.3836 3.93776 12.2993 3.82615C12.2149 3.71454 12.0965 3.63348 11.9619 3.59528C11.4392 3.4848 10.9598 3.22488 10.5821 2.84712C10.2043 2.46937 9.94437 1.99002 9.83388 1.46734C9.79568 1.33276 9.71462 1.21432 9.603 1.12997C9.49139 1.04563 9.35531 1 9.21541 1C9.07551 1 8.93943 1.04563 8.82781 1.12997C8.71619 1.21432 8.63514 1.33276 8.59694 1.46734C8.48635 1.99019 8.22624 2.46965 7.84823 2.84743C7.47021 3.2252 6.99058 3.48502 6.46765 3.59528C6.33333 3.63367 6.21517 3.71477 6.13105 3.8263C6.04693 3.93783 6.00143 4.07372 6.00143 4.21342C6.00143 4.35311 6.04693 4.48901 6.13105 4.60053C6.21517 4.71206 6.33333 4.79316 6.46765 4.83155ZM9.21476 3.19605C9.48392 3.59879 9.82973 3.94459 10.2325 4.21374C9.82978 4.4832 9.48398 4.8292 9.21476 5.23206C8.94515 4.82931 8.59917 4.48334 8.19641 4.21374C8.5992 3.94442 8.94519 3.59866 9.21476 3.19605ZM10.6761 15.1672C10.1534 15.0567 9.67403 14.7968 9.29626 14.419C8.91849 14.0412 8.65857 13.5619 8.54808 13.0392C8.50988 12.9046 8.42882 12.7862 8.31721 12.7019C8.20559 12.6175 8.06951 12.5719 7.92961 12.5719C7.78971 12.5719 7.65363 12.6175 7.54201 12.7019C7.4304 12.7862 7.34934 12.9046 7.31114 13.0392C7.20055 13.5621 6.94044 14.0415 6.56243 14.4193C6.18442 14.7971 5.70479 15.0569 5.18185 15.1672C5.04753 15.2056 4.92937 15.2866 4.84525 15.3982C4.76113 15.5097 4.71563 15.6456 4.71563 15.7853C4.71563 15.925 4.76113 16.0609 4.84525 16.1724C4.92937 16.2839 5.04753 16.365 5.18185 16.4034C5.7048 16.514 6.18437 16.7741 6.56227 17.1521C6.94016 17.5301 7.2001 18.0097 7.3105 18.5327C7.3487 18.6672 7.42975 18.7857 7.54137 18.87C7.65298 18.9544 7.78907 19 7.92897 19C8.06886 19 8.20495 18.9544 8.31656 18.87C8.42818 18.7857 8.50923 18.6672 8.54743 18.5327C8.65801 18.0098 8.91803 17.5304 9.2959 17.1525C9.67378 16.7747 10.1532 16.5146 10.6761 16.4041C10.8107 16.3659 10.9291 16.2848 11.0135 16.1732C11.0978 16.0616 11.1434 15.9255 11.1434 15.7856C11.1434 15.6457 11.0978 15.5096 11.0135 15.398C10.9291 15.2864 10.8107 15.2054 10.6761 15.1672ZM7.92961 16.8039C7.65999 16.4012 7.31401 16.0552 6.91125 15.7856C7.31404 15.5163 7.66003 15.1705 7.92961 14.7679C8.19876 15.1707 8.54457 15.5165 8.94732 15.7856C8.54462 16.0551 8.19883 16.4011 7.92961 16.8039ZM19.0338 10.3455C18.1192 10.1452 17.2813 9.6868 16.6193 9.0248C15.9573 8.3628 15.4989 7.52491 15.2985 6.6104C15.2603 6.47582 15.1793 6.35738 15.0677 6.27303C14.956 6.18869 14.82 6.14306 14.6801 6.14306C14.5402 6.14306 14.4041 6.18869 14.2925 6.27303C14.1808 6.35738 14.0998 6.47582 14.0616 6.6104C13.8615 7.52519 13.4031 8.36334 12.7407 9.02532C12.0784 9.6873 11.24 10.1453 10.3251 10.3449C10.1907 10.3833 10.0726 10.4644 9.98845 10.5759C9.90433 10.6874 9.85882 10.8233 9.85882 10.963C9.85882 11.1027 9.90433 11.2386 9.98845 11.3502C10.0726 11.4617 10.1907 11.5428 10.3251 11.5812C11.2402 11.7815 12.0787 12.2401 12.741 12.9026C13.4033 13.5651 13.8616 14.4037 14.0616 15.3189C14.0998 15.4535 14.1808 15.5719 14.2925 15.6563C14.4041 15.7406 14.5402 15.7862 14.6801 15.7862C14.82 15.7862 14.956 15.7406 15.0677 15.6563C15.1793 15.5719 15.2603 15.4535 15.2985 15.3189C15.4985 14.404 15.9567 13.5656 16.6188 12.9033C17.2808 12.2409 18.119 11.7823 19.0338 11.5818C19.1681 11.5434 19.2863 11.4623 19.3704 11.3508C19.4545 11.2393 19.5 11.1034 19.5 10.9637C19.5 10.824 19.4545 10.6881 19.3704 10.5766C19.2863 10.465 19.1681 10.3839 19.0338 10.3455ZM14.6807 13.4044C14.1353 12.3608 13.2834 11.5091 12.2396 10.964C13.2831 10.4187 14.1347 9.56711 14.6801 8.52362C15.2254 9.56706 16.077 10.4186 17.1205 10.964C16.077 11.5091 15.2256 12.3608 14.6807 13.4044ZM15.3043 4.06395C15.4344 4.08665 15.5543 4.14898 15.6476 4.24242C15.741 4.33586 15.8032 4.45584 15.8257 4.58597C15.8639 4.72055 15.945 4.83899 16.0566 4.92333C16.1682 5.00768 16.3043 5.05331 16.4442 5.05331C16.5841 5.05331 16.7202 5.00768 16.8318 4.92333C16.9434 4.83899 17.0244 4.72055 17.0626 4.58597C17.0852 4.45575 17.1475 4.3357 17.241 4.24225C17.3344 4.1488 17.4545 4.08652 17.5847 4.06395C17.7193 4.02575 17.8377 3.94469 17.9221 3.83308C18.0064 3.72147 18.052 3.58539 18.052 3.44549C18.052 3.3056 18.0064 3.16952 17.9221 3.05791C17.8377 2.94629 17.7193 2.86524 17.5847 2.82704C17.4545 2.8045 17.3346 2.74232 17.2411 2.64899C17.1477 2.55567 17.0853 2.43576 17.0626 2.30566C17.0244 2.17108 16.9434 2.05264 16.8318 1.96829C16.7202 1.88395 16.5841 1.83832 16.4442 1.83832C16.3043 1.83832 16.1682 1.88395 16.0566 1.96829C15.945 2.05264 15.8639 2.17108 15.8257 2.30566C15.803 2.43567 15.7408 2.55551 15.6475 2.64883C15.5542 2.74214 15.4343 2.80438 15.3043 2.82704C15.1697 2.86524 15.0513 2.94629 14.9669 3.05791C14.8826 3.16952 14.837 3.3056 14.837 3.44549C14.837 3.58539 14.8826 3.72147 14.9669 3.83308C15.0513 3.94469 15.1697 4.02575 15.3043 4.06395Z" fill="#F4213A"/>
</svg>
