<svg width="19" height="17" viewBox="0 0 19 17" fill="none" xmlns="http://www.w3.org/2000/svg">
<g clip-path="url(#clip0_1_11177)">
<path d="M1.909 2H14.091C14.593 2 15 1.55231 15 1C15 0.447692 14.593 0 14.0915 0H1.909C1.40695 0 1 0.447692 1 1C1 1.55231 1.40695 2 1.909 2Z" fill="#F4213A"/>
<path d="M15.9463 5.70607C15.9463 5.70607 15.9463 5.33368 15.5921 4.09222C15.238 2.85076 14.4003 3.00624 14.4003 3.00624H2.09695C1.16307 3.00624 0.905078 3.8753 0.905078 3.8753C0.905078 3.8753 0.550946 5.36487 0.0997052 7.31991C-0.351052 9.27496 0.872709 9.42997 0.872709 9.42997V13.9606C0.872709 14.9846 1.93559 14.9846 1.93559 14.9846H2.5796C2.5796 14.9846 7.3785 15 8.55443 15C9.73036 15 9.69799 13.8982 9.69799 13.8982V9.42951H10.4067C11.9527 6.76086 14.6906 6.51229 15.4636 6.48157C16.2366 6.45038 15.9468 5.7056 15.9468 5.7056L15.9463 5.70607ZM7.86211 13.2158H2.86996V9.52307H7.86211V13.2158Z" fill="#F4213A"/>
<path d="M15 8C12.7907 8 11 9.63861 11 11.6593C11 13.6801 14.1076 17 15 17C16.0074 17 19 13.6805 19 11.6593C19 9.63816 17.2088 8 15 8ZM15 12.6546C14.3214 12.6546 13.7715 12.1516 13.7715 11.5308C13.7715 10.9099 14.3214 10.4069 15 10.4069C15.6786 10.4069 16.2285 10.9099 16.2285 11.5308C16.2285 12.1516 15.6786 12.6546 15 12.6546Z" fill="#F4213A"/>
</g>
<defs>
<clipPath id="clip0_1_11177">
<rect width="19" height="17" fill="white"/>
</clipPath>
</defs>
</svg>
