<svg width="19" height="19" viewBox="0 0 19 19" fill="none" xmlns="http://www.w3.org/2000/svg">
<path d="M17.1162 12.2692H16.359C16.379 12.165 16.4242 12.0395 16.5163 11.901C16.8 11.475 16.8607 11.0987 16.9142 10.7667C16.9479 10.5574 16.9798 10.3598 17.0665 10.1318C17.1433 9.92987 17.291 9.76582 17.4423 9.64083L17.9658 10.8912L19 10.4846L17.1285 6L16.6738 6.08916C16.6219 6.09933 15.3938 6.35429 14.6259 7.73232C14.0654 8.73813 12.8035 9.51908 11.2683 9.83202L10.9623 8.74411L10.4166 8.89889C9.51537 9.15451 8.99142 9.38478 8.18503 9.84655L8.17182 9.86328L6.05199 12.6218H4.31204C4.31204 12.6218 3.33715 11.334 2.78013 10.6155C2.46963 10.7302 2.1967 10.897 1.95889 11.117C1.35727 11.6736 1.11236 12.5947 1.30582 13.4373L0 14.2788L1.54396 16.9847H2.29291L2.87158 16.3537C3.16065 16.0387 3.51525 15.7865 3.91207 15.6138C4.30888 15.4411 4.73893 15.3517 5.17394 15.3515C5.91556 15.3515 6.63367 15.6121 7.19604 16.0851C7.8361 16.6235 8.4584 16.9191 9.0437 16.9821C9.71571 17.0545 10.1209 16.8951 10.6634 16.7265C11.0746 16.5988 11.3887 16.4676 11.9276 16.5353C12.1553 16.5639 12.3625 16.5775 12.5524 16.5775C13.6174 16.5775 14.1279 16.1471 14.5301 15.5075C14.669 15.2866 14.8631 15.1596 15.0479 15.1032C15.5319 14.9553 15.9766 15.5054 15.9766 15.5054L17.0311 15.0031C17.2187 15.5024 17.3144 16.0297 17.314 16.5611H18.4301C18.4301 15.8393 18.2899 15.1335 18.0134 14.4633L17.1162 12.2692Z" fill="#F4213A"/>
<path d="M4.6879 11H5.3121L7.15584 8.6897C7.9341 7.7368 9 6.43176 9 4.74338C9 2.67927 7.20562 1 5.00002 1C2.79442 1 1 2.67927 1 4.74338C1 6.43176 2.06586 7.7368 2.84416 8.6897L4.6879 11ZM3.09537 4.74338C3.09537 3.76053 3.9498 2.96091 5.00002 2.96091C6.05024 2.96091 6.90467 3.76053 6.90467 4.74338C6.90467 5.72623 6.05024 6.52585 5.00002 6.52585C3.9498 6.52585 3.09537 5.72627 3.09537 4.74338Z" fill="#F4213A"/>
<path d="M5.11684 4.92818C5.22474 4.67399 5.10593 4.38097 4.85147 4.27371C4.59701 4.16645 4.30326 4.28556 4.19537 4.53975C4.08747 4.79394 4.20628 5.08695 4.46074 5.19422C4.7152 5.30148 5.00894 5.18237 5.11684 4.92818Z" fill="#F4213A"/>
</svg>
