<svg width="19" height="14" viewBox="0 0 19 14" fill="none" xmlns="http://www.w3.org/2000/svg">
<g clip-path="url(#clip0_1_11174)">
<path d="M16.4091 3.49998H13.8181V0H1.72728C0.77294 0 0 0.78311 0 1.75001V11.375H1.72728C1.72728 12.8231 2.88886 14 4.31819 14C5.74752 14 6.90909 12.8231 6.90909 11.375H12.0909C12.0909 12.8231 13.2525 14 14.6818 14C16.1111 14 17.2727 12.8231 17.2727 11.375H19V7L16.4091 3.49998ZM4.31819 12.6875C3.60136 12.6875 3.02274 12.1012 3.02274 11.375C3.02274 10.6487 3.60136 10.0625 4.31819 10.0625C5.03502 10.0625 5.61364 10.6487 5.61364 11.375C5.61364 12.1012 5.03498 12.6875 4.31819 12.6875ZM14.6818 12.6875C13.965 12.6875 13.3864 12.1012 13.3864 11.375C13.3864 10.6487 13.965 10.0625 14.6818 10.0625C15.3986 10.0625 15.9773 10.6487 15.9773 11.375C15.9773 12.1012 15.3986 12.6875 14.6818 12.6875ZM13.8181 7V4.81252H15.9772L17.6743 7H13.8181Z" fill="#F4213A"/>
</g>
<defs>
<clipPath id="clip0_1_11174">
<rect width="19" height="14" fill="white"/>
</clipPath>
</defs>
</svg>
