<svg width="52" height="52" viewBox="0 0 52 52" fill="none" xmlns="http://www.w3.org/2000/svg">
<g clip-path="url(#clip0_1_11292)">
<path d="M27.6981 52H24.3019C21.1575 51.8171 20.4222 49.3787 20.6456 46.6354C20.6406 46.3808 20.5561 46.1341 20.4038 45.93C20.2515 45.7259 20.0392 45.5747 19.7966 45.4975C18.7135 45.1392 17.6629 44.6892 16.6562 44.1522C16.4256 44.0283 16.1613 43.9819 15.9022 44.02C15.6432 44.058 15.4034 44.1785 15.2181 44.3636C13.4591 46.4485 11.18 47.6921 8.82781 45.5828C6.61781 43.4045 3.65625 41.2139 6.41469 38.0073C6.99969 37.3205 8.53531 36.3817 7.92188 35.321C7.40879 34.3121 6.97943 33.2627 6.63812 32.1835C6.55797 31.9405 6.40341 31.7289 6.19634 31.5786C5.98927 31.4283 5.74018 31.3471 5.48438 31.3463H3.65625C3.1761 31.3463 2.70066 31.2517 2.25706 31.0679C1.81347 30.8841 1.41041 30.6146 1.07089 30.275C0.731377 29.9354 0.462059 29.5321 0.278315 29.0884C0.0945717 28.6446 0 28.169 0 27.6886L0 24.2911C0 23.321 0.385211 22.3906 1.07089 21.7047C1.75657 21.0187 2.68655 20.6334 3.65625 20.6334H5.48438C5.74018 20.6326 5.98927 20.5513 6.19634 20.4011C6.40341 20.2508 6.55797 20.0392 6.63812 19.7962C6.9782 18.7106 7.40899 17.6557 7.92594 16.6424C8.55156 15.598 6.97125 14.6104 6.41469 13.9561C3.65625 10.7739 6.60563 8.58335 8.81563 6.39687C11.1678 4.29574 13.4347 5.51903 15.2059 7.6161C15.3912 7.80117 15.631 7.92166 15.8901 7.95972C16.1491 7.99778 16.4135 7.9514 16.6441 7.82743C17.6553 7.29683 18.7099 6.85359 19.7966 6.50254C20.9706 6.20993 20.6091 4.49488 20.6456 3.65768C20.6456 2.6876 21.0308 1.75726 21.7165 1.07131C22.4022 0.385362 23.3322 0 24.3019 0H27.6981C28.1783 0 28.6537 0.0946087 29.0973 0.278424C29.5409 0.46224 29.944 0.731662 30.2835 1.07131C30.623 1.41096 30.8923 1.81418 31.0761 2.25795C31.2598 2.70172 31.3544 3.17735 31.3544 3.65768C31.4153 4.55991 31.0172 6.2018 32.2034 6.52286C33.2852 6.86801 34.3358 7.30443 35.3438 7.82743C35.5744 7.9514 35.8387 7.99778 36.0978 7.95972C36.3568 7.92166 36.5966 7.80117 36.7819 7.6161L38.0006 6.39687C41.2506 3.66174 43.3672 6.57976 45.5731 8.79875C47.7181 11.1966 46.3856 13.4643 44.2894 15.2525C44.115 15.434 44.0012 15.6651 43.9633 15.914C43.9255 16.1628 43.9656 16.4173 44.0781 16.6424C44.5912 17.6513 45.0206 18.7007 45.3619 19.7799C45.6584 20.9707 47.4744 20.548 48.3438 20.6171C49.3134 20.6171 50.2434 21.0025 50.9291 21.6884C51.6148 22.3744 52 23.3047 52 24.2748V27.6724C52 28.1527 51.9054 28.6283 51.7217 29.0721C51.5379 29.5159 51.2686 29.9191 50.9291 30.2587C50.5896 30.5984 50.1865 30.8678 49.7429 31.0516C49.2993 31.2354 48.8239 31.33 48.3438 31.33H46.5156C46.2598 31.3308 46.0107 31.4121 45.8037 31.5623C45.5966 31.7126 45.442 31.9242 45.3619 32.1673C45.0223 33.2576 44.5929 34.3179 44.0781 35.3372C43.2656 37.1254 46.8122 37.7757 46.6578 40.6206C46.8691 42.6079 44.3138 44.3229 43.1844 45.6072C40.8322 47.7083 38.5653 46.485 36.7941 44.388C36.6088 44.2029 36.369 44.0824 36.1099 44.0443C35.8509 44.0063 35.5865 44.0527 35.3559 44.1766C34.3456 44.7051 33.2924 45.147 32.2075 45.4975C31.9609 45.575 31.7453 45.7291 31.592 45.9373C31.4386 46.1455 31.3554 46.3971 31.3544 46.6557C31.5778 49.3583 30.8506 51.8212 27.6981 52ZM16.0591 41.5675C17.6597 41.5959 19.0044 42.7867 20.5278 43.1565C22.9247 43.9328 23.2172 46.1518 23.0669 48.3423C23.0669 48.6657 23.1953 48.9758 23.4238 49.2044C23.6524 49.4331 23.9624 49.5615 24.2856 49.5615H27.6819C30.4444 49.3543 26.975 44.7984 31.4397 43.1565C32.3937 42.8463 33.3204 42.4575 34.2103 41.9942C38.5409 39.9256 39.3169 45.6519 41.4456 43.8596L43.8466 41.4578C43.9602 41.3445 44.0503 41.2099 44.1118 41.0617C44.1734 40.9135 44.205 40.7546 44.205 40.5941C44.205 40.4337 44.1734 40.2748 44.1118 40.1266C44.0503 39.9784 43.9602 39.8438 43.8466 39.7305C40.105 36.4386 41.6162 35.3413 43.0341 31.452C44.6591 26.9449 49.3391 30.4847 49.5625 27.6886V24.2911C49.5625 23.9677 49.4341 23.6576 49.2055 23.4289C48.977 23.2003 48.667 23.0718 48.3438 23.0718C43.3387 23.3848 43.6394 21.5519 41.9047 17.7641C39.9019 13.4684 45.6706 12.6515 43.8628 10.5219L41.4619 8.10785C40.3609 7.02274 39.2519 8.63212 38.5166 9.32708C36.3472 11.603 33.7919 9.57905 31.4559 8.80688C30.7192 8.57037 30.0765 8.10615 29.6202 7.48101C29.164 6.85587 28.9177 6.10205 28.9169 5.32802C28.8803 4.34451 29.2581 2.41407 27.6981 2.40188H24.3019C23.9786 2.40188 23.6686 2.53033 23.4401 2.75898C23.2115 2.98763 23.0831 3.29774 23.0831 3.6211C23.2375 5.81571 22.9287 8.0347 20.5441 8.80688C18.1594 9.57905 15.6447 11.6152 13.4834 9.32708C12.7725 8.66057 11.635 7.00242 10.5381 8.10785L8.125 10.5219C7.01594 11.6639 8.71406 12.7694 9.40875 13.5293C11.6634 15.6792 9.69719 18.2071 8.95375 20.5277C7.34906 25.0348 2.66094 21.495 2.4375 24.2911V27.6886C2.4375 28.012 2.5659 28.3221 2.79446 28.5508C3.02302 28.7794 3.33302 28.9079 3.65625 28.9079C8.66531 28.5949 8.36063 30.4278 10.0953 34.2155C11.2613 36.4671 9.79063 38.2796 8.13719 39.7305C8.02357 39.8438 7.93342 39.9784 7.8719 40.1266C7.81039 40.2748 7.77873 40.4337 7.77873 40.5941C7.77873 40.7546 7.81039 40.9135 7.8719 41.0617C7.93342 41.2099 8.02357 41.3445 8.13719 41.4578L10.5381 43.8718C12.3622 45.4284 13.2356 41.3562 16.0591 41.5675Z" fill="#45AA8C"/>
<path d="M26.0025 35C24.1163 35.0005 22.2777 34.4084 20.7463 33.3074C19.2148 32.2064 18.068 30.652 17.4678 28.8639C16.8676 27.0759 16.8444 25.1444 17.4013 23.3423C17.9583 21.5403 19.0674 19.9588 20.5718 18.8212C22.0763 17.6836 23.9001 17.0475 25.7857 17.0026C27.6713 16.9576 29.5234 17.5063 31.0803 18.571C32.6372 19.6357 33.8203 21.1626 34.4624 22.936C35.1045 24.7095 35.1732 26.6399 34.6588 28.4545C34.5611 28.7567 34.3501 29.0092 34.0702 29.1591C33.7902 29.3089 33.463 29.3444 33.1574 29.2581C32.8518 29.1718 32.5916 28.9703 32.4314 28.6961C32.2712 28.4219 32.2235 28.0963 32.2984 27.7877C32.4646 27.2064 32.5486 26.6046 32.5479 26C32.5478 24.6461 32.1279 23.3255 31.3459 22.2202C30.564 21.1149 29.4585 20.2793 28.1818 19.8285C26.9051 19.3777 25.52 19.3339 24.2174 19.7031C22.9148 20.0723 21.7587 20.8364 20.9085 21.8901C20.0583 22.9438 19.5557 24.2352 19.4701 25.5865C19.3845 26.9377 19.72 28.2822 20.4304 29.4348C21.1408 30.5874 22.1911 31.4913 23.4367 32.0221C24.6823 32.5528 26.0618 32.6842 27.3852 32.3982C27.5429 32.3643 27.7057 32.3619 27.8643 32.3909C28.0229 32.42 28.1743 32.48 28.3097 32.5676C28.4451 32.6552 28.562 32.7686 28.6536 32.9013C28.7452 33.034 28.8097 33.1835 28.8436 33.3411C28.8774 33.4988 28.8799 33.6616 28.8508 33.8202C28.8218 33.9789 28.7617 34.1302 28.6742 34.2656C28.5866 34.4011 28.4732 34.5179 28.3405 34.6095C28.2078 34.7011 28.0583 34.7657 27.9006 34.7995C27.2765 34.9318 26.6404 34.9989 26.0025 35Z" fill="#45AA8C"/>
</g>
<defs>
<clipPath id="clip0_1_11292">
<rect width="52" height="52" fill="white"/>
</clipPath>
</defs>
</svg>
