<svg width="54" height="54" viewBox="0 0 54 54" fill="none" xmlns="http://www.w3.org/2000/svg">
<g clip-path="url(#clip0_1_11307)">
<path d="M52.2561 16.8917L37.1072 1.74384C35.9446 0.581281 34.416 0 32.8885 0C31.361 0 29.8335 0.581281 28.6698 1.74384L1.7406 28.6724C-0.580201 30.9987 -0.580201 34.7831 1.7406 37.1094L16.8883 52.2562C18.013 53.3808 19.5115 54 21.1071 54C22.7026 54 24.2 53.3808 25.3247 52.2562L26.3891 51.1929C26.6736 50.9619 26.8365 50.6194 26.8365 50.2546C26.8365 49.5874 26.2932 49.044 25.6259 49.044C25.3258 49.044 25.0368 49.1556 24.8136 49.3598L24.8047 49.3687C24.7813 49.391 24.7579 49.4133 24.7367 49.4379L23.622 50.5525C22.9514 51.223 22.0588 51.5923 21.1082 51.5923C20.1575 51.5923 19.2649 51.223 18.5943 50.5525L7.38529 39.3441L39.3421 7.38707L50.5512 18.5954C51.2217 19.2659 51.591 20.1585 51.5899 21.1102C51.5899 22.0608 51.2206 22.9533 50.5512 23.6239L29.4486 44.7252L29.4396 44.733C29.1529 44.9639 28.9877 45.3076 28.9877 45.6746C28.9877 46.3418 29.5311 46.8852 30.1984 46.8852C30.4896 46.8852 30.7708 46.7792 30.9917 46.5873L31.024 46.5583C31.0452 46.5382 31.062 46.5214 31.0787 46.5047L52.2561 25.3287C54.5824 23.0024 54.5824 19.218 52.2561 16.8929V16.8917ZM5.67816 37.6382L3.4455 35.4057C2.05971 34.02 2.05971 31.764 3.4455 30.3772L30.3747 3.44864C31.0441 2.77921 31.9367 2.40992 32.8885 2.40992C33.8391 2.40992 34.7317 2.77921 35.4023 3.44864L37.635 5.68116L5.67816 37.6382Z" fill="#45AA8C"/>
<path d="M40.1371 26.634L43.634 23.1365C44.122 22.6485 44.122 21.8544 43.634 21.3663C43.3976 21.1298 43.0835 21 42.7485 21C42.4135 21 42.0994 21.1298 41.8629 21.3663L38.366 24.8638C37.878 25.3518 37.878 26.1459 38.366 26.634C38.854 27.122 39.6479 27.122 40.1359 26.634H40.1371Z" fill="#45AA8C"/>
</g>
<defs>
<clipPath id="clip0_1_11307">
<rect width="54" height="54" fill="white"/>
</clipPath>
</defs>
</svg>
