<svg width="15" height="16" viewBox="0 0 15 16" fill="none" xmlns="http://www.w3.org/2000/svg">
<g clip-path="url(#clip0_1_4616)">
<path d="M2.92285 3.21099H10.503C10.8509 3.21099 11.2001 3.21667 11.5474 3.21099H11.5626C11.8941 3.21099 12.2122 2.92085 12.1964 2.58025C12.1934 2.41388 12.1257 2.25514 12.0075 2.13748C11.8893 2.01981 11.7298 1.95242 11.5626 1.94951H3.98626C3.63834 1.94951 3.28915 1.94446 2.94122 1.94951H2.92601C2.59457 1.94951 2.27706 2.23965 2.29227 2.58025C2.2952 2.74662 2.36291 2.90536 2.48113 3.02302C2.59935 3.14068 2.75885 3.20807 2.92601 3.21099H2.92285Z" fill="#F4213A"/>
<path d="M2.28902 8.14602V14.4761C2.28902 14.7688 2.28332 15.0621 2.28902 15.3548V15.3674L2.92276 14.7366H0.634961L1.2687 15.3674V1.22805C1.2687 1.03883 1.2687 0.846455 1.2687 0.655341V0.630741L0.634961 1.26148H2.92276L2.28902 0.630741V7.94733C2.28902 8.28478 2.28395 8.62223 2.28902 8.95652V8.9704C2.28902 9.30027 2.58054 9.61628 2.92276 9.60114C3.08998 9.59838 3.24957 9.53104 3.36782 9.41334C3.48607 9.29565 3.55373 9.13682 3.5565 8.9704V1.6538C3.5565 1.31636 3.56157 0.978912 3.5565 0.644619V0.630741C3.55405 0.464219 3.48649 0.305205 3.36817 0.187444C3.24985 0.0696823 3.09008 0.00244325 2.92276 0H0.634961C0.467597 0.00228436 0.307733 0.0694713 0.189377 0.187267C0.0710217 0.305062 0.00351593 0.464169 0.0012207 0.630741V14.7688C0.0012207 14.958 0.0012207 15.151 0.0012207 15.3415V15.3667C0.00367558 15.5333 0.0712326 15.6923 0.189554 15.81C0.307875 15.9278 0.467647 15.995 0.634961 15.9975H2.92276C3.09013 15.9952 3.24999 15.928 3.36835 15.8102C3.4867 15.6924 3.55421 15.5333 3.5565 15.3667V9.03536C3.5565 8.7427 3.56157 8.4494 3.5565 8.15674V8.14602C3.5565 7.81614 3.26498 7.50014 2.92276 7.51528C2.75565 7.51835 2.59624 7.58579 2.47806 7.70342C2.35987 7.82105 2.29211 7.9797 2.28902 8.14602Z" fill="#F4213A"/>
<path d="M11.4421 9.89211V14.6902C11.4421 14.9128 11.4371 15.1355 11.4421 15.3581V15.3676L12.0759 14.7368H4.04954C3.68007 14.7368 3.30933 14.7299 2.93923 14.7368H2.92338L3.55713 15.3676V6.04271C3.55713 5.61191 3.56536 5.18048 3.55713 4.74969V4.73202L2.92338 5.36276H10.9497C11.3198 5.36276 11.6899 5.3697 12.06 5.36276H12.0759L11.4421 4.73202V9.75524C11.4421 9.98673 11.4377 10.2188 11.4421 10.4491V10.4585C11.4421 10.7884 11.7336 11.1044 12.0759 11.0893C12.2431 11.0865 12.4027 11.0192 12.5209 10.9015C12.6392 10.7838 12.7068 10.6249 12.7096 10.4585V5.43782C12.7096 5.20571 12.714 4.9736 12.7096 4.74401V4.73455C12.7071 4.56802 12.6396 4.40901 12.5213 4.29125C12.4029 4.17349 12.2432 4.10625 12.0759 4.10381H4.04954C3.68007 4.10381 3.30933 4.09876 2.93923 4.10381H2.92338C2.75607 4.10625 2.5963 4.17349 2.47798 4.29125C2.35966 4.40901 2.2921 4.56802 2.28964 4.73455V14.0563C2.28964 14.4877 2.28394 14.9191 2.28964 15.3499C2.28996 15.3558 2.28996 15.3617 2.28964 15.3676C2.2921 15.5341 2.35966 15.6931 2.47798 15.8109C2.5963 15.9286 2.75607 15.9959 2.92338 15.9983H10.9497C11.3198 15.9983 11.6899 16.0034 12.06 15.9983H12.0759C12.2432 15.996 12.4031 15.9288 12.5214 15.811C12.6398 15.6933 12.7073 15.5341 12.7096 15.3676V10.5689C12.7096 10.3462 12.7134 10.1236 12.7096 9.90095V9.89211C12.7096 9.56224 12.4181 9.2456 12.0759 9.26137C11.9086 9.26413 11.7491 9.33147 11.6308 9.44917C11.5126 9.56686 11.4449 9.72569 11.4421 9.89211Z" fill="#F4213A"/>
<path d="M13.7306 12.6583V15.3705L14.3643 14.7398H12.0759L12.7096 15.3705V1.22805C12.7096 1.03883 12.7096 0.846455 12.7096 0.655341V0.630741L12.0759 1.26148H14.3643L13.7306 0.630741V7.94733C13.7306 8.28478 13.7255 8.62223 13.7306 8.95652V8.9704C13.7306 9.30027 14.0215 9.61628 14.3643 9.60114C14.5315 9.59822 14.691 9.53083 14.8092 9.41317C14.9274 9.29551 14.9951 9.13677 14.9981 8.9704V1.6538C14.9981 1.31636 15.0025 0.978912 14.9981 0.644619C14.9977 0.639999 14.9977 0.635361 14.9981 0.630741C14.9956 0.464219 14.928 0.305205 14.8097 0.187444C14.6914 0.0696823 14.5316 0.00244325 14.3643 0H12.0759C11.9085 0.00228436 11.7487 0.0694713 11.6303 0.187267C11.5119 0.305062 11.4444 0.464169 11.4421 0.630741V14.7688C11.4421 14.958 11.4421 15.151 11.4421 15.3415V15.3667C11.4446 15.5333 11.5122 15.6923 11.6305 15.81C11.7488 15.9278 11.9086 15.995 12.0759 15.9975H14.3643C14.5316 15.995 14.6914 15.9278 14.8097 15.81C14.928 15.6923 14.9956 15.5333 14.9981 15.3667V12.6546C14.9981 12.324 14.7065 12.008 14.3643 12.0238C14.1971 12.0266 14.0375 12.0939 13.9193 12.2116C13.801 12.3293 13.7333 12.4881 13.7306 12.6546V12.6583Z" fill="#F4213A"/>
<path d="M13.7307 7.79288V9.74818C13.7307 10.0781 14.0216 10.3941 14.3645 10.3789C14.5316 10.376 14.6911 10.3086 14.8093 10.191C14.9276 10.0733 14.9953 9.91455 14.9982 9.74818V7.79288C14.9982 7.46301 14.7067 7.14701 14.3645 7.16214C14.1973 7.16506 14.0378 7.23245 13.9196 7.35011C13.8014 7.46777 13.7336 7.62651 13.7307 7.79288Z" fill="#F4213A"/>
<path d="M6.86585 4.73185V14.0561C6.86585 14.4875 6.85952 14.9189 6.86585 15.3497V15.3674C6.86585 15.6973 7.15737 16.0133 7.49959 15.9981C7.66671 15.9951 7.82611 15.9276 7.9443 15.81C8.06249 15.6924 8.13025 15.5337 8.13333 15.3674V6.04253C8.13333 5.61173 8.13904 5.18031 8.13333 4.74951V4.73185C8.13333 4.40197 7.84181 4.08597 7.49959 4.10111C7.33243 4.10403 7.17293 4.17142 7.05471 4.28908C6.93649 4.40674 6.86878 4.56548 6.86585 4.73185Z" fill="#F4213A"/>
</g>
<defs>
<clipPath id="clip0_1_4616">
<rect width="15" height="16" fill="white"/>
</clipPath>
</defs>
</svg>
