<svg width="15" height="16" viewBox="0 0 15 16" fill="none" xmlns="http://www.w3.org/2000/svg">
<g clip-path="url(#clip0_1_4605)">
<path d="M0.659096 1.35924H13.7842C13.9619 1.35924 14.1403 1.35924 14.3181 1.35924H14.3411C14.6854 1.35924 15.0153 1.04673 14.9994 0.679865C14.9966 0.500611 14.9263 0.32953 14.8034 0.202761C14.6806 0.0759915 14.5148 0.00346044 14.3411 0.000488281H1.21802C1.04027 0.000488281 0.862519 0.000488281 0.684771 0.000488281H0.661071C0.316765 0.000488281 -0.0130569 0.313002 0.002743 0.679865C0.00562307 0.859119 0.075907 1.0302 0.198749 1.15697C0.32159 1.28374 0.48737 1.35627 0.661071 1.35924H0.659096Z" fill="#F4213A"/>
<path d="M1.8327 3.61412H12.7465C12.8939 3.61412 13.0421 3.61412 13.1895 3.61412H13.2093C13.5536 3.61412 13.8834 3.30161 13.8676 2.93475C13.8647 2.75549 13.7944 2.58441 13.6716 2.45764C13.5487 2.33087 13.383 2.25834 13.2093 2.25537H2.29551C2.14804 2.25537 1.99992 2.25537 1.85245 2.25537H1.8327C1.4884 2.25537 1.15857 2.56788 1.17437 2.93475C1.17725 3.114 1.24754 3.28508 1.37038 3.41185C1.49322 3.53862 1.659 3.61115 1.8327 3.61412Z" fill="#F4213A"/>
<path d="M1.8327 5.86901H12.7465C12.8939 5.86901 13.0421 5.86901 13.1895 5.86901H13.2093C13.5536 5.86901 13.8834 5.55649 13.8676 5.18963C13.8645 5.01043 13.7942 4.83945 13.6714 4.71271C13.5486 4.58598 13.3829 4.5134 13.2093 4.51025H2.29551C2.14804 4.51025 1.99992 4.51025 1.85245 4.51025H1.8327C1.4884 4.51025 1.15857 4.82277 1.17437 5.18963C1.17725 5.36888 1.24754 5.53997 1.37038 5.66673C1.49322 5.7935 1.659 5.86603 1.8327 5.86901Z" fill="#F4213A"/>
<path d="M1.8327 8.12487H12.7465C12.8939 8.12487 13.0421 8.12487 13.1895 8.12487H13.2093C13.5536 8.12487 13.8834 7.81235 13.8676 7.44549C13.8647 7.26624 13.7944 7.09516 13.6716 6.96839C13.5487 6.84162 13.383 6.76909 13.2093 6.76611H2.29551C2.14804 6.76611 1.99992 6.76611 1.85245 6.76611H1.8327C1.4884 6.76611 1.15857 7.07863 1.17437 7.44549C1.17742 7.62469 1.24776 7.79567 1.37056 7.92241C1.49337 8.04914 1.65905 8.12173 1.8327 8.12487Z" fill="#F4213A"/>
<path d="M1.00928 12.5081V15.1305C1.00928 15.4858 1.31211 15.8261 1.66761 15.8098C1.84125 15.8067 2.00694 15.7341 2.12975 15.6074C2.25255 15.4806 2.32289 15.3097 2.32593 15.1305V12.5081C2.32593 12.1528 2.0231 11.8124 1.66761 11.8287C1.49396 11.8318 1.32827 11.9044 1.20546 12.0311C1.08266 12.1579 1.01232 12.3289 1.00928 12.5081Z" fill="#F4213A"/>
<path d="M1.00918 1.01251V8.68946C1.00918 9.04478 1.00391 9.40009 1.00918 9.75541V9.77103C1.00918 10.1263 1.31201 10.4667 1.6675 10.4504C1.8412 10.4474 2.00698 10.3749 2.12983 10.2481C2.25267 10.1214 2.32295 9.95029 2.32583 9.77103V2.09407C2.32583 1.73876 2.3311 1.38277 2.32583 1.02745V1.01251C2.32583 0.656513 2.023 0.316145 1.6675 0.33313C1.4938 0.336102 1.32802 0.408633 1.20518 0.535402C1.08234 0.662171 1.01206 0.833252 1.00918 1.01251Z" fill="#F4213A"/>
<path d="M12.6729 1.01251V14.5559C12.6729 14.7393 12.6729 14.9227 12.6729 15.1062V15.1306C12.6729 15.4859 12.9757 15.8263 13.3312 15.81C13.5048 15.8069 13.6705 15.7343 13.7933 15.6076C13.9161 15.4808 13.9865 15.3098 13.9895 15.1306V1.58522C13.9895 1.40179 13.9895 1.21836 13.9895 1.03493V1.01251C13.9895 0.656513 13.6867 0.316145 13.3312 0.33313C13.1575 0.336102 12.9917 0.408633 12.8689 0.535402C12.746 0.662171 12.6757 0.833252 12.6729 1.01251Z" fill="#F4213A"/>
<path d="M0.659096 15.9994H13.7842C13.9619 15.9994 14.1403 15.9994 14.3181 15.9994H14.3411C14.6854 15.9994 15.0153 15.6869 14.9994 15.32C14.9966 15.1407 14.9263 14.9697 14.8034 14.8429C14.6806 14.7161 14.5148 14.6436 14.3411 14.6406H1.21802C1.04027 14.6406 0.862519 14.6406 0.684771 14.6406H0.661071C0.316765 14.6406 -0.0130569 14.9531 0.002743 15.32C0.00562307 15.4993 0.075907 15.6703 0.198749 15.7971C0.32159 15.9239 0.48737 15.9964 0.661071 15.9994H0.659096Z" fill="#F4213A"/>
<path d="M8.97095 7.6858V10.048C8.97095 10.4033 9.27378 10.7437 9.62928 10.7274C9.80292 10.7242 9.96861 10.6516 10.0914 10.5249C10.2142 10.3982 10.2846 10.2272 10.2876 10.048V7.6858C10.2876 7.33049 9.98477 6.99012 9.62928 7.00642C9.45563 7.00956 9.28994 7.08215 9.16713 7.20888C9.04433 7.33562 8.97399 7.5066 8.97095 7.6858Z" fill="#F4213A"/>
<path d="M9.30424 11.1257C9.3048 11.0787 9.30765 11.0318 9.3128 10.9851L9.28976 11.1658C9.3028 11.068 9.32803 10.9723 9.36481 10.8811L9.29898 11.0435C9.33416 10.9618 9.37834 10.8845 9.43064 10.8132L9.32728 10.9491C9.38492 10.8732 9.45123 10.8047 9.52478 10.7453L9.39312 10.8519C9.46221 10.7979 9.5371 10.7524 9.61629 10.716L9.45895 10.784C9.54728 10.746 9.64 10.72 9.73479 10.7065L9.55967 10.7303C9.65044 10.7194 9.74212 10.7194 9.83288 10.7303L9.65776 10.7065C9.75256 10.72 9.84527 10.746 9.9336 10.784L9.77626 10.716C9.85532 10.7522 9.93 10.7978 9.99878 10.8519L9.86711 10.7453C9.94084 10.8045 10.0072 10.873 10.0646 10.9491L9.96191 10.8132C10.0142 10.8845 10.0584 10.9618 10.0936 11.0435L10.0277 10.8811C10.065 10.9722 10.0905 11.0679 10.1035 11.1658L10.0798 10.9851C10.0909 11.0787 10.0909 11.1734 10.0798 11.267L10.1035 11.0863C10.0905 11.1842 10.065 11.2799 10.0277 11.371L10.0936 11.2086C10.0585 11.2902 10.0143 11.3672 9.96191 11.4382L10.0646 11.3023C10.0074 11.3786 9.94102 11.4471 9.86711 11.5062L9.99878 11.4002C9.93 11.4543 9.85532 11.4999 9.77626 11.536L9.9336 11.4681C9.8454 11.5066 9.75265 11.5329 9.65776 11.5462L9.83288 11.5218C9.74215 11.5333 9.6504 11.5333 9.55967 11.5218L9.73479 11.5462C9.6399 11.5329 9.54715 11.5066 9.45895 11.4681L9.61629 11.536C9.5371 11.4997 9.46221 11.4541 9.39312 11.4002L9.52478 11.5062C9.45105 11.4469 9.38472 11.3784 9.32728 11.3023L9.43064 11.4382C9.37821 11.3672 9.33402 11.2902 9.29898 11.2086L9.36481 11.371C9.32803 11.2798 9.3028 11.1841 9.28976 11.0863L9.3128 11.267C9.30763 11.2201 9.30478 11.1729 9.30424 11.1257C9.30144 10.9461 9.23247 10.7744 9.11135 10.6454C8.9872 10.5191 8.82024 10.4477 8.64591 10.4463C8.29239 10.4626 7.98364 10.7453 7.98759 11.1257C7.98653 11.4756 8.08821 11.8176 8.27923 12.1067C8.38485 12.2627 8.51269 12.4012 8.65842 12.5177C8.80633 12.6336 8.97064 12.7253 9.14558 12.7895C9.30658 12.8475 9.47543 12.8789 9.64591 12.8826C9.81821 12.8888 9.99038 12.867 10.1561 12.818C10.4715 12.7282 10.7542 12.5446 10.9692 12.2902C11.1042 12.124 11.2123 11.9363 11.2891 11.7344C11.3484 11.57 11.3835 11.3973 11.3931 11.2222C11.4121 10.8805 11.3335 10.5407 11.1669 10.2448C11.0004 9.94884 10.7533 9.70994 10.4563 9.5577C10.2586 9.46144 10.0464 9.40056 9.82893 9.37767C9.65677 9.36209 9.48332 9.37424 9.31478 9.41367C8.96755 9.48903 8.65392 9.67998 8.42208 9.95717C8.1482 10.2821 7.99432 10.6964 7.98759 11.1271C7.98364 11.4831 8.29305 11.8227 8.64591 11.8064C8.81979 11.8033 8.98566 11.7305 9.10851 11.6035C9.23135 11.4765 9.30154 11.3051 9.30424 11.1257Z" fill="#F4213A"/>
</g>
<defs>
<clipPath id="clip0_1_4605">
<rect width="15" height="16" fill="white"/>
</clipPath>
</defs>
</svg>
