<svg width="15" height="16" viewBox="0 0 15 16" fill="none" xmlns="http://www.w3.org/2000/svg">
<g clip-path="url(#clip0_1_4595)">
<path d="M12.4711 1.28487H14.378L13.7564 0.643819V2.95865L14.378 2.3176H1.17977C1.0014 2.3176 0.823016 2.3176 0.645259 2.3176H0.622262L1.24379 2.95865V0.643819L0.622262 1.28487H8.18193C8.52999 1.28487 8.87866 1.29 9.22734 1.28487H9.24164C9.5667 1.28487 9.87808 0.989987 9.86317 0.643819C9.86045 0.474677 9.79409 0.313247 9.67812 0.193629C9.56214 0.0740115 9.40563 0.00557206 9.24164 0.00276757H1.68197C1.33391 0.00276757 0.985236 -0.00236084 0.637179 0.00276757H0.622262C0.458123 0.00508928 0.301338 0.0733735 0.185263 0.193094C0.0691882 0.312815 0.00298343 0.474524 0.000732422 0.643819V2.95865C0.00314 3.1279 0.0693952 3.28951 0.185437 3.4092C0.301479 3.52889 0.458172 3.59722 0.622262 3.59971H13.8204C13.9988 3.59971 14.1772 3.59971 14.355 3.59971H14.378C14.542 3.59722 14.6987 3.52889 14.8148 3.4092C14.9308 3.28951 14.9971 3.1279 14.9995 2.95865V0.643819C14.9972 0.474524 14.931 0.312815 14.815 0.193094C14.6989 0.0733735 14.5421 0.00508928 14.378 0.00276757H12.4711C12.146 0.00276757 11.8347 0.297651 11.8496 0.643819C11.8523 0.812961 11.9187 0.97439 12.0346 1.09401C12.1506 1.21363 12.3071 1.28207 12.4711 1.28487Z" fill="#F4213A"/>
<path d="M1.73044 5.72693H12.8347C12.9857 5.72693 13.1368 5.72693 13.2878 5.72693H13.3071C13.6321 5.72693 13.9435 5.43204 13.9286 5.08588C13.9257 4.91678 13.8593 4.75545 13.7434 4.63586C13.6274 4.51628 13.471 4.44779 13.3071 4.44482H2.20281C2.05177 4.44482 1.90074 4.44482 1.74971 4.44482H1.73044C1.40538 4.44482 1.094 4.73971 1.10891 5.08588C1.11179 5.25497 1.17819 5.4163 1.29414 5.53589C1.41008 5.65547 1.5665 5.72396 1.73044 5.72693Z" fill="#F4213A"/>
<path d="M1.73044 7.85486H12.8347C12.9857 7.85486 13.1368 7.85486 13.2878 7.85486H13.3071C13.6321 7.85486 13.9435 7.55997 13.9286 7.21381C13.9257 7.04471 13.8593 6.88338 13.7434 6.76379C13.6274 6.64421 13.471 6.57572 13.3071 6.57275H2.20281C2.05177 6.57275 1.90074 6.57275 1.74971 6.57275H1.73044C1.40538 6.57275 1.094 6.86764 1.10891 7.21381C1.11163 7.38295 1.17799 7.54438 1.29396 7.66399C1.40994 7.78361 1.56645 7.85205 1.73044 7.85486Z" fill="#F4213A"/>
<path d="M1.73044 9.9823H12.8347C12.9857 9.9823 13.1368 9.9823 13.2878 9.9823H13.3071C13.6321 9.9823 13.9435 9.68741 13.9286 9.34125C13.9257 9.17216 13.8593 9.01082 13.7434 8.89123C13.6274 8.77165 13.471 8.70316 13.3071 8.7002H2.20281C2.05177 8.7002 1.90074 8.7002 1.74971 8.7002H1.73044C1.40538 8.7002 1.094 8.99508 1.10891 9.34125C1.11163 9.51039 1.17799 9.67182 1.29396 9.79144C1.40994 9.91105 1.56645 9.97949 1.73044 9.9823Z" fill="#F4213A"/>
<path d="M1.73044 12.1088H12.8347C12.9857 12.1088 13.1368 12.1088 13.2878 12.1088H13.3071C13.6321 12.1088 13.9435 11.8139 13.9286 11.4677C13.9257 11.2986 13.8593 11.1373 13.7434 11.0177C13.6274 10.8981 13.471 10.8296 13.3071 10.8267H2.20281C2.05177 10.8267 1.90074 10.8267 1.74971 10.8267H1.73044C1.40538 10.8267 1.094 11.1215 1.10891 11.4677C1.11163 11.6369 1.17799 11.7983 1.29396 11.9179C1.40994 12.0375 1.56645 12.106 1.73044 12.1088Z" fill="#F4213A"/>
<path d="M0.952881 14.1243V15.1795C0.955085 15.349 1.02027 15.5113 1.13499 15.6327C1.25154 15.7529 1.4096 15.8204 1.57441 15.8204C1.73922 15.8204 1.89728 15.7529 2.01383 15.6327C2.12829 15.5111 2.19342 15.349 2.19594 15.1795V14.1243C2.19386 13.9547 2.12866 13.7925 2.01383 13.6711C1.89728 13.5509 1.73922 13.4834 1.57441 13.4834C1.4096 13.4834 1.25154 13.5509 1.13499 13.6711C1.02043 13.7927 0.955275 13.9548 0.952881 14.1243Z" fill="#F4213A"/>
<path d="M0.952881 3.27V14.1884C0.952881 14.3365 0.952881 14.4846 0.952881 14.6326V14.6519C0.952881 14.9871 1.23878 15.3083 1.57441 15.2929C1.73835 15.29 1.89478 15.2215 2.01072 15.1019C2.12666 14.9823 2.19307 14.821 2.19594 14.6519V3.73284C2.19594 3.5854 2.19594 3.43732 2.19594 3.28923V3.27C2.19594 2.93473 1.91004 2.61356 1.57441 2.62895C1.41042 2.63175 1.25391 2.70019 1.13793 2.81981C1.02196 2.93943 0.9556 3.10086 0.952881 3.27Z" fill="#F4213A"/>
<path d="M12.8042 3.27V14.6942C12.8042 14.8493 12.8042 15.0044 12.8042 15.1596V15.1795C12.8042 15.5147 13.0901 15.8359 13.4257 15.8205C13.5897 15.8175 13.7461 15.749 13.862 15.6295C13.978 15.5099 14.0444 15.3485 14.0473 15.1795V3.75464C14.0473 3.60014 14.0473 3.44501 14.0473 3.28987V3.27C14.0473 2.93473 13.7614 2.61356 13.4257 2.62895C13.2617 2.63175 13.1052 2.70019 12.9892 2.81981C12.8733 2.93943 12.8069 3.10086 12.8042 3.27Z" fill="#F4213A"/>
<path d="M0.622045 15.9994H13.8202C13.9986 15.9994 14.177 15.9994 14.3547 15.9994H14.3777C14.7028 15.9994 15.0142 15.7045 14.9993 15.3583C14.9964 15.1892 14.93 15.0279 14.8141 14.9083C14.6981 14.7887 14.5417 14.7202 14.3777 14.7173H1.17956C1.00118 14.7173 0.82342 14.7173 0.645041 14.7173H0.622045C0.296985 14.7173 -0.0144015 15.0122 0.000515226 15.3583C0.00323431 15.5275 0.0695896 15.6889 0.185565 15.8085C0.30154 15.9281 0.458054 15.9966 0.622045 15.9994Z" fill="#F4213A"/>
</g>
<defs>
<clipPath id="clip0_1_4595">
<rect width="15" height="16" fill="white"/>
</clipPath>
</defs>
</svg>
