<svg width="17" height="19" viewBox="0 0 17 19" fill="none" xmlns="http://www.w3.org/2000/svg">
<g clip-path="url(#clip0_1_6167)">
<mask id="mask0_1_6167" style="mask-type:luminance" maskUnits="userSpaceOnUse" x="0" y="0" width="17" height="17">
<path d="M17 0H0V16.2855H17V0Z" fill="white"/>
</mask>
<g mask="url(#mask0_1_6167)">
<path d="M17 11.5143H0V2.07031H17V11.5143ZM0.996094 10.5601H16.0039V3.02454H0.996094V10.5601Z" fill="#F4213A"/>
<path d="M16.502 3.979H0.498047V4.93323H16.502V3.979Z" fill="#F4213A"/>
</g>
<path d="M13.3857 14.6751C13.1562 14.4572 12.7857 14.4588 12.5583 14.6786C12.3321 14.8971 12.3321 15.2492 12.5583 15.4677L13.7343 16.5944C13.8439 16.6996 13.993 16.7588 14.148 16.7585C14.4711 16.7585 14.7331 16.5078 14.7334 16.1983C14.7334 16.0495 14.6716 15.907 14.5621 15.8017L13.386 14.6751H13.3857Z" fill="#F4213A"/>
<path d="M8.49959 14.0292C6.8235 14.0292 5.4283 12.8555 5.16201 11.3208H3.97998C4.25523 13.4758 6.17703 15.1501 8.49959 15.1501C10.8221 15.1501 12.7443 13.4758 13.0195 11.3208H11.8375C11.5712 12.8555 10.176 14.0292 8.49959 14.0292Z" fill="#F4213A"/>
<path d="M3.61465 14.675L2.43793 15.8016C2.20949 16.0205 2.20949 16.3754 2.43793 16.5943C2.5475 16.6995 2.69658 16.7584 2.85164 16.7584C3.0067 16.7584 3.15578 16.6995 3.26535 16.5943L4.44207 15.4676C4.67051 15.2488 4.67084 14.8938 4.44207 14.675C4.21363 14.4562 3.84309 14.4558 3.61465 14.675Z" fill="#F4213A"/>
<path d="M8.4991 16.2856C8.17604 16.2856 7.91406 16.5366 7.91406 16.8461V18.4397C7.91406 18.7491 8.17604 19.0001 8.4991 19.0001C8.82217 19.0001 9.08414 18.7491 9.08414 18.4397V16.8461C9.08414 16.5366 8.82217 16.2856 8.4991 16.2856Z" fill="#F4213A"/>
</g>
<defs>
<clipPath id="clip0_1_6167">
<rect width="17" height="19" fill="white"/>
</clipPath>
</defs>
</svg>
