<svg width="15" height="17" viewBox="0 0 15 17" fill="none" xmlns="http://www.w3.org/2000/svg">
<g clip-path="url(#clip0_1_6181)">
<path d="M14.502 6.27588H0.497559V7.25477H14.502V6.27588Z" fill="#F4213A"/>
<path d="M14.502 8.71191H0.497559V9.6908H14.502V8.71191Z" fill="#F4213A"/>
<path d="M14.502 3.83936H0.497559V4.81824H14.502V3.83936Z" fill="#F4213A"/>
<path d="M0 0V17H12.3421C12.2854 16.6793 12.2871 16.3425 12.3 16.0211H0.995575V0.978887H14.0044V16.0211H11.2626C11.2951 16.3477 11.2746 16.6757 11.2271 17H15V0H0Z" fill="#F4213A"/>
<path d="M14.502 11.1484H0.497559V12.1273H14.502V11.1484Z" fill="#F4213A"/>
<path d="M14.502 13.5845H0.497559V14.5634H14.502V13.5845Z" fill="#F4213A"/>
<path d="M14.502 16.021H0.497559V16.9999H14.502V16.021Z" fill="#F4213A"/>
</g>
<defs>
<clipPath id="clip0_1_6181">
<rect width="15" height="17" fill="white"/>
</clipPath>
</defs>
</svg>
