<svg width="17" height="17" viewBox="0 0 17 17" fill="none" xmlns="http://www.w3.org/2000/svg">
<g clip-path="url(#clip0_1_6197)">
<path d="M16.564 0H0.436026C0.195529 0 0 0.195529 0 0.436026V16.5643C0 16.8048 0.195529 17.0003 0.436026 17.0003H2.78803C3.02853 17.0003 3.22406 16.8048 3.22406 16.5643V12.9582H13.7763V16.5643C13.7763 16.8048 13.9718 17.0003 14.2123 17.0003H16.5643C16.8048 17.0003 17.0003 16.8048 17.0003 16.5643V0.436026C17.0003 0.195529 16.8048 0 16.5643 0H16.564ZM3.22372 12.0475V8.93602H13.7759V12.0475H3.22372ZM13.7759 5.47613V8.06431H3.22372V4.9042H13.7759V5.47613ZM2.21577 4.03215V2.88796H14.7839V4.03215H2.21577ZM16.1279 16.1283H14.6477V4.90387H15.2196C15.4601 4.90387 15.6556 4.70834 15.6556 4.46785V2.45194C15.6556 2.21144 15.4601 2.01591 15.2196 2.01591H1.78008C1.53958 2.01591 1.34405 2.21144 1.34405 2.45194V4.46785C1.34405 4.70834 1.53958 4.90387 1.78008 4.90387H2.35201V16.1283H0.871718V0.871718H16.1279V16.1279V16.1283Z" fill="#F4213A"/>
</g>
<defs>
<clipPath id="clip0_1_6197">
<rect width="17" height="17" fill="white"/>
</clipPath>
</defs>
</svg>
