<svg width="14" height="17" viewBox="0 0 14 17" fill="none" xmlns="http://www.w3.org/2000/svg">
<g clip-path="url(#clip0_1_6161)">
<path d="M12.9413 0H1.05869C0.474989 0 0 0.492312 0 1.0973V15.9027C0 16.5077 0.474989 17 1.05869 17H8.9284H12.941C13.5247 17 13.9997 16.5077 13.9997 15.9027V1.0973C13.9997 0.492312 13.5247 0 12.941 0H12.9413ZM1.67589 13.3055C1.67589 14.3245 2.00203 15.3131 2.59869 16.1156H1.05901C0.945869 16.1156 0.853589 16.02 0.853589 15.9027V8.31002C2.02415 9.1859 2.90555 10.3864 3.40898 11.7942C4.06126 13.6174 5.29029 15.1369 6.89413 16.1156H3.74081L3.50569 15.8568C2.87616 15.1637 2.52948 14.2577 2.52948 13.3055C2.52948 13.0618 2.33797 12.8633 2.10284 12.8633C1.86772 12.8633 1.67621 13.0618 1.67621 13.3055H1.67589ZM1.16393 7.45576L0.853273 7.23696V1.0973C0.853273 0.980039 0.945553 0.884393 1.05869 0.884393H1.47016C1.82474 1.69312 2.01214 2.58603 2.01214 3.47108V4.34139C2.01214 4.58509 2.20366 4.78358 2.43878 4.78358C2.6739 4.78358 2.86542 4.58509 2.86542 4.34139V3.47108C2.86542 2.59684 2.7033 1.70622 2.39549 0.884393H5.37341C4.40068 2.38786 3.86691 4.32501 3.86691 6.36665C3.86691 8.52522 4.46072 10.56 5.53932 12.0959C6.64763 13.674 8.1339 14.5434 9.72447 14.5434C9.95959 14.5434 10.1511 14.3449 10.1511 14.1012C10.1511 13.8575 9.95959 13.659 9.72447 13.659C8.4139 13.659 7.17255 12.919 6.22921 11.5757C4.21232 8.70341 4.21232 4.03021 6.22921 1.15823C6.29431 1.06553 6.36226 0.973815 6.4321 0.884721H12.9413C13.0544 0.884721 13.1467 0.980366 13.1467 1.09763V3.95979C12.8566 3.82091 12.5396 3.74819 12.2208 3.74819C11.5887 3.74819 10.9968 4.02399 10.5537 4.52482C9.6619 5.5327 9.6619 7.1721 10.5537 8.17998C10.9968 8.68081 11.589 8.95661 12.2208 8.95661C12.54 8.95661 12.8566 8.88389 13.1467 8.74501V11.6769C12.9091 12.0025 12.6512 12.2934 12.3804 12.5423C12.295 12.6206 12.2442 12.7287 12.2375 12.8466C12.2306 12.9645 12.2685 13.0782 12.344 13.1663C12.4249 13.261 12.5412 13.3154 12.6629 13.3154C12.6632 13.3154 12.6635 13.3154 12.6642 13.3154C12.7684 13.3154 12.8686 13.2757 12.9467 13.204C13.0146 13.1414 13.0816 13.0772 13.147 13.0111V15.903C13.147 16.0203 13.0548 16.1159 12.9416 16.1159H9.00235L8.5912 15.9646C6.55693 15.2168 4.95973 13.5846 4.20916 11.487C3.61946 9.83871 2.56646 8.44497 1.16424 7.45609L1.16393 7.45576ZM13.1467 7.69586C12.8844 7.93857 12.5573 8.07156 12.2208 8.07156C11.8308 8.07156 11.462 7.89763 11.1826 7.58154C10.5825 6.90351 10.5825 5.79998 11.1826 5.12195C11.462 4.80619 11.8308 4.63193 12.2208 4.63193C12.5573 4.63193 12.8844 4.76491 13.1467 5.00763V7.69553V7.69586Z" fill="#F4213A"/>
<path d="M7.84114 3.39199C7.91825 3.46077 8.01685 3.49877 8.11829 3.49877C8.11861 3.49877 8.11924 3.49877 8.11956 3.49877C8.24407 3.49877 8.36195 3.44243 8.44317 3.34449C8.83536 2.87052 9.31825 2.51578 9.83938 2.31925C10.0603 2.23573 10.1747 1.98154 10.0944 1.75259C10.0555 1.64154 9.97717 1.55311 9.87382 1.50299C9.77048 1.4532 9.65482 1.44796 9.54768 1.48825C8.88908 1.73686 8.28326 2.17971 7.79563 2.76865C7.72136 2.8584 7.68534 2.97239 7.69419 3.09031C7.70303 3.20823 7.7555 3.31534 7.84177 3.39199H7.84114Z" fill="#F4213A"/>
<path d="M10.3077 10.9958C10.3741 10.7619 10.2445 10.5156 10.0189 10.4468C9.42665 10.266 8.88182 9.89032 8.44317 9.36034C7.44169 8.15003 7.1402 6.33801 7.67523 4.74381C7.75234 4.51354 7.63446 4.261 7.41229 4.18107C7.30485 4.14209 7.18886 4.1493 7.08647 4.20073C6.98629 4.25084 6.91013 4.33797 6.87189 4.44606L6.86936 4.4536C6.23667 6.33932 6.6001 8.49167 7.79564 9.93651C8.34173 10.5965 9.02719 11.0666 9.77807 11.2959C9.81726 11.308 9.85803 11.3139 9.8988 11.3139C10.0865 11.3139 10.255 11.1835 10.3081 10.9965L10.3077 10.9958Z" fill="#F4213A"/>
</g>
<defs>
<clipPath id="clip0_1_6161">
<rect width="14" height="17" fill="white"/>
</clipPath>
</defs>
</svg>
