<?xml version="1.0" encoding="utf-8"?>
<!-- Generator: Adobe Illustrator 22.0.1, SVG Export Plug-In . SVG Version: 6.00 Build 0)  -->
<svg version="1.1" id="Слой_1" xmlns="http://www.w3.org/2000/svg" xmlns:xlink="http://www.w3.org/1999/xlink" x="0px" y="0px"
	 viewBox="0 0 150 150" style="enable-background:new 0 0 150 150;" xml:space="preserve">
<style type="text/css">
	.st0{fill:#D4F1BB;}
</style>
<polygon class="st0" points="33.9,72 94.9,11.1 135,51 111.2,72 "/>
<polygon class="st0" points="50.2,133.6 59.1,125 41,125 "/>
<path d="M72.6,120.8c12.3,0,22.4-10,22.4-22.4S84.9,76,72.6,76s-22.4,10-22.4,22.4S60.2,120.8,72.6,120.8z M72.6,80.1
	c10.1,0,18.3,8.2,18.3,18.3s-8.2,18.3-18.3,18.3s-18.3-8.2-18.3-18.3S62.5,80.1,72.6,80.1z"/>
<path d="M127.4,116.7V80.1c0-1.1-0.9-2-2-2H101v4.1h22.4v32.5H101v4.1h24.4C126.5,118.7,127.4,117.8,127.4,116.7z"/>
<path d="M19.7,118.7h24.4v-4.1H21.7V82.1h22.4v-4.1H19.7c-1.1,0-2,0.9-2,2v36.6C17.7,117.8,18.6,118.7,19.7,118.7z"/>
<path d="M101,106.5h4.1v4.1H101V106.5z"/>
<path d="M109.1,106.5h4.1v4.1h-4.1V106.5z"/>
<path d="M101,86.2h4.1v4.1H101V86.2z"/>
<path d="M109.1,86.2h4.1v4.1h-4.1V86.2z"/>
<path d="M95.5,26.1l23,23l-15.8,15.8l2.9,2.9l17.2-17.2c0.8-0.8,0.8-2.1,0-2.9L96.9,21.7c-0.8-0.8-2.1-0.8-2.9,0L76.8,39l2.9,2.9
	L95.5,26.1z"/>
<path d="M96.9,59.1l2.9-2.9l2.9,2.9L99.8,62L96.9,59.1z"/>
<path d="M102.6,53.4l2.9-2.9l2.9,2.9l-2.9,2.9L102.6,53.4z"/>
<path d="M82.5,44.7l2.9-2.9l2.9,2.9l-2.9,2.9L82.5,44.7z"/>
<path d="M88.3,39l2.9-2.9L94,39l-2.9,2.9L88.3,39z"/>
<path d="M31.9,86.2H36v4.1h-4.1V86.2z"/>
<path d="M40,86.2h4.1v4.1H40V86.2z"/>
<path d="M31.9,106.5H36v4.1h-4.1V106.5z"/>
<path d="M40,106.5h4.1v4.1H40V106.5z"/>
<path d="M133.5,69.9h-17.5L135,51c0.8-0.8,0.8-2.1,0-2.9L96.4,9.5c-0.8-0.8-2.1-0.8-2.9,0L33.1,69.9H11.6c-1.1,0-2,0.9-2,2v52.9
	c0,1.1,0.9,2,2,2h29.7l7.5,7.5c0.4,0.4,0.9,0.6,1.4,0.6c0.5,0,1-0.2,1.4-0.6l7.5-7.5h74.4c1.1,0,2-0.9,2-2V72
	C135.6,70.8,134.7,69.9,133.5,69.9z M94.9,13.9l35.8,35.8l-20.3,20.3H94.8c-0.5-5.2-2.7-10-6.5-13.8c-8.7-8.7-22.9-8.7-31.6,0
	c-3.7,3.7-6,8.6-6.5,13.8H38.8L94.9,13.9z M90.7,69.9h-2.5h-3.5H58.7h-3.2h-1.2c0.5-4.1,2.3-7.9,5.2-10.9c7.1-7.1,18.7-7.1,25.9,0
	C88.5,62,90.3,65.8,90.7,69.9z M50.2,130.1l-3.2-3.2h6.4L50.2,130.1z M131.5,122.8H13.6V74h117.9V122.8z"/>
</svg>
