<?xml version="1.0" encoding="utf-8"?>
<!-- Generator: Adobe Illustrator 22.0.1, SVG Export Plug-In . SVG Version: 6.00 Build 0)  -->
<svg version="1.1" id="Слой_1" xmlns="http://www.w3.org/2000/svg" xmlns:xlink="http://www.w3.org/1999/xlink" x="0px" y="0px"
	 viewBox="0 0 150 150" style="enable-background:new 0 0 150 150;" xml:space="preserve">
<style type="text/css">
	.st0{fill:#D4F1BB;}
</style>
<path class="st0" d="M34.6,117.1l1-84.7h65.9v72l-5.9-0.6c0,0-15.1-16.9-16.8-18.4c-1.7-1.5-2-1.9-5.3,0c-3.2,1.9-4.9,2.4-5.5,4.2
	c-0.6,1.8,3.6,12.2,5.5,14.8s8,10.7,8.4,12.7H34.6z"/>
<circle cx="55.7" cy="24.5" r="2.1"/>
<path d="M66.2,26.6h14.7c1.2,0,2.1-0.9,2.1-2.1s-0.9-2.1-2.1-2.1H66.2c-1.2,0-2.1,0.9-2.1,2.1S65,26.6,66.2,26.6z"/>
<path d="M68.3,121.1c-3.5,0-6.3,2.8-6.3,6.3s2.8,6.3,6.3,6.3c3.5,0,6.3-2.8,6.3-6.3C74.6,124,71.8,121.2,68.3,121.1z M68.3,129.6
	c-1.2,0-2.1-0.9-2.1-2.1c0-1.2,0.9-2.1,2.1-2.1s2.1,0.9,2.1,2.1C70.4,128.6,69.4,129.6,68.3,129.6z"/>
<path d="M43.1,60.2h50.4c1.2,0,2.1-0.9,2.1-2.1V41.3c0-1.2-0.9-2.1-2.1-2.1H43.1c-1.2,0-2.1,0.9-2.1,2.1v16.8
	C41,59.3,41.9,60.2,43.1,60.2z M45.2,43.4h46.2V56H45.2V43.4z"/>
<path d="M68.3,47.6H51.5c-1.2,0-2.1,0.9-2.1,2.1s0.9,2.1,2.1,2.1h16.8c1.2,0,2.1-0.9,2.1-2.1S69.4,47.6,68.3,47.6z"/>
<path d="M43.1,68.6h29.4c1.2,0,2.1-0.9,2.1-2.1s-0.9-2.1-2.1-2.1H43.1c-1.2,0-2.1,0.9-2.1,2.1S41.9,68.6,43.1,68.6z"/>
<path d="M72.5,72.8H59.9c-1.2,0-2.1,0.9-2.1,2.1s0.9,2.1,2.1,2.1h12.6c1.2,0,2.1-0.9,2.1-2.1S73.6,72.8,72.5,72.8z"/>
<path d="M43.1,85.4h12.6c1.2,0,2.1-0.9,2.1-2.1s-0.9-2.1-2.1-2.1H43.1c-1.2,0-2.1,0.9-2.1,2.1S41.9,85.4,43.1,85.4z"/>
<path d="M43.1,93.8h12.6c1.2,0,2.1-0.9,2.1-2.1s-0.9-2.1-2.1-2.1H43.1c-1.2,0-2.1,0.9-2.1,2.1S41.9,93.8,43.1,93.8z"/>
<circle cx="43.1" cy="108.5" r="2.1"/>
<circle cx="51.5" cy="108.5" r="2.1"/>
<circle cx="59.9" cy="108.5" r="2.1"/>
<path d="M43.1,102.2h16.8c1.2,0,2.1-0.9,2.1-2.1S61,98,59.9,98H43.1c-1.2,0-2.1,0.9-2.1,2.1S41.9,102.2,43.1,102.2z"/>
<path d="M93.5,64.4H80.9c-1.2,0-2.1,0.9-2.1,2.1v8.4c0,1.2,0.9,2.1,2.1,2.1h12.6c1.2,0,2.1-0.9,2.1-2.1v-8.4
	C95.6,65.3,94.7,64.4,93.5,64.4z M91.4,72.8H83v-4.2h8.4V72.8z"/>
<path d="M43.1,77h8.4c1.2,0,2.1-0.9,2.1-2.1s-0.9-2.1-2.1-2.1h-8.4c-1.2,0-2.1,0.9-2.1,2.1S41.9,77,43.1,77z"/>
<path d="M104,140.1h14.7c1.2,0,2.1-0.9,2.1-2.1V87.5c0-1.7-0.4-3.4-1.2-4.9L104,53.4V24.5c0-5.8-4.7-10.5-10.5-10.5H43.1
	c-5.8,0-10.5,4.7-10.5,10.5v105.1c0,5.8,4.7,10.5,10.5,10.5h58.8H104z M116.6,87.5v48.3H104c-10.3,0-18.7-8.2-18.9-18.5
	c0.1-0.5,0-1.1-0.3-1.6L71.1,95.6c-1.9-2.9-1.2-6.8,1.7-8.8c2.9-1.9,6.8-1.2,8.8,1.7c0,0,0,0,0,0.1l12.3,17c0.4,0.5,1,0.9,1.7,0.9
	h6.3c1.2,0,2.1-0.9,2.1-2.1v-42l11.9,22.3C116.4,85.5,116.6,86.5,116.6,87.5z M99.8,53.9v48.3h-3.1L85.1,86.2
	c-3.3-4.8-9.8-6.1-14.6-2.8c-4.8,3.3-6.1,9.8-2.8,14.6l11.4,16.9H36.8V35h63L99.8,53.9z M43.1,18.2h50.4c3.5,0,6.3,2.8,6.3,6.3v6.3
	h-63v-6.3C36.8,21,39.6,18.2,43.1,18.2z M43.1,135.9c-3.5,0-6.3-2.8-6.3-6.3V119H81c0.6,6.8,4.2,12.9,9.7,16.8H43.1z"/>
</svg>
