<svg width="51" height="43" viewBox="0 0 51 43" fill="none" xmlns="http://www.w3.org/2000/svg">
<g clip-path="url(#clip0_1_372)">
<path fill-rule="evenodd" clip-rule="evenodd" d="M31.9406 0.769412L30.681 1.51264H22.475C22.2599 1.51264 22.0536 1.59997 21.9015 1.75542C21.7494 1.91087 21.6639 2.12171 21.6639 2.34155C21.6639 2.5614 21.7494 2.77223 21.9015 2.92769C22.0536 3.08314 22.2599 3.17047 22.475 3.17047H27.8711L26.3234 4.08362L44.5347 14.8285V22.7905C44.5347 23.1087 44.3804 23.3818 44.1107 23.541L39.8893 26.0315C39.7545 26.1111 39.6002 26.1111 39.4653 26.0315C39.3305 25.952 39.2533 25.8154 39.2533 25.6564V17.9445L21.0422 7.19952L15.8861 10.2416C15.7921 10.2041 15.692 10.1849 15.591 10.1851H1.72371C1.50858 10.1851 1.30227 10.2724 1.15015 10.4278C0.998035 10.5833 0.912577 10.7941 0.912577 11.014C0.912577 11.2338 0.998035 11.4447 1.15015 11.6001C1.30227 11.7556 1.50858 11.8429 1.72371 11.8429H14.5847C14.5797 11.8993 14.577 11.9566 14.577 12.0146V20.93H6.55178C6.33665 20.93 6.13034 21.0173 5.97822 21.1728C5.8261 21.3282 5.74064 21.5391 5.74064 21.7589C5.74064 21.9787 5.8261 22.1896 5.97822 22.345C6.13034 22.5005 6.33665 22.5878 6.55178 22.5878H14.577V30.6387H1.72361C1.50848 30.6387 1.30217 30.726 1.15005 30.8814C0.997934 31.0369 0.912476 31.2477 0.912476 31.4676C0.912476 31.6874 0.997934 31.8983 1.15005 32.0537C1.30217 32.2092 1.50848 32.2965 1.72361 32.2965H14.7581C14.9022 32.5859 15.1288 32.8294 15.425 33.0042L31.9407 42.7485C32.4799 43.0667 33.0972 43.0667 33.6364 42.7485L50.152 33.0042C50.6913 32.6861 51 32.1397 51 31.5033V12.0146C51 11.3783 50.6913 10.8319 50.152 10.5137L33.6363 0.769412C33.0971 0.451212 32.4799 0.451212 31.9406 0.769412ZM16.3809 1.51253C16.596 1.51253 16.8023 1.59987 16.9544 1.75532C17.1066 1.91077 17.192 2.12161 17.192 2.34145C17.192 2.56129 17.1066 2.77213 16.9544 2.92758C16.8023 3.08303 16.596 3.17037 16.3809 3.17037H5.53796C5.32284 3.17037 5.11652 3.08303 4.96441 2.92758C4.81229 2.77213 4.72683 2.56129 4.72683 2.34145C4.72683 2.12161 4.81229 1.91077 4.96441 1.75532C5.11652 1.59987 5.32284 1.51253 5.53796 1.51253H16.3809Z" fill="#F4213A"/>
</g>
<defs>
<clipPath id="clip0_1_372">
<rect width="51" height="43" fill="white"/>
</clipPath>
</defs>
</svg>
