<svg width="55" height="37" viewBox="0 0 55 37" fill="none" xmlns="http://www.w3.org/2000/svg">
<g clip-path="url(#clip0_1_316)">
<path d="M14.2161 33.3605C14.7106 33.3605 15.1848 33.156 15.5344 32.792C15.8841 32.428 16.0805 31.9343 16.0805 31.4195C16.0805 30.9047 15.8841 30.411 15.5344 30.047C15.1848 29.683 14.7106 29.4785 14.2161 29.4785C13.7216 29.4785 13.2474 29.683 12.8978 30.047C12.5481 30.411 12.3517 30.9047 12.3517 31.4195C12.3517 31.9343 12.5481 32.428 12.8978 32.792C13.2474 33.156 13.7216 33.3605 14.2161 33.3605ZM43.5805 33.3605C44.075 33.3605 44.5492 33.156 44.8988 32.792C45.2485 32.428 45.4449 31.9343 45.4449 31.4195C45.4449 30.9047 45.2485 30.411 44.8988 30.047C44.5492 29.683 44.075 29.4785 43.5805 29.4785C43.086 29.4785 42.6118 29.683 42.2622 30.047C41.9125 30.411 41.7161 30.9047 41.7161 31.4195C41.7161 31.9343 41.9125 32.428 42.2622 32.792C42.6118 33.156 43.086 33.3605 43.5805 33.3605Z" fill="#F4213A"/>
<path fill-rule="evenodd" clip-rule="evenodd" d="M6.05931 7.39994C6.05931 7.14255 6.15753 6.8957 6.33235 6.7137C6.50717 6.5317 6.74428 6.42945 6.99152 6.42945H19.827C20.2906 6.42945 20.7352 6.23773 21.063 5.89648C21.3908 5.55522 21.5749 5.09238 21.5749 4.60978C21.5749 4.12717 21.3908 3.66433 21.063 3.32308C20.7352 2.98182 20.2906 2.7901 19.827 2.7901H15.5724V2.78913C15.3358 2.77805 15.1121 2.67359 14.9468 2.497C14.7815 2.3204 14.6869 2.0849 14.6823 1.83834C14.6778 1.59179 14.7635 1.35267 14.9222 1.16956C15.0808 0.986457 15.3005 0.873099 15.5366 0.852518V0.849121H35.4237C35.671 0.849121 35.9081 0.951369 36.0829 1.13337C36.2577 1.31537 36.3559 1.56222 36.3559 1.81961V9.82617H44.1384C44.6282 9.82619 45.1093 9.96007 45.5338 10.2144C45.9582 10.4688 46.3111 10.8347 46.557 11.2756L49.9433 17.3475H51.7373C52.479 17.3475 53.1903 17.6542 53.7148 18.2002C54.2392 18.7462 54.5339 19.4868 54.5339 20.259V29.236C54.5339 30.0082 54.2392 30.7487 53.7148 31.2947C53.1903 31.8407 52.479 32.1475 51.7373 32.1475H49.0963C48.6526 34.9013 46.3519 36.9999 43.5805 36.9999C40.8091 36.9999 38.5084 34.9013 38.0647 32.1475H19.7319C19.2882 34.9013 16.9875 36.9999 14.2161 36.9999C11.4447 36.9999 9.14397 34.9013 8.70024 32.1475H2.56355C2.31631 32.1475 2.0792 32.0452 1.90438 31.8632C1.72956 31.6812 1.63135 31.4344 1.63135 31.177V24.6262C1.63135 24.1114 1.82777 23.6177 2.17742 23.2537C2.52706 22.8897 3.00128 22.6852 3.49575 22.6852H6.07702C6.91368 22.6852 7.59185 21.9792 7.59185 21.1081C7.59185 20.2371 6.91368 19.5005 6.07702 19.5005H1.63135C1.43103 19.4469 1.25354 19.3255 1.1268 19.1553C1.00006 18.9851 0.931274 18.7759 0.931274 18.5606C0.931274 18.3453 1.00006 18.1361 1.1268 17.9659C1.25354 17.7957 1.43103 17.6743 1.63135 17.6207L11.6525 17.5901V17.5872C12.0674 17.561 12.4569 17.3709 12.7418 17.0559C13.0266 16.7408 13.1851 16.3244 13.1851 15.8917C13.1851 14.9664 12.5032 14.1934 11.6525 14.1934C11.4053 14.1934 11.1682 14.0911 10.9934 13.9091C10.8185 13.7271 10.7203 13.4803 10.7203 13.2229C10.7203 12.9655 10.8185 12.7187 10.9934 12.5367C11.1682 12.3546 11.4053 12.2524 11.6525 12.2524H15.7486V12.2378C16.206 12.1786 16.626 11.9451 16.9277 11.5824C17.2294 11.2198 17.3914 10.7536 17.3825 10.2739C17.3735 9.79421 17.1942 9.33497 16.8791 8.98481C16.5641 8.63464 16.1356 8.41837 15.6764 8.37771V8.37043H6.99152C6.74428 8.37043 6.50717 8.26819 6.33235 8.08618C6.15753 7.90418 6.05931 7.65733 6.05931 7.39994ZM45.1997 18.9798C45.0921 19.0235 44.9779 19.0458 44.8623 19.0458H39.1525L36.3559 18.9798V11.7672H44.1384C44.3017 11.7671 44.4621 11.8118 44.6037 11.8966C44.7452 11.9814 44.8628 12.1034 44.9448 12.2505L48.0537 17.8245L45.1997 18.9798ZM17.9449 31.177C17.9449 32.2066 17.552 33.1939 16.8528 33.922C16.1535 34.65 15.205 35.059 14.2161 35.059C13.2271 35.059 12.2787 34.65 11.5794 33.922C10.8801 33.1939 10.4873 32.2066 10.4873 31.177C10.4873 30.1474 10.8801 29.16 11.5794 28.432C12.2787 27.704 13.2271 27.295 14.2161 27.295C15.205 27.295 16.1535 27.704 16.8528 28.432C17.552 29.16 17.9449 30.1474 17.9449 31.177ZM43.5805 35.059C44.5694 35.059 45.5179 34.65 46.2172 33.922C46.9165 33.1939 47.3093 32.2066 47.3093 31.177C47.3093 30.1474 46.9165 29.16 46.2172 28.432C45.5179 27.704 44.5694 27.295 43.5805 27.295C42.5916 27.295 41.6431 27.704 40.9438 28.432C40.2445 29.16 39.8517 30.1474 39.8517 31.177C39.8517 32.2066 40.2445 33.1939 40.9438 33.922C41.6431 34.65 42.5916 35.059 43.5805 35.059ZM37.0551 21.7147C37.0551 21.4573 37.1533 21.2105 37.3281 21.0285C37.5029 20.8465 37.74 20.7442 37.9873 20.7442H38.6864C38.9337 20.7442 39.1708 20.8465 39.3456 21.0285C39.5204 21.2105 39.6186 21.4573 39.6186 21.7147C39.6186 21.9721 39.5204 22.2189 39.3456 22.4009C39.1708 22.5829 38.9337 22.6852 38.6864 22.6852H37.9873C37.74 22.6852 37.5029 22.5829 37.3281 22.4009C37.1533 22.2189 37.0551 21.9721 37.0551 21.7147Z" fill="#F4213A"/>
<path d="M8.6229 14.1934H3.72883C3.4816 14.1934 3.24449 14.0911 3.06967 13.9091C2.89485 13.7271 2.79663 13.4803 2.79663 13.2229C2.79663 12.9655 2.89485 12.7187 3.06967 12.5366C3.24449 12.3546 3.4816 12.2524 3.72883 12.2524H8.6229C8.87014 12.2524 9.10725 12.3546 9.28207 12.5366C9.45689 12.7187 9.55511 12.9655 9.55511 13.2229C9.55511 13.4803 9.45689 13.7271 9.28207 13.9091C9.10725 14.0911 8.87014 14.1934 8.6229 14.1934ZM12.3517 2.7901C12.599 2.7901 12.8361 2.68786 13.0109 2.50585C13.1857 2.32385 13.2839 2.077 13.2839 1.81961C13.2839 1.56222 13.1857 1.31537 13.0109 1.13337C12.8361 0.951369 12.599 0.849121 12.3517 0.849121H11.6526C11.4053 0.849121 11.1682 0.951369 10.9934 1.13337C10.8186 1.31537 10.7204 1.56222 10.7204 1.81961C10.7204 2.077 10.8186 2.32385 10.9934 2.50585C11.1682 2.68786 11.4053 2.7901 11.6526 2.7901H12.3517Z" fill="#F4213A"/>
</g>
<defs>
<clipPath id="clip0_1_316">
<rect width="55" height="37" fill="white"/>
</clipPath>
</defs>
</svg>
