<svg width="43" height="43" viewBox="0 0 43 43" fill="none" xmlns="http://www.w3.org/2000/svg">
<g clip-path="url(#clip0_1_330)">
<path d="M42.1055 42.209C43.0247 41.4354 43.2704 40.1067 42.6789 39.0601L36.9908 28.9399C36.4539 27.9844 34.9887 27.3473 33.3323 27.3291C31.2846 30.1959 28.4087 33.4358 24.377 36.7849C23.5762 37.4493 22.5569 37.8224 21.5103 37.8224C20.4637 37.8224 19.4444 37.4584 18.6435 36.7849C14.6118 33.4358 11.7359 30.1959 9.68822 27.3291C8.03186 27.3473 6.55752 27.9844 6.02966 28.9399L0.323416 39.0601C-0.268141 40.1067 -0.031518 41.4354 0.896771 42.209C1.35181 42.5913 1.92517 42.8006 2.51673 42.8006H40.4947C41.0771 42.8006 41.6505 42.5913 42.1055 42.209ZM21.5012 8.84521C18.6344 8.84521 16.3046 11.175 16.3046 14.0418C16.3046 14.7244 16.8597 15.2886 17.5514 15.2886C18.2339 15.2886 18.7982 14.7335 18.7982 14.0418C18.7982 12.5493 20.0177 11.3298 21.5103 11.3298C22.1928 11.3298 22.7571 10.7746 22.7571 10.0829C22.748 9.40037 22.1837 8.84521 21.5012 8.84521Z" fill="#F4213A"/>
<path d="M35.1888 13.887C35.1888 6.16033 28.7909 -0.0646686 21.0097 0.208358C14.1931 0.44498 8.52326 5.76899 7.8771 12.5582C7.74969 13.9143 7.8225 15.2339 8.05912 16.4898C8.05912 16.4898 8.08642 16.6354 8.15013 16.9176C8.35945 17.8641 8.67798 18.7741 9.06931 19.6296C10.4435 22.8877 13.6198 28.3301 20.7366 34.2456C21.1735 34.6097 21.8196 34.6097 22.2565 34.2456C29.3734 28.3301 32.5496 22.8968 33.9238 19.6296C34.3242 18.765 34.6337 17.8641 34.843 16.9176C34.9067 16.6354 34.934 16.4898 34.934 16.4898C35.1069 15.6434 35.1888 14.7698 35.1888 13.887ZM21.5011 22.369C16.9052 22.369 13.1738 18.6376 13.1738 14.0417C13.1738 9.44575 16.9052 5.71439 21.5011 5.71439C26.097 5.71439 29.8284 9.44575 29.8284 14.0417C29.8284 18.6376 26.097 22.369 21.5011 22.369Z" fill="#F4213A"/>
</g>
<defs>
<clipPath id="clip0_1_330">
<rect width="43" height="43" fill="white"/>
</clipPath>
</defs>
</svg>
