<svg width="40" height="44" viewBox="0 0 40 44" fill="none" xmlns="http://www.w3.org/2000/svg">
<g clip-path="url(#clip0_1_351)">
<path fill-rule="evenodd" clip-rule="evenodd" d="M25.7465 3.5032H15.4414V0L0.239136 3.95989V39.2043L15.4414 43.1634V5.18086H24.1017V18.5556H25.7465V3.5032ZM24.9304 43.1634H17.0979V33.7889H24.9304V43.1634ZM39.3643 33.7889V43.1634H26.5746V33.7889H39.3643ZM32.5307 23.5759V32.1237H18.9738V23.5759H32.5307ZM10.9091 20.2205C11.7492 20.2205 12.4195 20.8987 12.4195 21.7374C12.4195 22.5886 11.7492 23.2668 10.9091 23.2668C10.0809 23.2668 9.4108 22.5886 9.4108 21.7374C9.4108 20.8987 10.0808 20.2205 10.9091 20.2205ZM31.9708 21.9106L30.8622 20.2205H20.6425L19.5342 21.9106H31.9708ZM34.1753 30.4339H37.6962L38.8042 32.1237H34.1753V30.4339Z" fill="#F4213A"/>
</g>
<defs>
<clipPath id="clip0_1_351">
<rect width="40" height="44" fill="white"/>
</clipPath>
</defs>
</svg>
