<svg width="37" height="37" viewBox="0 0 37 37" fill="none" xmlns="http://www.w3.org/2000/svg">
<path d="M36.6131 34.743L23.4397 21.5702C25.3744 19.2153 26.431 16.2615 26.4288 13.2138C26.4288 5.92771 20.5008 0 13.2144 0C5.92797 0 0 5.92771 0 13.2138C0 20.4999 5.92797 26.4276 13.2144 26.4276C16.3832 26.4276 19.293 25.3044 21.5712 23.4386L34.7446 36.6115C34.867 36.7346 35.0126 36.8323 35.1729 36.899C35.3333 36.9657 35.5052 37 35.6788 37C35.8525 37 36.0244 36.9657 36.1848 36.899C36.3451 36.8323 36.4907 36.7346 36.6131 36.6115C36.8608 36.3637 37 36.0276 37 35.6772C37 35.3269 36.8608 34.9908 36.6131 34.743ZM13.2144 23.7848C7.38552 23.7848 2.64288 19.0424 2.64288 13.2138C2.64288 7.38519 7.38552 2.64276 13.2144 2.64276C19.0433 2.64276 23.7859 7.38519 23.7859 13.2138C23.7859 19.0424 19.0433 23.7848 13.2144 23.7848ZM18.5001 13.2138C18.5001 13.5642 18.3609 13.9003 18.1131 14.1482C17.8653 14.396 17.5292 14.5352 17.1787 14.5352H14.5358V17.1779C14.5358 17.5284 14.3966 17.8645 14.1488 18.1123C13.901 18.3601 13.5649 18.4993 13.2144 18.4993C12.8639 18.4993 12.5278 18.3601 12.28 18.1123C12.0322 17.8645 11.8929 17.5284 11.8929 17.1779V14.5352H9.25007C8.8996 14.5352 8.56349 14.396 8.31567 14.1482C8.06785 13.9003 7.92863 13.5642 7.92863 13.2138C7.92863 12.8633 8.06785 12.5272 8.31567 12.2794C8.56349 12.0316 8.8996 11.8924 9.25007 11.8924H11.8929V9.24966C11.8929 8.89921 12.0322 8.56311 12.28 8.3153C12.5278 8.06749 12.8639 7.92828 13.2144 7.92828C13.5649 7.92828 13.901 8.06749 14.1488 8.3153C14.3966 8.56311 14.5358 8.89921 14.5358 9.24966V11.8924H17.1787C17.5292 11.8924 17.8653 12.0316 18.1131 12.2794C18.3609 12.5272 18.5001 12.8633 18.5001 13.2138Z" fill="white" fill-opacity="0.9"/>
</svg>
