<svg width="21" height="19" viewBox="0 0 21 19" fill="none" xmlns="http://www.w3.org/2000/svg">
<path d="M6.73256 0C7.92539 0.028143 9.03969 0.32742 10.0647 0.94382C10.3856 1.1367 10.6534 1.12984 10.9743 0.939702C15.0421 -1.47648 20.2719 1.11817 20.9237 5.88189C21.2271 8.10244 20.627 10.0573 19.0985 11.6608C17.068 13.7887 15.0038 15.8871 12.9377 17.9758C12.2978 18.6296 11.4308 18.9978 10.5262 19C9.62161 19.0022 8.75295 18.6382 8.10999 17.9875C6.01162 15.8665 3.89715 13.7599 1.86725 11.5709C0.0548486 9.61735 -0.439871 7.25128 0.39048 4.70674C1.21613 2.18829 2.98893 0.670626 5.53839 0.144145C5.92973 0.0604028 6.3345 0.0453034 6.73256 0ZM18.3367 6.69391C18.2621 5.13575 17.4936 3.81097 15.9027 3.10877C14.3279 2.41412 12.8511 2.70104 11.565 3.87001C10.8521 4.51936 10.1741 4.53857 9.48406 3.87618C8.83006 3.2368 7.98079 2.84705 7.07893 2.77243C6.25616 2.69747 5.43074 2.88303 4.71457 3.30394C3.9984 3.72485 3.42611 4.36075 3.07527 5.12546C2.72444 5.89017 2.61203 6.7467 2.75329 7.57894C2.89454 8.41118 3.28262 9.17887 3.86493 9.77798C5.87021 11.8491 7.88288 13.9123 9.90293 15.9674C10.2815 16.3552 10.7494 16.3628 11.1246 15.9784C13.1577 13.8999 15.1875 11.8178 17.2143 9.73199C17.9641 8.95496 18.3192 7.99124 18.3367 6.69391Z" fill="#F4213A"/>
</svg>
