<svg width="12" height="14" viewBox="0 0 12 14" fill="none" xmlns="http://www.w3.org/2000/svg">
<path d="M5.64689 7.96853C4.71077 7.80202 4 6.98402 4 6C4 4.97261 4.77481 4.1262 5.77195 4.01329M5.64689 7.96853C5.76132 7.98888 5.87911 7.9995 5.99938 7.9995C6.10356 7.9995 6.20588 7.99154 6.30576 7.97617M5.64689 7.96853C4.90846 7.8355 4.27594 7.29032 4.06888 6.51751C4.03949 6.40784 4.01982 6.29785 4.00933 6.18846M5.64689 7.96853C5.86025 8.00697 6.08244 8.011 6.30576 7.97617M6.30576 7.97617C6.46792 7.95124 6.62365 7.90681 6.7705 7.84537M6.30576 7.97617C6.37634 7.96517 6.44704 7.95028 6.5176 7.93137C6.60489 7.90798 6.68928 7.87916 6.7705 7.84537M6.7705 7.84537C7.49189 7.54353 7.99875 6.83096 7.99875 6C7.99875 5.88646 7.98929 5.77513 7.97111 5.66675M6.7705 7.84537C7.68165 7.4663 8.19378 6.46186 7.93138 5.48249C7.67141 4.51222 6.7408 3.90078 5.77195 4.01329M5.77195 4.01329C5.84659 4.00484 5.92248 4.0005 5.99938 4.0005C6.11291 4.0005 6.22424 4.00996 6.33261 4.02814M5.77195 4.01329C5.67569 4.02447 5.57905 4.0428 5.48265 4.06863C5.37298 4.09801 5.2679 4.13597 5.16793 4.18158" stroke="#F4213A" stroke-width="2" stroke-linecap="round"/>
<path d="M1.625 8.92966C1.22034 7.93733 1 6.8808 1 5.88598C1 3.18753 3.23858 1 6 1C8.76142 1 11 3.18753 11 5.88598C11 8.56328 9.40417 11.6874 6.91433 12.8047C6.33391 13.0651 5.66609 13.0651 5.08567 12.8047C4.29046 12.4478 3.58645 11.8863 2.99649 11.2" stroke="#F4213A" stroke-width="2" stroke-linecap="round"/>
</svg>
