<svg width="89" height="45" viewBox="0 0 89 45" fill="none" xmlns="http://www.w3.org/2000/svg">
<path fill-rule="evenodd" clip-rule="evenodd" d="M61.869 39.2182L52.742 27.2182C49.4452 23.0318 45.1628 21.0818 40.9429 21.0818H39.6658L39.5478 20.9659L58.5513 5.09318C68.2683 6.80454 76.0904 10.4045 80.2409 15H89C82.7118 6.25909 65.7557 0 45.8083 0C20.5096 0 0 10.0705 0 22.5C0 34.9295 20.5096 45 45.8083 45C65.2421 45 81.8164 39.0614 88.4794 30.6818H79.5954C75.8266 34.4182 69.5592 37.4318 61.869 39.2182ZM8.13445 22.4932C8.13445 15.3477 16.3799 9.15682 28.4497 6.075V38.9113C16.3799 35.8295 8.13445 29.6386 8.13445 22.4932ZM33.8704 40.0364V4.95001C41.3579 3.74742 48.9888 3.68073 56.4969 4.75227L36.1886 22.7727V24.8182L36.9381 24.3C37.6436 23.8012 38.4989 23.5492 39.3674 23.5841C41.8591 23.5841 44.1703 26.3114 46.3705 29.3318L53.5749 40.6159C50.9926 40.8832 48.3979 41.0175 45.8014 41.0182C41.8037 41.0133 37.8132 40.6849 33.8704 40.0364Z" fill="#F4213A"/>
</svg>
