<svg width="18" height="21" viewBox="0 0 18 21" fill="none" xmlns="http://www.w3.org/2000/svg">
<path fill-rule="evenodd" clip-rule="evenodd" d="M2.2853 2.8921C1.76251 2.3693 0.914891 2.3693 0.392096 2.8921C-0.130698 3.41489 -0.130699 4.26251 0.392096 4.7853L7.05231 11.4455L0.39213 18.1057C-0.130664 18.6285 -0.130664 19.4761 0.392131 19.9989C0.914925 20.5217 1.76254 20.5217 2.28534 19.9989L8.94551 13.3387L15.6057 19.9989C16.1285 20.5217 16.9761 20.5217 17.4989 19.9989C18.0217 19.4761 18.0217 18.6285 17.4989 18.1057L10.8387 11.4455L17.4989 4.7853C18.0217 4.26251 18.0217 3.41489 17.4989 2.8921C16.9761 2.3693 16.1285 2.3693 15.6057 2.8921L8.94551 9.5523L2.2853 2.8921Z" fill="#F4213A"/>
</svg>
