<svg width="13" height="23" viewBox="0 0 13 23" fill="none" xmlns="http://www.w3.org/2000/svg">
<g clip-path="url(#clip0_1_1802)">
<path d="M13.0001 11.4999C13.0002 11.6372 12.9722 11.7732 12.9178 11.9001C12.8633 12.0269 12.7834 12.1421 12.6827 12.2391L1.84932 22.6936C1.426 23.1021 0.740526 23.1021 0.317484 22.6936C-0.105557 22.2851 -0.105828 21.6236 0.317484 21.2153L10.3849 11.4999L0.317484 1.78452C-0.105828 1.37601 -0.105828 0.7145 0.317484 0.30625C0.740797 -0.101999 1.42628 -0.102261 1.84932 0.30625L12.6827 10.7608C12.7834 10.8578 12.8633 10.973 12.9178 11.0998C12.9722 11.2266 13.0002 11.3626 13.0001 11.4999Z" fill="#F4213A"/>
</g>
<defs>
<clipPath id="clip0_1_1802">
<rect width="23" height="13" fill="white" transform="matrix(0 -1 1 0 0 23)"/>
</clipPath>
</defs>
</svg>
