<svg width="19" height="17" viewBox="0 0 19 17" fill="none" xmlns="http://www.w3.org/2000/svg">
<g clip-path="url(#clip0_1_6879)">
<path d="M16.4678 12.6189C16.424 12.5837 13.2641 10.3462 12.3966 10.5066C11.9827 10.577 11.7479 10.8547 11.2703 11.4102C11.1947 11.5001 11.0116 11.7153 10.8684 11.8679C10.5699 11.7701 10.2754 11.6527 9.99286 11.5158C8.53232 10.8156 7.35036 9.65379 6.638 8.21817C6.49872 7.94044 6.37933 7.65097 6.27983 7.35759C6.43504 7.21676 6.65392 7.03682 6.74943 6.95859C7.31057 6.49309 7.59312 6.26229 7.66874 5.85547C7.81996 5.01053 5.5436 1.88503 5.51972 1.85764C5.3088 1.56426 4.97849 1.3765 4.61634 1.35303C3.69703 1.35303 1.0625 4.70932 1.0625 5.27653C1.0625 5.30782 1.11026 8.64847 5.30084 12.838C9.55907 16.9531 12.9577 17.0001 12.9895 17.0001C13.5666 17.0001 16.9811 14.4105 16.9811 13.5069C16.9533 13.1509 16.7662 12.8262 16.4678 12.6189Z" fill="#279876"/>
<path d="M19.0625 3.76639V5.18636H12.8503L13.7895 6.10171L12.7627 7.11095L10.5938 4.97904C10.3112 4.7013 10.3073 4.25145 10.5898 3.97371C10.5898 3.97371 10.5898 3.97371 10.5938 3.9698L12.7627 1.83789L13.7895 2.84713L12.8503 3.76248H19.0625V3.76639Z" fill="#279876"/>
</g>
<defs>
<clipPath id="clip0_1_6879">
<rect width="18" height="17" fill="white" transform="translate(0.5)"/>
</clipPath>
</defs>
</svg>
