<svg width="20" height="20" viewBox="0 0 20 20" fill="none" xmlns="http://www.w3.org/2000/svg">
<path d="M11.125 18.5625C12.4709 18.9484 13.6595 19.0273 14.5753 18.9926C15.8505 18.9443 17.004 18.2116 17.9456 17.27C19.5127 15.7029 19.3021 13.2027 17.5193 12.2077L16.211 11.4776C15.0304 10.8187 13.4815 11.0832 12.4438 12.1209C12.4437 12.1209 12.4437 12.1209 12.4437 12.121C12.443 12.1217 11.1842 13.379 8.90258 11.0974C6.62035 8.81519 7.87894 7.55639 7.87905 7.55628C7.87905 7.55628 7.87905 7.55628 7.87905 7.55627C8.91683 6.51849 9.18134 4.96965 8.52243 3.78899L7.79229 2.48069C6.79732 0.697867 4.2971 0.487317 2.73003 2.05439C2.15581 2.58377 1.00737 3.99898 1.00737 5.42472C0.925991 7.57138 1.46927 11.2169 5.12617 14.8738C6.0084 15.7561 6.88997 16.4571 7.75 17.0118" stroke="white" stroke-width="2" stroke-linecap="round"/>
</svg>
