<svg width="59" height="59" viewBox="0 0 59 59" fill="none" xmlns="http://www.w3.org/2000/svg">
<g clip-path="url(#clip0_1_11165)">
<path d="M47 15H19V43H47V15Z" fill="white"/>
<path d="M29.5 0C13.2079 0 0 13.2079 0 29.5C0 45.7921 13.2079 59 29.5 59C45.7921 59 59 45.7921 59 29.5C58.9815 13.215 45.785 0.0170792 29.5 0ZM41.9237 30.4394C41.7201 30.8493 41.3871 31.1809 40.9772 31.3858V31.3958L24.1201 39.8244C23.0797 40.3438 21.8129 39.9226 21.2935 38.8807C21.1454 38.5847 21.07 38.2588 21.0714 37.9271V21.07C21.0714 19.9058 22.0136 18.9621 23.1779 18.9621C23.5052 18.9621 23.8283 19.0376 24.1201 19.1842L40.9772 27.6127C42.019 28.1322 42.4417 29.3975 41.9237 30.4379V30.4394Z" fill="#F4213A"/>
</g>
<defs>
<clipPath id="clip0_1_11165">
<rect width="59" height="59" fill="white"/>
</clipPath>
</defs>
</svg>
