<svg width="13" height="23" viewBox="0 0 13 23" fill="none" xmlns="http://www.w3.org/2000/svg">
<g clip-path="url(#clip0_1_1804)">
<path d="M-6.86646e-05 11.4999C-0.000216484 11.6372 0.027751 11.7732 0.0822229 11.9001C0.136696 12.0269 0.216599 12.1421 0.317347 12.2391L11.1507 22.6936C11.574 23.1021 12.2595 23.1021 12.6825 22.6936C13.1056 22.2851 13.1058 21.6236 12.6825 21.2153L2.6151 11.4999L12.6825 1.78452C13.1058 1.37601 13.1058 0.7145 12.6825 0.30625C12.2592 -0.101999 11.5737 -0.102261 11.1507 0.30625L0.317347 10.7608C0.216599 10.8578 0.136696 10.973 0.0822229 11.0998C0.027751 11.2266 -0.000216484 11.3626 -6.86646e-05 11.4999Z" fill="#F4213A"/>
</g>
<defs>
<clipPath id="clip0_1_1804">
<rect width="23" height="13" fill="white" transform="matrix(0 -1 -1 0 13 23)"/>
</clipPath>
</defs>
</svg>
