<svg width="58" height="58" viewBox="0 0 58 58" fill="none" xmlns="http://www.w3.org/2000/svg">
<path d="M49.169 46.4479L45.5095 42.7886V37.1637C45.5095 36.6945 45.1292 36.3141 44.6599 36.3141C44.1906 36.3141 43.8103 36.6945 43.8103 37.1637V43.1404C43.8103 43.3657 43.8998 43.5819 44.0591 43.7411L47.9673 47.6493C48.1332 47.8152 48.3507 47.8982 48.5681 47.8982C48.7855 47.8982 49.003 47.8153 49.169 47.6493C49.5008 47.3175 49.5008 46.7796 49.169 46.4479Z" fill="#7BAE45"/>
<path d="M53.0809 10.3199C53.0804 10.2946 53.0782 10.2695 53.0759 10.2443C53.0743 10.227 53.0734 10.2095 53.0709 10.1922C53.0672 10.1662 53.0612 10.1407 53.0554 10.1152C53.0518 10.0994 53.0492 10.0833 53.0448 10.0677C53.037 10.0399 53.0268 10.0128 53.0165 9.98568C53.0118 9.97311 53.0083 9.96005 53.0029 9.94773C52.9864 9.90891 52.9674 9.87083 52.9456 9.83423L48.5569 2.45839C48.4511 2.28058 48.3226 2.12494 48.1777 1.99371C48.1729 1.98927 48.1683 1.98447 48.1633 1.98015C48.1554 1.97313 48.1469 1.96672 48.1389 1.95982C47.8751 1.73358 47.5595 1.58681 47.2215 1.53789C47.1897 1.53333 47.1575 1.53001 47.1253 1.52717C47.0737 1.52261 47.0218 1.51941 46.9694 1.51941H6.11266C6.06666 1.51941 6.02112 1.52163 5.97581 1.5252C5.43852 1.56697 4.94778 1.85372 4.61893 2.31631C4.58619 2.36228 4.55447 2.40935 4.52513 2.45876L0.136391 9.83411C0.114641 9.87071 0.0956094 9.90866 0.0790703 9.9476C0.0738594 9.95992 0.0702344 9.97299 0.0654766 9.98556C0.0552813 10.0127 0.0449727 10.0398 0.0371563 10.0676C0.0328516 10.0832 0.0302461 10.0992 0.0266211 10.1151C0.0208437 10.1407 0.0148398 10.1662 0.0111016 10.1921C0.00860937 10.2093 0.00770313 10.2267 0.00611719 10.2442C0.00373828 10.2693 0.00147266 10.2945 0.00113281 10.3197C0.00101953 10.3254 0 10.3308 0 10.3364V13.4613C0 13.9717 0.380285 14.3855 0.849609 14.3855C1.31893 14.3855 1.69922 13.9717 1.69922 13.4613V11.2606H19.2162V21.5707C19.2162 22.1635 19.5409 22.6949 20.0433 22.9242L21.1618 23.4351C21.4938 23.5868 21.8747 23.5868 22.2069 23.4351L23.3031 22.9344L24.3995 23.4352C24.7313 23.5867 25.1122 23.5867 25.4444 23.4351L26.5402 22.9344L27.6364 23.4351C27.9686 23.5868 28.3495 23.5868 28.6815 23.4351L29.778 22.9343L30.8747 23.435C31.0409 23.5109 31.2191 23.5487 31.3973 23.5487C31.5754 23.5487 31.7534 23.5111 31.9191 23.4354L33.0384 22.9245C33.541 22.695 33.8657 22.1637 33.8657 21.5707V11.2606H51.3828V31.7008C51.3828 32.2112 51.7631 32.625 52.2324 32.625C52.7017 32.625 53.082 32.2112 53.082 31.7008V10.3364C53.082 10.3308 53.081 10.3254 53.0809 10.3199ZM22.3179 3.36756H30.7641L31.9634 9.41206H21.1186L22.3179 3.36756ZM19.38 9.41218H2.41164L5.95168 3.46281C5.96052 3.44803 5.97094 3.43472 5.9825 3.42301C6.0175 3.38777 6.06361 3.36768 6.11266 3.36768H20.5796L19.38 9.41218ZM32.1662 21.3179L31.3967 21.6693L30.3002 21.1685C29.9679 21.0168 29.587 21.0168 29.2553 21.1685L28.1588 21.6693L27.0621 21.1685C26.8963 21.0928 26.7182 21.0549 26.54 21.0549C26.3618 21.0549 26.1835 21.0928 26.0173 21.1686L24.9215 21.6693L23.8254 21.1686C23.4934 21.0169 23.1124 21.0168 22.7804 21.1686L21.6843 21.6693L20.9153 21.3179V11.2606H32.1662V21.3179ZM33.7017 9.41218L32.5024 3.36768H46.9692V3.36756C46.9855 3.36756 47.0016 3.36978 47.017 3.37409C47.0631 3.38691 47.1037 3.41808 47.1303 3.46294L50.6702 9.41218H33.7017Z" fill="#101010"/>
<path d="M32.593 47.6136H1.69949L1.8125 12.6875C1.8125 12.1654 1.45655 11.7812 0.938256 11.7812C0.419963 11.7812 0 12.2045 0 12.7266V47.7919C0 48.7361 0.762364 49.5041 1.69949 49.5041H32.593C33.1113 49.5041 33.5312 49.0809 33.5312 48.5588C33.5312 48.0367 33.1113 47.6136 32.593 47.6136Z" fill="#101010"/>
<path d="M44.6599 29.8004C37.3042 29.8004 31.3199 35.7847 31.3199 43.1404C31.3199 50.4962 37.3042 56.4805 44.6599 56.4805C52.0157 56.4806 58 50.4962 58 43.1404C58 35.7846 52.0157 29.8004 44.6599 29.8004ZM44.6599 54.7814C38.2411 54.7814 33.0191 49.5594 33.0191 43.1405C33.0191 36.7218 38.2411 31.4997 44.6599 31.4997C51.0786 31.4997 56.3008 36.7218 56.3008 43.1405C56.3008 49.5594 51.0786 54.7814 44.6599 54.7814Z" fill="#7BAE45"/>
<path d="M44.6599 32.8066C38.9617 32.8066 34.326 37.4423 34.326 43.1405C34.326 48.8387 38.9617 53.4745 44.6599 53.4745C50.3581 53.4745 54.9939 48.8387 54.9939 43.1405C54.9939 37.4423 50.3581 32.8066 44.6599 32.8066ZM44.6599 51.7751C39.8988 51.7751 36.0253 47.9016 36.0253 43.1404C36.0253 38.3792 39.8987 34.5057 44.6599 34.5057C49.4211 34.5057 53.2947 38.3792 53.2947 43.1404C53.2947 47.9017 49.4212 51.7751 44.6599 51.7751Z" fill="#7BAE45"/>
<path d="M10.9452 34.4395L8.55428 31.8376C8.55066 31.8337 8.54669 31.8303 8.54307 31.8265C8.5314 31.8142 8.51939 31.8026 8.50704 31.7911C8.49844 31.7831 8.48994 31.775 8.48099 31.7674C8.46796 31.7562 8.45437 31.7458 8.44066 31.7354C8.43183 31.7287 8.42322 31.7219 8.41427 31.7157C8.39897 31.7049 8.383 31.6952 8.36692 31.6854C8.35899 31.6807 8.35117 31.6755 8.34301 31.6709C8.32444 31.6605 8.30518 31.6512 8.28581 31.6422C8.27969 31.6393 8.27369 31.636 8.26746 31.6333C8.24514 31.6236 8.22214 31.6151 8.19881 31.6073C8.19495 31.606 8.19133 31.6043 8.18748 31.6032C8.16199 31.595 8.13594 31.5882 8.10943 31.5825C8.1075 31.582 8.10569 31.5814 8.10376 31.581C8.07658 31.5753 8.04882 31.5709 8.02073 31.568C8.01948 31.5678 8.01835 31.5675 8.0171 31.5674C7.98799 31.5643 7.95854 31.5627 7.92874 31.5627C7.89895 31.5627 7.86938 31.5643 7.84038 31.5674C7.83914 31.5675 7.83801 31.5678 7.83676 31.568C7.80867 31.571 7.78091 31.5753 7.75372 31.581C7.75191 31.5813 7.7501 31.582 7.74829 31.5823C7.72178 31.5881 7.69561 31.5949 7.67001 31.6031C7.66616 31.6043 7.66253 31.6059 7.65868 31.6073C7.63546 31.6151 7.61246 31.6236 7.59015 31.6332C7.58392 31.6359 7.57791 31.6392 7.57168 31.6422C7.55231 31.6512 7.53305 31.6605 7.51447 31.6708C7.50632 31.6753 7.49862 31.6804 7.49057 31.6853C7.47449 31.6951 7.45851 31.7049 7.44311 31.7156C7.43416 31.7218 7.42555 31.7286 7.41683 31.7353C7.40312 31.7457 7.38952 31.7562 7.37638 31.7673C7.36743 31.7749 7.35894 31.783 7.35033 31.791C7.33798 31.8024 7.32586 31.8141 7.31431 31.8264C7.31068 31.8302 7.3066 31.8335 7.30309 31.8375L4.91218 34.4395C4.59465 34.785 4.61731 35.3225 4.96293 35.64C5.30832 35.9575 5.84595 35.9347 6.16337 35.5892L7.07913 34.5926V41.0465C7.07913 41.5158 7.45942 41.8961 7.92874 41.8961C8.39807 41.8961 8.77835 41.5158 8.77835 41.0465V34.5926L9.69412 35.5892C9.86166 35.7716 10.0904 35.864 10.3199 35.864C10.5253 35.864 10.7313 35.7899 10.8944 35.64C11.2401 35.3225 11.2627 34.785 10.9452 34.4395Z" fill="#101010"/>
<path d="M18.7315 34.4398L16.3405 31.8377C16.3369 31.8338 16.3329 31.8304 16.3293 31.8266C16.3177 31.8144 16.3056 31.8027 16.2933 31.7912C16.2847 31.7832 16.2762 31.7752 16.2672 31.7676C16.2542 31.7564 16.2406 31.7459 16.2269 31.7355C16.2181 31.7288 16.2095 31.722 16.2005 31.7158C16.1852 31.705 16.1693 31.6953 16.1532 31.6856C16.1452 31.6808 16.1374 31.6756 16.1293 31.6711C16.1107 31.6606 16.0914 31.6513 16.0721 31.6423C16.0659 31.6394 16.0599 31.6362 16.0537 31.6334C16.0314 31.6237 16.0084 31.6152 15.9851 31.6074C15.9812 31.6061 15.9776 31.6044 15.9737 31.6033C15.9482 31.5952 15.9222 31.5884 15.8957 31.5826C15.8938 31.5821 15.8919 31.5816 15.89 31.5811C15.8628 31.5754 15.8351 31.571 15.807 31.5681C15.8057 31.568 15.8046 31.5676 15.8034 31.5675C15.7742 31.5645 15.7448 31.5629 15.715 31.5629C15.6852 31.5629 15.6556 31.5645 15.6266 31.5675C15.6254 31.5676 15.6243 31.568 15.623 31.5681C15.5949 31.5711 15.5672 31.5754 15.54 31.5811C15.5382 31.5814 15.5364 31.5821 15.5345 31.5825C15.508 31.5882 15.4819 31.595 15.4563 31.6032C15.4524 31.6044 15.4488 31.606 15.4449 31.6074C15.4217 31.6152 15.3987 31.6237 15.3764 31.6333C15.3702 31.636 15.3642 31.6393 15.3579 31.6423C15.3386 31.6513 15.3193 31.6606 15.3007 31.6709C15.2926 31.6755 15.2849 31.6806 15.2768 31.6854C15.2607 31.6952 15.2448 31.705 15.2294 31.7157C15.2204 31.7219 15.2118 31.7287 15.2031 31.7354C15.1894 31.7458 15.1758 31.7564 15.1626 31.7675C15.1537 31.775 15.1452 31.7831 15.1366 31.7911C15.1242 31.8026 15.1121 31.8142 15.1006 31.8265C15.0969 31.8303 15.0929 31.8336 15.0893 31.8376L12.6984 34.4396C12.3809 34.7852 12.4036 35.3227 12.7492 35.6401C13.0947 35.9576 13.6321 35.9348 13.9496 35.5893L14.8654 34.5927V41.0467C14.8654 41.516 15.2457 41.8964 15.715 41.8964C16.1843 41.8964 16.5646 41.516 16.5646 41.0468V34.5927L17.4804 35.5893C17.6479 35.7717 17.8766 35.8642 18.1061 35.8642C18.3115 35.8642 18.5176 35.7901 18.6807 35.6401C19.0263 35.3228 19.049 34.7853 18.7315 34.4398Z" fill="#101010"/>
<path d="M17.5509 43.3215H6.09265C5.62344 43.3215 5.24304 43.7018 5.24304 44.1711C5.24304 44.6404 5.62333 45.0208 6.09265 45.0208H17.5509C18.0203 45.0208 18.4005 44.6404 18.4005 44.1711C18.4005 43.702 18.0203 43.3215 17.5509 43.3215Z" fill="#101010"/>
</svg>
