<svg width="58" height="58" viewBox="0 0 58 58" fill="none" xmlns="http://www.w3.org/2000/svg">
<g clip-path="url(#clip0_4_1099)">
<path d="M40.8495 15.699H43.0037C43.4729 15.699 43.8531 15.3186 43.8531 14.8495C43.8531 14.3803 43.4729 14 43.0037 14H40.8495C40.3803 14 40 14.3804 40 14.8495C40 15.3187 40.3803 15.699 40.8495 15.699Z" fill="#7BAE45"/>
<path fill-rule="evenodd" clip-rule="evenodd" d="M40.1535 2.40611C45 2 40.5338 1.55662 41.003 1.55662L20.8459 1.55651C20.2887 1.55651 19.7507 1.64079 19.2438 1.79621C17.6798 0.0256225 15.1364 -0.516089 12.9523 0.531763L2.67468 5.46108H0.849496C0.380285 5.46108 0 5.84148 0 6.31058C0 6.77968 0.380285 7.16008 0.849496 7.16008H2.86794C2.99516 7.16008 3.12067 7.13153 3.23531 7.07647L13.6871 2.06355C15.0298 1.41966 16.5715 1.6571 17.6426 2.59518C16.2668 3.59115 15.3694 5.20926 15.3694 7.03399V9.7404H15.0201C14.5509 9.7404 14.1706 10.1208 14.1706 10.5899C14.1706 11.059 14.5509 11.4394 15.0201 11.4394H25.8692C27.2495 11.4394 28.3724 12.5623 28.3724 13.9426C28.3724 14.6113 28.1119 15.2401 27.6393 15.7127C27.1657 16.1854 26.5371 16.4457 25.8692 16.4457H18.1332C17.9355 16.4457 17.744 16.5146 17.5917 16.6407L15.8232 18.1035C14.447 19.2412 12.7062 19.812 10.9247 19.7116C9.14191 19.6109 7.47747 18.8473 6.23817 17.5618L4.76461 16.0324C4.60443 15.8662 4.38353 15.7723 4.15278 15.7723H0.849496C0.380285 15.7723 0 16.1527 0 16.6218C0 17.0909 0.380285 17.4713 0.849496 17.4713H3.79164L5.01485 18.7408C6.55253 20.3358 8.6173 21.2831 10.8289 21.408C10.9958 21.4174 11.1619 21.4221 11.328 21.4221C12.745 21.4221 14.1273 21.0797 15.3694 20.4319V22.8101C15.3694 24.166 15.8809 25.4786 16.784 26.4799C16.8587 26.0399 17.1154 25.058 17.544 24.6501C17.2334 24.0956 17.0683 23.4678 17.0683 22.8101V19.2787L18.0866 18.4364V20.8801C18.0866 21.3493 18.4669 21.7296 18.9361 21.7296C20.0908 21.7296 21.0965 22.3737 21.5948 23.348L23.3887 23.2406C22.8536 21.6084 21.4739 20.4104 19.7857 20.1062V18.145H25.8694C25.9068 18.145 25.944 18.1433 25.9813 18.1422C27.1916 20.5642 29.6422 22.0967 32.3936 22.0967C36.3501 22.0967 39.569 18.8782 39.569 14.9222C39.569 10.9656 36.35 7.74665 32.3936 7.74665C30.4163 7.74665 28.5632 8.548 27.2129 9.96197C26.7907 9.81913 26.3391 9.7404 25.8694 9.7404L19.7856 9.74051V9.73677C21.6913 9.38651 23.1981 7.87986 23.5482 5.97413H41.2398C41.59 7.87998 43.0967 9.38662 45.0024 9.73677V20.107C43.2599 20.4243 41.8435 21.7016 41.3498 23.4018L43.0707 23.6152C43.5111 22.5003 44.5961 21.7297 45.8518 21.7297C46.321 21.7297 46.7013 21.3493 46.7013 20.8802V8.96431C46.7013 8.4951 46.321 8.11481 45.8518 8.11481C44.203 8.11481 42.8617 6.77345 42.8617 5.12452C42.8617 4.65531 42.4814 4.27503 42.0122 4.27503H22.7759C22.3067 4.27503 21.9264 4.65543 21.9264 5.12452C21.9264 6.77333 20.585 8.11481 18.9362 8.11481C18.467 8.11481 18.0867 8.49521 18.0867 8.96431V9.74051H17.0685V7.03411C17.0685 4.95064 18.7631 3.2555 20.846 3.2555L41.003 3.25561C40.5338 3.25561 40.1535 2.87521 40.1535 2.40611ZM30.0715 13.9427C30.0715 15.0652 29.6343 16.1207 28.8403 16.9147C28.4999 17.2546 28.1115 17.5284 27.6909 17.731C28.6671 19.375 30.4299 20.3977 32.3934 20.3977C35.4132 20.3977 37.8699 17.9415 37.8699 14.9223C37.8699 11.9026 35.4132 9.44575 32.3934 9.44575C31.0182 9.44575 29.7209 9.95325 28.7214 10.8603C29.551 11.6283 30.0715 12.7257 30.0715 13.9427Z" fill="#7BAE45"/>
<path d="M45.5378 28.0486C47.7979 27.3565 49.4188 25.2316 49.4188 22.8101V7.03422C49.4188 4.0138 46.962 1.55662 43.9422 1.55662H41.003C41.4723 1.55662 40.1535 1.93702 40.1535 2.40611C38.8906 3.2556 41.4723 3.25561 41.003 3.25561H43.9422C46.0253 3.25561 47.7198 4.95075 47.7198 7.03422V22.8102C47.7198 24.3631 46.7538 25.739 45.3661 26.3085L45.5378 28.0486Z" fill="#7BAE45"/>
<path fill-rule="evenodd" clip-rule="evenodd" d="M57.3669 45.2515C55.5633 44.1267 53.5808 43.4261 51.4743 43.1694C51.096 43.1235 50.7334 43.3348 50.5871 43.6868C50.5202 43.8479 50.4543 44.0085 50.3885 44.1691L49.8472 44.0194C49.7237 42.6302 48.9707 41.3556 47.7837 40.5848C47.623 40.4801 47.457 40.386 47.2929 40.3067L45.7889 39.5721C45.9566 35.7442 45.8726 31.8778 45.5378 28.0485L45.3661 26.3084C45.1866 25.0287 44.2763 23.9898 43.0707 23.6152L41.3498 23.4017C35.3879 22.9725 29.3658 22.9189 23.3887 23.2405L21.5948 23.3479C21.004 23.3872 20.4135 23.4288 19.8238 23.4755C18.9095 23.5483 18.0996 23.9889 17.544 24.6501C17.1154 25.0579 16.8588 26.0398 16.784 26.4798C16.3513 30.5806 16.2072 34.735 16.3528 38.8483C15.0994 38.7035 13.8012 39.2006 12.9868 40.2516C12.6885 40.6377 12.4724 41.069 12.3435 41.5356C11.9537 42.9602 12.446 44.4773 13.5978 45.4005C13.6066 45.4075 13.6154 45.4144 13.6245 45.421L17.6095 48.6181C18 48.9314 18.5102 48.8531 18.8037 48.4871C19.0973 48.1211 19.2414 47.749 18.6727 47.2929L14.6619 44.075C14.6556 44.0699 14.6492 44.065 14.6428 44.0602L14.6388 44.0571C14.0315 43.5564 13.7739 42.7459 13.9819 41.986C14.0511 41.7349 14.1688 41.5009 14.3308 41.2913C14.9632 40.4749 16.1361 40.2757 17.0013 40.838L26.2643 46.8514C27.4026 47.5905 28.7656 47.8698 30.1029 47.6372L39.4182 46.0153C39.768 45.9543 40.0428 45.6826 40.1077 45.3337C40.1725 44.9848 40.0136 44.6322 39.7092 44.4497L34.1737 41.1321C33.0651 40.4677 32.6794 39.0577 33.2955 37.9221C33.8316 36.9345 34.9609 36.4521 36.0457 36.7503C36.1873 36.7884 36.3276 36.8414 36.4643 36.9085L46.5503 41.8349C46.6542 41.885 46.7544 41.9418 46.8577 42.0091C47.7291 42.575 48.2283 43.5728 48.1603 44.6133C48.1341 45.015 48.3934 45.3801 48.7816 45.4874L49.7519 45.7558C49.6734 45.9558 49.5958 46.155 49.5199 46.3522C49.3513 46.79 49.5695 47.2817 50.0075 47.4502C50.4453 47.6188 50.9369 47.4005 51.1054 46.9626C51.3583 46.3055 51.6262 45.6308 51.9047 44.9495C53.3167 45.1932 54.6608 45.6682 55.9145 46.3667C54.9159 49.6953 53.7472 53.002 52.4345 56.2138C51.0209 55.97 49.677 55.4951 48.425 54.7968C48.9607 53.0094 49.5501 51.2151 50.18 49.4544C50.338 49.0127 50.108 48.5264 49.6663 48.3684C49.2247 48.2102 48.7384 48.4403 48.5802 48.8821C48.0809 50.2775 47.6075 51.6936 47.1648 53.1111L44.8424 52.2515C44.7155 52.2046 44.5794 52.1887 44.4449 52.2049L28.9158 54.0944C27.9436 54.2136 26.9474 53.9306 26.1826 53.3167L18.6727 47.2929C19.3671 47.8498 18.9715 48.2778 18.8037 48.4871C18.6359 48.6963 18.3893 48.8051 18.1405 48.8051C17.9541 48.8051 17.7663 48.7439 17.6095 48.6181L25.1192 54.6419C26.0709 55.4057 27.2675 55.8202 28.4789 55.8202C28.6933 55.8202 28.9083 55.8072 29.1222 55.7809L44.4458 53.9164L46.6702 54.7396C46.6493 54.8104 46.6278 54.8813 46.6071 54.952C46.5 55.3176 46.6493 55.7095 46.9723 55.9113C48.7729 57.036 50.7553 57.7365 52.8643 57.9936C52.899 57.9978 52.9334 58 52.9676 58C53.3071 58 53.6185 57.7963 53.7515 57.4767C55.2751 53.8146 56.6145 50.0243 57.7328 46.2115C57.8397 45.8457 57.6903 45.4533 57.3669 45.2515ZM34.255 24.7679C32.1427 24.7208 30.028 24.7208 27.9156 24.7679L27.9155 31.6108L30.5997 29.7408C30.8915 29.5375 31.279 29.5375 31.5708 29.7408L34.255 31.6108V24.7679ZM31.8021 37.1117C32.7169 35.4263 34.6448 34.6037 36.4913 35.1108C36.7341 35.1762 36.9778 35.2679 37.2115 35.3826L44.1209 38.7573C44.263 34.7115 44.1196 30.6275 43.691 26.5979C43.6094 25.8317 42.9873 25.2309 42.2113 25.1693C40.1324 25.0048 38.0451 24.8883 35.9542 24.8165V33.2381C35.9542 33.5545 35.7783 33.8447 35.4978 33.9912C35.3744 34.0556 35.2393 34.0876 35.1049 34.0876C34.9341 34.0876 34.7642 34.0362 34.6191 33.9351L31.0854 31.4734L27.5517 33.9351C27.2922 34.116 26.9535 34.1376 26.673 33.9912C26.3925 33.8447 26.2166 33.5545 26.2166 33.2381V24.8165C24.1253 24.8883 22.0376 25.0048 19.9583 25.1693C19.1832 25.2309 18.5614 25.8318 18.4798 26.5979C18.0248 30.8799 17.8911 35.2223 18.0797 39.5125L27.1893 45.4262C27.9672 45.9313 28.8986 46.122 29.8118 45.9633L36.877 44.733L33.3002 42.5893C31.4087 41.4558 30.7507 39.0497 31.8021 37.1117Z" fill="#101010"/>
<path d="M51.0704 54.8129C51.5395 54.8129 51.9199 54.4326 51.9199 53.9634C51.9199 53.4942 51.5395 53.1139 51.0704 53.1139C50.6012 53.1139 50.2209 53.4942 50.2209 53.9634C50.2209 54.4326 50.6012 54.8129 51.0704 54.8129Z" fill="#101010"/>
</g>
<defs>
<clipPath id="clip0_4_1099">
<rect width="58" height="58" fill="white"/>
</clipPath>
</defs>
</svg>
