<svg width="58" height="58" viewBox="0 0 58 58" fill="none" xmlns="http://www.w3.org/2000/svg">
<g clip-path="url(#clip0_4_1040)">
<path d="M47.244 31.9015C41.3131 31.9015 36.488 36.7266 36.488 42.6575C36.488 45.4098 37.1562 48.4844 38.9687 50.75C39.3411 51.1425 39.9382 51.4637 40.3281 51.2031C40.7179 50.9416 40.8427 50.2539 40.5816 49.8641C38.9687 47.4556 38.1873 45.0673 38.1873 42.6575C38.1873 37.6638 42.2503 33.6007 47.244 33.6007C52.2381 33.6007 56.3008 37.6633 56.3008 42.6575C56.3008 50.0495 49.1189 55.152 47.2506 56.353C46.4307 55.8109 42.1406 51.6562 40.5816 49.8641C40.2564 49.526 40.6657 50.8774 40.3281 51.2031C39.99 51.5288 38.7002 50.467 38.9687 50.75C40.7812 53.0156 45.7289 57.3951 46.5019 57.8933C46.728 58.0389 46.9882 58.1119 47.2484 58.1119C47.5024 58.1119 47.7564 58.0425 47.9794 57.9031C49.6526 56.8561 58 51.1987 58 42.6575C58 36.7266 53.1749 31.9015 47.244 31.9015Z" fill="#7BAE45"/>
<path d="M47.2441 46.5976C49.7004 46.5976 51.6992 44.5992 51.6992 42.1424C51.6992 39.6861 49.7004 37.6877 47.2441 37.6877C44.7873 37.6877 42.7889 39.6861 42.7889 42.1424C42.7889 44.5992 44.7877 46.5976 47.2441 46.5976ZM47.2441 39.3865C48.7636 39.3865 50 40.6229 50 42.1424C50 43.662 48.7636 44.8984 47.2441 44.8984C45.7245 44.8984 44.4882 43.662 44.4882 42.1424C44.4882 40.6229 45.7245 39.3865 47.2441 39.3865Z" fill="#7BAE45"/>
<path d="M3.33079 20.9022L3.85029 21.5744L3.32858 20.904C2.9582 21.192 2.89138 21.7257 3.17946 22.0961C3.34716 22.3111 3.59762 22.424 3.85074 22.424C4.03305 22.424 4.21669 22.3656 4.37201 22.2452L4.39015 22.2306C4.75522 21.9385 4.81318 21.4084 4.5229 21.042C4.23262 20.6752 3.69896 20.6137 3.33079 20.9022Z" fill="#7BAE45"/>
<path d="M6.01675 55.8281L6.0017 55.822C5.56583 55.648 5.07156 55.8596 4.89721 56.2954C4.72286 56.7313 4.93482 57.2256 5.37069 57.3999L5.37733 57.4026C5.48176 57.4451 5.59017 57.465 5.69637 57.465C6.03179 57.465 6.34995 57.265 6.48403 56.9353C6.66059 56.5003 6.45129 56.0047 6.01675 55.8281Z" fill="#7BAE45"/>
<path d="M3.50726 54.0625C3.18555 53.7205 2.64791 53.7041 2.30585 54.0254C1.9669 54.3444 1.94787 54.8759 2.26116 55.2179C2.42887 55.4064 2.66207 55.5024 2.89616 55.5024C3.09617 55.5024 3.29707 55.4325 3.45858 55.2892C3.80993 54.9785 3.84312 54.4418 3.53204 54.09L3.50726 54.0625ZM2.79704 54.7405L2.80412 54.7338L2.89571 54.6528L2.79704 54.7405Z" fill="#7BAE45"/>
<path d="M2.03329 51.4262C2.03241 51.424 2.03064 51.4169 2.02975 51.4151C1.89435 50.9669 1.42264 50.716 0.973938 50.85C0.525681 50.9846 0.270798 51.4589 0.403549 51.9076C0.403992 51.9094 0.406204 51.9169 0.407089 51.9187C0.517716 52.2851 0.853577 52.5196 1.21732 52.5196C1.29874 52.5196 1.38104 52.5081 1.46291 52.4838C1.91116 52.3493 2.1656 51.8749 2.03329 51.4262Z" fill="#7BAE45"/>
<path d="M1.75671 48.2534V48.2419C1.75671 47.7729 1.37616 47.3923 0.907104 47.3923C0.438049 47.3923 0.0574951 47.7729 0.0574951 48.2419V48.2534C0.0574951 48.7229 0.438049 49.1031 0.907104 49.1031C1.37616 49.1031 1.75671 48.7229 1.75671 48.2534Z" fill="#7BAE45"/>
<path d="M6.76719 19.2835C6.30876 19.3799 6.01493 19.83 6.11096 20.2884C6.19459 20.6893 6.54771 20.9645 6.94154 20.9645C6.99906 20.9645 7.05747 20.9588 7.11633 20.9464L7.14819 20.9393C7.60485 20.8318 7.88806 20.3747 7.78053 19.9176C7.67388 19.4636 7.22164 19.1817 6.76719 19.2835Z" fill="#7BAE45"/>
<path d="M0.0574951 44.8041C0.0574951 45.2736 0.438049 45.6537 0.907104 45.6537C1.37616 45.6537 1.75671 45.2736 1.75671 44.8041V44.7926C1.75671 44.3235 1.37616 43.943 0.907104 43.943C0.438049 43.943 0.0574951 44.3235 0.0574951 44.7926V44.8041Z" fill="#7BAE45"/>
<path d="M0.895167 28.4071H0.907558C1.3713 28.4071 1.75009 28.0349 1.75672 27.5699L1.75717 27.546C1.75717 27.0787 1.37971 26.7021 0.911983 26.6995H0.907558C0.442042 26.6995 0.0632582 27.0769 0.0579481 27.5424L0.907558 27.5575L0.0579481 27.5455C0.0513105 28.0146 0.426112 28.4005 0.895167 28.4071Z" fill="#7BAE45"/>
<path d="M0.0574951 31.0067C0.0574951 31.4762 0.438049 31.8564 0.907104 31.8564C1.37616 31.8564 1.75671 31.4762 1.75671 31.0067V30.9952C1.75671 30.5262 1.37616 30.1456 0.907104 30.1456C0.438049 30.1456 0.0574951 30.5262 0.0574951 30.9952V31.0067Z" fill="#7BAE45"/>
<path d="M1.31469 24.9896C1.43682 25.0507 1.56603 25.0794 1.69392 25.0794C2.00544 25.0794 2.30546 24.9073 2.45458 24.6095L2.46432 24.5896C2.66831 24.1683 2.4922 23.6643 2.07226 23.459C1.65188 23.2528 1.14344 23.428 0.935906 23.8471L1.6948 24.2298L0.934579 23.8497C0.724831 24.2692 0.894753 24.7794 1.31469 24.9896Z" fill="#7BAE45"/>
<path d="M0.0574951 41.3548C0.0574951 41.8243 0.438049 42.2044 0.907104 42.2044C1.37616 42.2044 1.75671 41.8243 1.75671 41.3548V41.3433C1.75671 40.8742 1.37616 40.4937 0.907104 40.4937C0.438049 40.4937 0.0574951 40.8742 0.0574951 41.3433V41.3548Z" fill="#7BAE45"/>
<path d="M0.0574951 34.4561C0.0574951 34.9256 0.438049 35.3057 0.907104 35.3057C1.37616 35.3057 1.75671 34.9256 1.75671 34.4561V34.4446C1.75671 33.9755 1.37616 33.595 0.907104 33.595C0.438049 33.595 0.0574951 33.9755 0.0574951 34.4446V34.4561Z" fill="#7BAE45"/>
<path d="M0.0574951 37.9054C0.0574951 38.3749 0.438049 38.755 0.907104 38.755C1.37616 38.755 1.75671 38.3749 1.75671 37.9054V37.8939C1.75671 37.4244 1.37616 37.0443 0.907104 37.0443C0.438049 37.0443 0.0574951 37.4244 0.0574951 37.8939V37.9054Z" fill="#7BAE45"/>
<path d="M13.8394 19.0879H13.8279C13.3588 19.0879 12.9783 19.468 12.9783 19.9375C12.9783 20.407 13.3588 20.7871 13.8279 20.7871H13.8394C14.3084 20.7871 14.689 20.407 14.689 19.9375C14.689 19.468 14.3084 19.0879 13.8394 19.0879Z" fill="#7BAE45"/>
<path d="M29.7686 56.3296H29.7571C29.288 56.3296 28.9075 56.7101 28.9075 57.1792C28.9075 57.6487 29.288 58.0288 29.7571 58.0288H29.7686C30.2381 58.0288 30.6182 57.6487 30.6182 57.1792C30.6182 56.7101 30.2381 56.3296 29.7686 56.3296Z" fill="#7BAE45"/>
<path d="M33.218 56.3296H33.2069C32.7374 56.3296 32.3573 56.7101 32.3573 57.1792C32.3573 57.6487 32.7374 58.0288 33.2069 58.0288H33.218C33.6875 58.0288 34.0676 57.6487 34.0676 57.1792C34.0676 56.7101 33.6875 56.3296 33.218 56.3296Z" fill="#7BAE45"/>
<path d="M26.3194 56.3296H26.3079C25.8388 56.3296 25.4583 56.7101 25.4583 57.1792C25.4583 57.6487 25.8388 58.0288 26.3079 58.0288H26.3194C26.7889 58.0288 27.169 57.6487 27.169 57.1792C27.169 56.7101 26.7889 56.3296 26.3194 56.3296Z" fill="#7BAE45"/>
<path d="M9.07266 56.3296H9.06116C8.5921 56.3296 8.21155 56.7101 8.21155 57.1792C8.21155 57.6487 8.5921 58.0288 9.06116 58.0288H9.07266C9.54172 58.0288 9.92227 57.6487 9.92227 57.1792C9.92227 56.7101 9.54172 56.3296 9.07266 56.3296Z" fill="#7BAE45"/>
<path d="M43.5664 56.3296H43.5549C43.0854 56.3296 42.7053 56.7101 42.7053 57.1792C42.7053 57.6487 43.0854 58.0288 43.5549 58.0288H43.5664C44.0355 58.0288 44.416 57.6487 44.416 57.1792C44.416 56.7101 44.0355 56.3296 43.5664 56.3296Z" fill="#7BAE45"/>
<path d="M40.1171 56.3296H40.1051C39.636 56.3296 39.2555 56.7101 39.2555 57.1792C39.2555 57.6487 39.636 58.0288 40.1051 58.0288H40.1171C40.5861 58.0288 40.9667 57.6487 40.9667 57.1792C40.9667 56.7101 40.5861 56.3296 40.1171 56.3296Z" fill="#7BAE45"/>
<path d="M36.6673 56.3296H36.6562C36.1868 56.3296 35.8066 56.7101 35.8066 57.1792C35.8066 57.6487 36.1868 58.0288 36.6562 58.0288H36.6673C37.1368 58.0288 37.5169 57.6487 37.5169 57.1792C37.5169 56.7101 37.1368 56.3296 36.6673 56.3296Z" fill="#7BAE45"/>
<path d="M22.87 56.3296H22.8585C22.3895 56.3296 22.0089 56.7101 22.0089 57.1792C22.0089 57.6487 22.3895 58.0288 22.8585 58.0288H22.87C23.3395 58.0288 23.7196 57.6487 23.7196 57.1792C23.7196 56.7101 23.3395 56.3296 22.87 56.3296Z" fill="#7BAE45"/>
<path d="M12.522 56.3296H12.5105C12.0414 56.3296 11.6609 56.7101 11.6609 57.1792C11.6609 57.6487 12.0414 58.0288 12.5105 58.0288H12.522C12.9911 58.0288 13.3716 57.6487 13.3716 57.1792C13.3716 56.7101 12.9911 56.3296 12.522 56.3296Z" fill="#7BAE45"/>
<path d="M10.39 19.0879H10.3785C9.90948 19.0879 9.52893 19.468 9.52893 19.9375C9.52893 20.407 9.90948 20.7871 10.3785 20.7871H10.39C10.8591 20.7871 11.2397 20.407 11.2397 19.9375C11.2397 19.468 10.8591 19.0879 10.39 19.0879Z" fill="#7BAE45"/>
<path d="M15.9713 56.3296H15.9598C15.4908 56.3296 15.1102 56.7101 15.1102 57.1792C15.1102 57.6487 15.4908 58.0288 15.9598 58.0288H15.9713C16.4408 58.0288 16.821 57.6487 16.821 57.1792C16.821 56.7101 16.4408 56.3296 15.9713 56.3296Z" fill="#7BAE45"/>
<path d="M19.4207 56.3296H19.4092C18.9401 56.3296 18.5596 56.7101 18.5596 57.1792C18.5596 57.6487 18.9401 58.0288 19.4092 58.0288H19.4207C19.8897 58.0288 20.2703 57.6487 20.2703 57.1792C20.2703 56.7101 19.8897 56.3296 19.4207 56.3296Z" fill="#7BAE45"/>
<path d="M17.2886 19.0879H17.2771C16.8076 19.0879 16.4275 19.468 16.4275 19.9375C16.4275 20.407 16.8076 20.7871 17.2771 20.7871H17.2886C17.7577 20.7871 18.1382 20.407 18.1382 19.9375C18.1382 19.468 17.7577 19.0879 17.2886 19.0879Z" fill="#7BAE45"/>
<path d="M38.1081 27.1596V20.7871H44.9417L47.8401 23.6855C48.006 23.8515 48.2237 23.9342 48.441 23.9342C48.6583 23.9342 48.876 23.8515 49.0419 23.6855C49.3734 23.3536 49.3734 22.816 49.0419 22.4841L47.3449 20.7871H49.4659C54.1714 20.7871 58 16.9586 58 12.253C58 7.54736 54.1714 3.71881 49.4659 3.71881H8.82797C8.43016 1.66736 6.6212 0.113281 4.45514 0.113281C1.99835 0.113281 0 2.11163 0 4.56842C0 7.02477 1.99835 9.02312 4.45514 9.02312C6.6212 9.02312 8.43016 7.46904 8.82797 5.41803H49.4659C53.2347 5.41803 56.3008 8.48415 56.3008 12.253C56.3008 16.0218 53.2347 19.0879 49.4659 19.0879H47.6033L49.0565 17.6347C49.388 17.3028 49.388 16.7652 49.0565 16.4333C48.7247 16.1014 48.1866 16.1014 47.8547 16.4333L45.2001 19.0879H38.1081V11.8167C38.1081 11.0436 37.4793 10.4144 36.7062 10.4144H21.2942C20.5212 10.4144 19.8919 11.0436 19.8919 11.8167V19.8813C19.8906 19.8999 19.8893 19.9185 19.8893 19.9375C19.8893 19.9561 19.8906 19.9747 19.8919 19.9933V27.1596C19.8919 27.9327 20.5212 28.5615 21.2942 28.5615H36.7062C37.4793 28.5615 38.1081 27.9322 38.1081 27.1596ZM4.45514 7.3239C2.93558 7.3239 1.69922 6.08798 1.69922 4.56842C1.69922 3.04886 2.93558 1.8125 4.45514 1.8125C5.9747 1.8125 7.21106 3.04886 7.21106 4.56842C7.21106 6.08798 5.9747 7.3239 4.45514 7.3239ZM30.4505 12.1136V16.3771L29.4483 15.7545C29.1735 15.5841 28.8261 15.5841 28.5517 15.7545L27.549 16.3771V12.1136H30.4505ZM36.4089 26.8623H21.5911V19.9388V19.9375V19.9362V12.1136H25.8503V17.6931C25.8503 18.0454 26.041 18.3697 26.3481 18.5405C26.4937 18.6215 26.6552 18.6618 26.8162 18.6618C26.9928 18.6618 27.1698 18.6131 27.3247 18.5166L29 17.4763L30.6753 18.5171C30.9722 18.7016 31.3466 18.7104 31.6524 18.5405C31.959 18.3697 32.1502 18.0454 32.1502 17.6931V12.1136H36.4089V26.8623Z" fill="#101010"/>
</g>
<defs>
<clipPath id="clip0_4_1040">
<rect width="58" height="58" fill="white"/>
</clipPath>
</defs>
</svg>
