<svg width="58" height="58" viewBox="0 0 58 58" fill="none" xmlns="http://www.w3.org/2000/svg">
<path fill-rule="evenodd" clip-rule="evenodd" d="M57.9995 8.30714C57.9986 8.16111 57.961 8.01376 57.8809 7.87924L54.0227 1.37884C53.6837 0.808014 53.0607 0.453125 52.3969 0.453125H20.8782C20.2154 0.453125 19.5928 0.806686 19.2538 1.37619L15.3792 7.87835C15.2987 8.01287 15.2611 8.16067 15.2602 8.30714L15.2597 8.30972L15.2593 8.31333V28.1216C15.4786 27.8288 16.1253 27.4189 16.9585 28.1216V9.16294H31.266V22.1912C31.266 22.5124 31.4475 22.8067 31.7346 22.9505C32.0214 23.0948 32.3656 23.0642 32.6232 22.8726L36.9234 19.6689L41.2237 22.8726C41.3733 22.9841 41.5516 23.0408 41.7313 23.0408C41.8614 23.0408 41.9919 23.0111 42.1123 22.9505C42.3994 22.8067 42.5809 22.5124 42.5809 22.1912V9.16294H53.566H56.3007V44.4978C56.3007 44.7549 56.0919 44.9638 55.8348 44.9638H28.5601C27.8082 45.7348 26.575 46.4178 26.0524 46.663H55.8348C57.0286 46.663 57.9999 45.6917 57.9999 44.4978V8.31333C57.9999 8.31112 57.9995 8.30714 57.9995 8.30714ZM55.6586 7.46372H53.566H42.4455L41.5175 2.15234H52.3969C52.4642 2.15234 52.5275 2.18819 52.562 2.24615L55.6586 7.46372ZM39.7926 2.15234L40.7201 7.46328H33.1095L33.9458 2.15234H39.7926ZM32.9652 9.16294H40.8816V20.4986L37.431 17.9276C37.2801 17.8157 37.1018 17.7595 36.9234 17.7595C36.7447 17.7595 36.5663 17.8157 36.4159 17.9276L32.9652 20.4986V9.16294ZM20.7132 2.24615C20.7477 2.18819 20.811 2.15234 20.8782 2.15234H32.2258L31.389 7.46372H17.6041L20.7132 2.24615Z" fill="#101010"/>
<path fill-rule="evenodd" clip-rule="evenodd" d="M27.0403 46.065C24.2805 47.6175 21.1155 48.6828 17.5653 49.2498V55.6867C17.5653 56.2124 17.2415 56.686 16.7409 56.8932C16.5673 56.965 16.3845 57 16.2035 57C15.8614 57 15.5242 56.8755 15.2661 56.6386L0.423967 43.0383C0.151153 42.7881 -0.00316573 42.4368 4.92506e-05 42.0745C0.00372351 41.7117 0.164472 41.3631 0.441419 41.1182L15.8379 27.5051C16.0655 27.212 16.7368 26.8017 17.6016 27.5051V35.502C18.7025 35.4812 19.7616 35.4228 20.7596 35.3275C26.5861 34.0802 34.4949 30.6305 38.4002 25.3564C38.6422 25.0299 39.0873 24.9108 39.4685 25.0702C39.8501 25.2297 40.0642 25.6243 39.9829 26.0172C38.6923 32.2411 36.5364 37.0807 33.3926 40.813C32.2715 42.144 31.02 43.3271 29.643 44.3641C28.8626 45.1359 27.5827 45.8196 27.0403 46.065ZM20.8364 37.0292C20.8463 37.0349 20.8768 37.0323 20.9337 37.02C21.0076 37.0129 21.0785 36.9972 21.1454 36.974C26.2129 35.8578 33.8368 33.0756 37.3415 29.3478C36.0978 33.5637 34.3443 36.9859 32.0235 39.7406C28.3515 44.0996 23.1483 46.7706 16.5586 47.6782C16.1241 47.7384 15.8017 48.0972 15.8017 48.5202V54.7831L1.95108 42.0913L15.8017 29.8447V36.3614C15.8017 36.8313 16.1962 37.2118 16.6835 37.2118H16.7142H16.7198H16.7266C18.1647 37.2105 19.5465 37.1494 20.8364 37.0292Z" fill="#7BAE45"/>
</svg>
