<svg width="21" height="20" viewBox="0 0 21 20" fill="none" xmlns="http://www.w3.org/2000/svg">
<path d="M7.53871 8.00166C8.86737 8.26112 10.2129 7.67095 10.2129 7.03906C10.2129 6.55504 9.35341 6.01367 8.20312 6.01367C7.12679 6.01367 6.19336 6.51894 6.19336 7.03906C6.19336 7.43843 6.77176 7.85228 7.53871 8.00166ZM14.0495 11.0176H16.3652V9.53318C15.7054 10.1573 14.8737 10.645 14.0495 11.0176Z" fill="#F4213A"/>
<path d="M1.86076 9.26199C3.00046 9.96147 4.53444 10.5296 6.06929 10.8208C10.7602 11.7121 16.3652 9.35944 16.3652 7.03906C16.3652 5.58916 15.4754 4.24897 13.8595 3.26534C12.339 2.33982 10.3302 1.83008 8.20312 1.83008C3.82368 1.83008 0 4.0327 0 7.03906C0 7.75237 0.687299 8.54179 1.86076 9.26199ZM4.98996 6.74076C5.19606 5.60692 6.54749 4.7832 8.20312 4.7832C10.0201 4.7832 11.4434 5.7741 11.4434 7.03906C11.4434 8.30403 10.0201 9.29492 8.20312 9.29492C7.89674 9.29492 7.59396 9.26617 7.3032 9.20936C5.9035 8.93677 4.96289 8.06454 4.96289 7.03906C4.96289 6.93907 4.97204 6.83866 4.98996 6.74076Z" fill="#F4213A"/>
<path d="M8.20312 12.2478C7.39754 12.2478 6.60241 12.1744 5.8398 12.0295C3.90838 11.6631 1.44859 10.7729 0 9.43457V13.2732C0 14.4458 0.837498 15.5257 2.28387 16.3142C3.10017 16.759 4.00296 17.0376 4.96724 17.1424C5.01371 17.1475 4.97565 17.1458 5.94731 17.1474V14.9312C5.94731 14.6 6.20189 14.3149 6.5328 14.2993C6.88607 14.2827 7.17773 14.5642 7.17773 14.9138V17.1492L9.22852 17.1524V14.9312C9.22852 14.6 9.4831 14.3149 9.81401 14.2993C10.1673 14.2827 10.459 14.5642 10.459 14.9138V17.1543L12.5098 17.1575V14.9312C12.5098 14.6 12.7643 14.3149 13.0953 14.2993C13.4486 14.2827 13.7402 14.5642 13.7402 14.9138V17.1595L15.791 17.1627V14.9312C15.791 14.6 16.0456 14.3149 16.3765 14.2993C16.7298 14.2827 17.0215 14.5642 17.0215 14.9138V17.1645L20.3838 17.1697C20.7057 17.1697 21 16.9176 21 16.544V12.8631C21 12.5233 20.7245 12.2478 20.3848 12.2478H8.20312Z" fill="#F4213A"/>
</svg>
