<svg width="23" height="23" viewBox="0 0 23 23" fill="none" xmlns="http://www.w3.org/2000/svg">
<path d="M4.15 11.7431L3.14764 10.7407C1.71588 9.30893 1 8.59305 1 7.70347C1 6.81389 1.71588 6.09801 3.14764 4.66625L4.66625 3.14764C6.09801 1.71588 6.81389 1 7.70347 1C8.59306 1 9.30894 1.71588 10.7407 3.14764L19.8524 12.2593C21.2841 13.6911 22 14.4069 22 15.2965C22 16.1861 21.2841 16.902 19.8524 18.3337L18.3337 19.8524C16.902 21.2841 16.1861 22 15.2965 22C14.4069 22 13.6911 21.2841 12.2593 19.8524L7.05695 14.65" stroke="#F4213A" stroke-width="2" stroke-linecap="round"/>
<path d="M15 8L13.5858 9.41421" stroke="#F4213A" stroke-width="2" stroke-linecap="round"/>
<path d="M11 3L9.58579 4.41421" stroke="#F4213A" stroke-width="2" stroke-linecap="round"/>
<path d="M20 12L18.5858 13.4142" stroke="#F4213A" stroke-width="2" stroke-linecap="round"/>
<path d="M17 10L14.8787 12.1213" stroke="#F4213A" stroke-width="2" stroke-linecap="round"/>
<path d="M13 6L10.8787 8.12132" stroke="#F4213A" stroke-width="2" stroke-linecap="round"/>
</svg>
