<svg width="92" height="38" viewBox="0 0 92 38" fill="none" xmlns="http://www.w3.org/2000/svg">
<path fill-rule="evenodd" clip-rule="evenodd" d="M43.065 38C43.3618 35.6437 43.5102 33.1244 43.5102 30.4422C43.5102 24.0242 42.6406 18.5506 40.9014 14.0213C39.1814 9.47283 36.6982 6.00363 33.4516 3.61374C30.205 1.20458 26.311 0 21.7696 0C17.2282 0 13.3246 1.19495 10.0587 3.58484C6.81206 5.97472 4.31914 9.44392 2.57989 13.9924C0.859962 18.5409 0 24.0242 0 30.4422C0 33.1236 0.149217 35.6429 0.447652 38H9.37885C9.05906 35.7184 8.89916 33.1992 8.89916 30.4422C8.91849 23.0605 10.0683 17.4038 12.3487 13.472C14.629 9.54028 17.7693 7.57441 21.7696 7.57441C24.4171 7.57441 26.6975 8.46098 28.6107 10.2341C30.5432 11.988 32.0215 14.5706 33.0457 17.982C34.0893 21.3741 34.6111 25.5275 34.6111 30.4422C34.6111 33.2044 34.4522 35.7237 34.1346 38H43.065ZM91.9722 38H82.2494C81.2506 36.595 79.8288 35.4827 77.9842 34.663C76.0517 33.7957 73.7133 33.3621 70.9692 33.3621H65.9544V26.0768H70.9692C73.1722 26.0768 75.1048 25.6817 76.7667 24.8915C78.448 24.1013 79.7621 23.0027 80.709 21.5957C81.6559 20.1695 82.1294 18.5024 82.1294 16.5943C82.1294 14.7634 81.7139 13.1733 80.8829 11.8242C80.0713 10.4558 78.9118 9.3861 77.4044 8.61517C75.9164 7.84423 74.1578 7.45877 72.1287 7.45877C70.1962 7.45877 68.3893 7.81532 66.708 8.52844C65.0461 9.22228 63.6933 10.2245 62.6498 11.5351C61.6062 12.8264 61.0458 14.3779 60.9685 16.1896H52.3013C52.3979 12.9902 53.3448 10.1763 55.142 7.74787C56.9586 5.31943 59.3549 3.42101 62.3309 2.05261C65.307 0.684202 68.6115 0 72.2447 0C76.0517 0 79.3369 0.742022 82.1004 2.22607C84.8832 3.69084 87.0283 5.64708 88.5356 8.09479C90.0623 10.5425 90.816 13.2215 90.7966 16.1318C90.816 19.4468 89.8884 22.2607 88.0138 24.5735C86.1586 26.8863 83.6851 28.4378 80.593 29.228V29.6905C84.5353 30.288 87.5887 31.8491 89.7531 34.3739C90.6998 35.4685 91.4395 36.6772 91.9722 38Z" fill="#68BBA2"/>
</svg>
