<svg width="88" height="38" viewBox="0 0 88 38" fill="none" xmlns="http://www.w3.org/2000/svg">
<path fill-rule="evenodd" clip-rule="evenodd" d="M43.2233 38C43.5212 35.6437 43.6702 33.1244 43.6702 30.4422C43.6702 24.0242 42.7974 18.5506 41.0517 14.0213C39.3255 9.47283 36.8331 6.00363 33.5746 3.61374C30.316 1.20458 26.4077 0 21.8496 0C17.2916 0 13.3736 1.19495 10.0956 3.58484C6.83711 5.97472 4.33502 9.44392 2.58937 13.9924C0.863124 18.5409 0 24.0242 0 30.4422C0 33.1236 0.149766 35.6429 0.449298 38H9.41333C9.09236 35.7184 8.93188 33.1992 8.93188 30.4422C8.95128 23.0605 10.1053 17.4038 12.3941 13.472C14.6828 9.54028 17.8347 7.57441 21.8496 7.57441C24.5069 7.57441 26.7956 8.46098 28.7159 10.2341C30.6555 11.988 32.1393 14.5706 33.1672 17.982C34.2146 21.3741 34.7383 25.5275 34.7383 30.4422C34.7383 33.2044 34.5789 35.7237 34.2601 38H43.2233ZM87.1155 38V0.809479H81.7622H78.591H76.0307L52.3374 38H61.245L78.1254 11.4483H78.591V38H87.1155Z" fill="#68BBA2"/>
</svg>
