<svg width="74" height="38" viewBox="0 0 74 38" fill="none" xmlns="http://www.w3.org/2000/svg">
<path fill-rule="evenodd" clip-rule="evenodd" d="M43.142 38C43.4393 35.6437 43.588 33.1244 43.588 30.4422C43.588 24.0242 42.7168 18.5506 40.9745 14.0213C39.2515 9.47283 36.7638 6.00363 33.5114 3.61374C30.259 1.20458 26.358 0 21.8085 0C17.259 0 13.3484 1.19495 10.0766 3.58484C6.82424 5.97472 4.32686 9.44392 2.5845 13.9924C0.8615 18.5409 0 24.0242 0 30.4422C0 33.1236 0.149484 35.6429 0.448453 38H9.39561C9.07525 35.7184 8.91507 33.1992 8.91507 30.4422C8.93443 23.0605 10.0863 17.4038 12.3707 13.472C14.6552 9.54028 17.8011 7.57441 21.8085 7.57441C24.4608 7.57441 26.7452 8.46098 28.6618 10.2341C30.5978 11.988 32.0788 14.5706 33.1048 17.982C34.1502 21.3741 34.6729 25.5275 34.6729 30.4422C34.6729 33.2044 34.5138 35.7237 34.1956 38H43.142ZM74 38H64.9978V9.77157H64.6493L50.4201 19.0228V10.4654L65.2592 0.809479H74V38Z" fill="#68BBA2"/>
</svg>
