<svg width="90" height="38" viewBox="0 0 90 38" fill="none" xmlns="http://www.w3.org/2000/svg">
<path fill-rule="evenodd" clip-rule="evenodd" d="M42.865 38C43.1605 35.6437 43.3082 33.1244 43.3082 30.4422C43.3082 24.0242 42.4426 18.5506 40.7115 14.0213C38.9995 9.47283 36.5278 6.00363 33.2963 3.61374C30.0647 1.20458 26.1888 0 21.6685 0C17.1482 0 13.2627 1.19495 10.012 3.58484C6.78043 5.97472 4.29908 9.44392 2.56791 13.9924C0.85597 18.5409 0 24.0242 0 30.4422C0 33.1236 0.148525 35.6429 0.445574 38H9.3353C9.017 35.7184 8.85784 33.1992 8.85784 30.4422C8.87708 23.0605 10.0216 17.4038 12.2913 13.472C14.5611 9.54028 17.6868 7.57441 21.6685 7.57441C24.3038 7.57441 26.5735 8.46098 28.4778 10.2341C30.4013 11.988 31.8728 14.5706 32.8923 17.982C33.931 21.3741 34.4504 25.5275 34.4504 30.4422C34.4504 33.2044 34.2923 35.7237 33.9761 38H42.865ZM76.7022 38H66.0768L71.1013 32.7839C73.2365 30.5289 74.9965 28.5534 76.3814 26.8573C77.7856 25.142 78.8339 23.5134 79.5264 21.9716C80.2189 20.4297 80.5651 18.7915 80.5651 17.0569C80.5651 15.091 80.1035 13.3949 79.1802 11.9687C78.2569 10.5232 76.997 9.41501 75.4004 8.64408C73.8039 7.85387 72.0054 7.45877 70.0049 7.45877C67.8891 7.45877 66.0425 7.89242 64.4652 8.75972C62.8879 9.62702 61.6761 10.8509 60.8297 12.4313C59.9834 14.0117 59.5602 15.8619 59.5602 17.982H51.0486C51.0486 14.3779 51.8757 11.2267 53.5299 8.52844C55.1842 5.83018 57.4539 3.73902 60.3392 2.25498C63.2245 0.751659 66.5041 0 70.1781 0C73.8905 0 77.1605 0.742022 79.988 2.22607C82.8349 3.69084 85.0565 5.69526 86.6531 8.23934C88.2496 10.7641 89.0479 13.6166 89.0479 16.7967C89.0479 18.9938 88.6343 21.1428 87.8072 23.2436C86.9993 25.3444 85.5855 27.6861 83.5658 30.2687C81.8483 32.4486 79.5604 35.0257 76.7022 38Z" fill="#68BBA2"/>
</svg>
