<svg width="92" height="38" viewBox="0 0 92 38" fill="none" xmlns="http://www.w3.org/2000/svg">
<path fill-rule="evenodd" clip-rule="evenodd" d="M42.7486 38C43.0433 35.6437 43.1906 33.1244 43.1906 30.4422C43.1906 24.0242 42.3274 18.5506 40.6009 14.0213C38.8936 9.47283 36.4286 6.00363 33.2058 3.61374C29.9831 1.20458 26.1177 0 21.6097 0C17.1017 0 13.2267 1.19495 9.98477 3.58484C6.76202 5.97472 4.28741 9.44392 2.56094 13.9924C0.853645 18.5409 0 24.0242 0 30.4422C0 33.1236 0.148121 35.6429 0.444364 38H9.30995C8.99251 35.7184 8.83379 33.1992 8.83379 30.4422C8.85297 23.0605 9.99436 17.4038 12.258 13.472C14.5216 9.54028 17.6388 7.57441 21.6097 7.57441C24.2378 7.57441 26.5014 8.46098 28.4005 10.2341C30.3188 11.988 31.7863 14.5706 32.803 17.982C33.8389 21.3741 34.3568 25.5275 34.3568 30.4422C34.3568 33.2044 34.1992 35.7237 33.8838 38H42.7486ZM91.8541 38C91.5509 35.2954 90.7746 32.834 89.5254 30.6156C87.8756 27.6861 85.66 25.3926 82.8785 23.7351C80.1161 22.0583 77.0276 21.2199 73.6131 21.2199C71.5605 21.2199 69.6038 21.5476 67.7431 22.2028C65.9015 22.8389 64.2326 23.7543 62.7363 24.9493C61.2592 26.125 60.0123 27.5512 58.9956 29.228H58.564C58.5832 22.5016 59.7917 17.2496 62.1896 13.472C64.6066 9.69447 67.9733 7.80569 72.2894 7.80569C75.1285 7.80569 77.4305 8.58626 79.1953 10.1474C80.9602 11.7085 82.1399 13.7226 82.7346 16.1896H91.5108C91.0504 13.0673 89.9666 10.2823 88.2593 7.8346C86.5712 5.38689 84.3652 3.4692 81.6412 2.08152C78.9172 0.693839 75.7999 0 72.2894 0C68.8749 0 65.796 0.722748 63.0528 2.16824C60.3096 3.61374 57.9693 5.72417 56.0318 8.49953C54.0943 11.2556 52.6076 14.6381 51.5718 18.6469C50.5551 22.6558 50.0467 27.2428 50.0467 32.4081C50.0467 34.3919 50.1279 36.2559 50.2903 38H59.9862C60.1339 37.3747 60.3312 36.7635 60.5782 36.1664C61.2112 34.663 62.0745 33.3332 63.1679 32.1768C64.2613 31.0204 65.5274 30.1145 66.9661 29.4592C68.424 28.8039 70.0067 28.4763 71.7139 28.4763C73.9584 28.4763 75.9534 29.0256 77.6991 30.1242C79.4639 31.2227 80.8451 32.7068 81.8426 34.5763C82.4269 35.6507 82.8433 36.7919 83.0918 38H91.8541Z" fill="#68BBA2"/>
</svg>
