<svg width="91" height="38" viewBox="0 0 91 38" fill="none" xmlns="http://www.w3.org/2000/svg">
<path fill-rule="evenodd" clip-rule="evenodd" d="M42.8874 38C43.183 35.6437 43.3308 33.1244 43.3308 30.4422C43.3308 24.0242 42.4648 18.5506 40.7327 14.0213C39.0199 9.47283 36.5469 6.00363 33.3137 3.61374C30.0804 1.20458 26.2025 0 21.6799 0C17.1572 0 13.2696 1.19495 10.0172 3.58484C6.78398 5.97472 4.30133 9.44392 2.56925 13.9924C0.856417 18.5409 0 24.0242 0 30.4422C0 33.1236 0.148602 35.6429 0.445807 38H9.34018C9.02171 35.7184 8.86247 33.1992 8.86247 30.4422C8.88172 23.0605 10.0268 17.4038 12.2978 13.472C14.5687 9.54028 17.6961 7.57441 21.6799 7.57441C24.3165 7.57441 26.5874 8.46098 28.4927 10.2341C30.4172 11.988 31.8895 14.5706 32.9095 17.982C33.9487 21.3741 34.4684 25.5275 34.4684 30.4422C34.4684 33.2044 34.3102 35.7237 33.9939 38H42.8874ZM90.8495 38H82.0615C81.805 36.7878 81.3876 35.6562 80.8093 34.6052C79.77 32.7164 78.3362 31.2324 76.5079 30.1531C74.6989 29.0738 72.6204 28.5245 70.2725 28.5052C68.4826 28.5052 66.6832 28.8136 64.8741 29.4303C63.0651 30.0471 61.6024 30.8566 60.4862 31.8588L52.3166 30.6446L55.6364 0.809479H88.1417V8.47062H63.0555L61.179 25.036H61.5255C62.6802 23.9182 64.2102 22.9834 66.1155 22.2318C68.04 21.4801 70.0993 21.1043 72.2932 21.1043C75.8921 21.1043 79.0964 21.9619 81.9062 23.6773C84.7353 25.3926 86.9581 27.7343 88.5748 30.7024C89.7888 32.8908 90.547 35.3233 90.8495 38Z" fill="#68BBA2"/>
</svg>
