<svg width="21" height="19" viewBox="0 0 21 19" fill="none" xmlns="http://www.w3.org/2000/svg">
<g clip-path="url(#clip0_1_6706)">
<path d="M17.9728 13.46C17.9217 13.4195 14.2352 10.8455 13.2231 11.03C12.7402 11.111 12.4663 11.4305 11.9091 12.0695C11.8209 12.173 11.6073 12.4205 11.4402 12.596C11.092 12.4835 10.7484 12.3485 10.4187 12.191C8.71479 11.3855 7.33584 10.049 6.50475 8.3975C6.34225 8.078 6.20296 7.745 6.08689 7.4075C6.26796 7.2455 6.52333 7.0385 6.63476 6.9485C7.28941 6.413 7.61906 6.1475 7.70727 5.6795C7.88371 4.7075 5.22795 1.112 5.20009 1.0805C4.95401 0.743 4.56865 0.527 4.14614 0.5C3.07362 0.5 0 4.361 0 5.0135C0 5.0495 0.0557152 8.8925 4.94473 13.712C9.91267 18.446 13.8777 18.5 13.9149 18.5C14.5881 18.5 18.5717 15.521 18.5717 14.4815C18.5392 14.072 18.321 13.6985 17.9728 13.46Z" fill="#F4213A"/>
<path d="M21.0001 3.27661V4.91011H13.7525L14.8482 5.96311L13.6503 7.12411L11.1199 4.67161C10.7903 4.35211 10.7856 3.83461 11.1153 3.51511C11.1153 3.51511 11.1153 3.51511 11.1199 3.51061L13.6503 1.05811L14.8482 2.21911L13.7525 3.27211H21.0001V3.27661Z" fill="#F4213A"/>
</g>
<defs>
<clipPath id="clip0_1_6706">
<rect width="21" height="18" fill="white" transform="translate(0 0.5)"/>
</clipPath>
</defs>
</svg>
