<svg width="22" height="19" viewBox="0 0 22 19" fill="none" xmlns="http://www.w3.org/2000/svg">
<path d="M19.1291 13.68C19.078 13.6372 15.3915 10.9202 14.3793 11.115C13.8965 11.2005 13.6225 11.5377 13.0654 12.2122C12.9772 12.3215 12.7636 12.5827 12.5964 12.768C12.2482 12.6492 11.9046 12.5067 11.575 12.3405C9.87104 11.4902 8.49209 10.0795 7.661 8.33625C7.4985 7.999 7.35921 7.6475 7.24314 7.29125C7.42421 7.12025 7.67958 6.90175 7.79101 6.80675C8.44566 6.2415 8.77531 5.96125 8.86352 5.46725C9.03996 4.44125 6.3842 0.646 6.35634 0.61275C6.11026 0.2565 5.7249 0.0285 5.30239 0C4.22987 0 1.15625 4.0755 1.15625 4.76425C1.15625 4.80225 1.21197 8.85875 6.10098 13.946C11.0689 18.943 15.034 19 15.0711 19C15.7444 19 19.728 15.8555 19.728 14.7582C19.6955 14.326 19.4773 13.9317 19.1291 13.68Z" fill="white"/>
</svg>
