<svg width="18" height="19" viewBox="0 0 18 19" fill="none" xmlns="http://www.w3.org/2000/svg">
<path d="M16.5663 13.4612C17.0182 13.4612 17.3846 13.0949 17.3846 12.643C17.3846 12.1911 17.0182 11.8247 16.5663 11.8247C16.1144 11.8247 15.748 12.1911 15.748 12.643C15.748 13.0949 16.1144 13.4612 16.5663 13.4612Z" fill="white"/>
<path d="M14.7818 16.097C15.2337 16.097 15.6 15.7306 15.6 15.2787C15.6 14.8268 15.2337 14.4604 14.7818 14.4604C14.3298 14.4604 13.9635 14.8268 13.9635 15.2787C13.9635 15.7306 14.3298 16.097 14.7818 16.097Z" fill="white"/>
<path d="M17.1818 10.3216C17.6338 10.3216 18.0001 9.95524 18.0001 9.50332C18.0001 9.05141 17.6338 8.68506 17.1818 8.68506C16.7299 8.68506 16.3636 9.05141 16.3636 9.50332C16.3636 9.95524 16.7299 10.3216 17.1818 10.3216Z" fill="white"/>
<path d="M12.1314 17.8846C12.5833 17.8846 12.9497 17.5182 12.9497 17.0663C12.9497 16.6144 12.5833 16.248 12.1314 16.248C11.6795 16.248 11.3132 16.6144 11.3132 17.0663C11.3132 17.5182 11.6795 17.8846 12.1314 17.8846Z" fill="white"/>
<path d="M9.00156 16.8643C7.82303 16.8657 6.66137 16.5843 5.61418 16.0436C4.56698 15.5029 3.66484 14.7188 2.98355 13.7572C2.30225 12.7955 1.8617 11.6844 1.69891 10.5172C1.53612 9.34995 1.65584 8.16069 2.04801 7.04932C2.44018 5.93796 3.09336 4.93694 3.95265 4.13038C4.81195 3.32382 5.85227 2.73526 6.98621 2.41416C8.12016 2.09306 9.31461 2.0488 10.4692 2.28509C11.6238 2.52138 12.7048 3.03132 13.6215 3.77208H12.2746C12.0576 3.77208 11.8495 3.85829 11.696 4.01174C11.5426 4.16519 11.4563 4.37332 11.4563 4.59034C11.4563 4.80736 11.5426 5.01548 11.696 5.16894C11.8495 5.32239 12.0576 5.4086 12.2746 5.4086H15.5477C15.7647 5.4086 15.9728 5.32239 16.1263 5.16894C16.2797 5.01548 16.3659 4.80736 16.3659 4.59034V1.31729C16.3659 1.10027 16.2797 0.892141 16.1263 0.738687C15.9728 0.585233 15.7647 0.499023 15.5477 0.499023C15.3306 0.499023 15.1225 0.585233 14.9691 0.738687C14.8156 0.892141 14.7294 1.10027 14.7294 1.31729V2.57005C13.6167 1.65011 12.2989 1.01148 10.8874 0.70809C9.47585 0.404702 8.01204 0.44547 6.6196 0.826953C5.22715 1.20843 3.94696 1.91943 2.88716 2.89987C1.82736 3.88031 1.01909 5.10141 0.530602 6.46002C0.0421184 7.81863 -0.112223 9.27485 0.0806133 10.7057C0.27345 12.1365 0.807801 13.4999 1.63853 14.6807C2.46926 15.8615 3.57197 16.8251 4.85351 17.49C6.13506 18.1549 7.5578 18.5016 9.00156 18.5008C9.21858 18.5008 9.4267 18.4146 9.58016 18.2612C9.73361 18.1077 9.81982 17.8996 9.81982 17.6826C9.81982 17.4655 9.73361 17.2574 9.58016 17.104C9.4267 16.9505 9.21858 16.8643 9.00156 16.8643Z" fill="white"/>
<path d="M12.035 12.5331C12.1884 12.3797 12.2746 12.1716 12.2746 11.9546C12.2746 11.7376 12.1884 11.5295 12.035 11.3761L9.82 9.16106V4.59024C9.82 4.37322 9.73379 4.16509 9.58033 4.01164C9.42688 3.85818 9.21875 3.77197 9.00173 3.77197C8.78472 3.77197 8.57659 3.85818 8.42314 4.01164C8.26968 4.16509 8.18347 4.37322 8.18347 4.59024V9.49982C8.18352 9.71682 8.26976 9.92491 8.42322 10.0783L10.878 12.5331C11.0315 12.6865 11.2396 12.7727 11.4565 12.7727C11.6735 12.7727 11.8816 12.6865 12.035 12.5331Z" fill="white"/>
</svg>
