<svg width="25" height="24" viewBox="0 0 25 24" fill="none" xmlns="http://www.w3.org/2000/svg">
<path d="M12.5482 1C6.23584 1 1.09868 6.1129 1.09645 12.3965C1.09497 14.4059 1.62323 16.3671 2.62484 18.0944L1 24L7.07126 22.4153C8.76006 23.3282 10.6379 23.8043 12.5438 23.803H12.5482C18.8606 23.803 23.9978 18.6893 24 12.4057C24.0015 9.36203 22.8114 6.497 20.6487 4.34343C18.4867 2.1891 15.6117 1.00077 12.5482 1ZM12.5482 21.8779H12.5445C10.8366 21.8779 9.16129 21.4209 7.69968 20.5577L7.35097 20.3522L3.74961 21.2921L4.71116 17.7961L4.48487 17.4381C3.53438 15.9401 3.0284 14.1877 3.02919 12.3965C3.03142 7.1732 7.302 2.9251 12.5519 2.9251C15.0938 2.92587 17.4836 3.91257 19.2813 5.70273C21.079 7.4929 22.068 9.8734 22.0665 12.4049C22.0643 17.6282 17.7945 21.8779 12.5475 21.8779H12.5482ZM17.7692 14.7824C17.4828 14.6405 16.0761 13.9513 15.8135 13.8555C15.5516 13.7612 15.3609 13.7121 15.1702 13.9973C14.9803 14.2825 14.4313 14.9242 14.2651 15.1136C14.0974 15.3037 13.9305 15.3267 13.6441 15.1849C13.3577 15.0423 12.4355 14.7417 11.3433 13.7711C10.4923 13.0167 9.91806 12.0845 9.75113 11.7985C9.58419 11.5141 9.73332 11.36 9.87652 11.2181C10.0049 11.0916 10.1629 10.8862 10.3054 10.7198C10.4478 10.5534 10.4953 10.4346 10.5917 10.2445C10.6867 10.0551 10.6392 9.88797 10.5673 9.74613C10.4953 9.60277 9.924 8.2013 9.68435 7.63167C9.45287 7.0766 9.21694 7.15097 9.0411 7.14177C8.87416 7.1341 8.68423 7.1318 8.49206 7.1318C8.30287 7.1318 7.992 7.2031 7.72935 7.4883C7.46745 7.7735 6.72774 8.46197 6.72774 9.86343C6.72774 11.2657 7.7531 12.6196 7.89629 12.8097C8.03948 12.9991 9.91435 15.8764 12.7849 17.1107C13.4675 17.4028 14.0002 17.5784 14.4164 17.7103C15.102 17.9272 15.7259 17.8958 16.2186 17.823C16.7676 17.7409 17.9117 17.1345 18.1491 16.4698C18.388 15.8051 18.388 15.2347 18.3168 15.1159C18.247 14.997 18.0556 14.9257 17.7692 14.7824Z" fill="#219653"/>
</svg>
