<svg width="32" height="36" viewBox="0 0 32 36" fill="none" xmlns="http://www.w3.org/2000/svg">
<path d="M3.00542 30L4.83062 23.2932C3.62795 21.2315 2.9961 18.8868 3.00002 16.5C3.00002 9.04395 9.04396 3 16.5 3C23.9561 3 30 9.04395 30 16.5C30 23.956 23.9561 30 16.5 30C14.1143 30.0038 11.7705 29.3725 9.70951 28.1707L3.00542 30ZM11.6279 10.1658C11.4535 10.1766 11.2832 10.2225 11.127 10.3008C10.9806 10.3837 10.8469 10.4874 10.7301 10.6086C10.5681 10.7611 10.4763 10.8934 10.3778 11.0217C9.87882 11.671 9.61044 12.4681 9.61501 13.287C9.61771 13.9485 9.79051 14.5924 10.0605 15.1945C10.6127 16.4122 11.5212 17.7015 12.7214 18.8962C13.0103 19.1838 13.2924 19.4727 13.5962 19.7413C15.0857 21.0528 16.8608 21.9986 18.7802 22.5034L19.5483 22.6209C19.7981 22.6344 20.0478 22.6155 20.2989 22.6033C20.6921 22.583 21.076 22.4766 21.4235 22.2915C21.6476 22.1727 21.7529 22.1133 21.9405 21.9945C21.9405 21.9945 21.9986 21.9567 22.1093 21.873C22.2915 21.738 22.4036 21.6421 22.5548 21.4842C22.6668 21.3681 22.764 21.2317 22.8383 21.0765C22.9436 20.8564 23.0489 20.4366 23.0921 20.0869C23.1245 19.8196 23.115 19.6738 23.111 19.5834C23.1056 19.4389 22.9854 19.2891 22.8545 19.2256L22.0688 18.8733C22.0688 18.8733 20.8943 18.3616 20.1774 18.0349C20.1018 18.002 20.0208 17.9832 19.9385 17.9796C19.8461 17.9701 19.7528 17.9805 19.6647 18.0101C19.5767 18.0396 19.4961 18.0877 19.4282 18.151V18.1483C19.4214 18.1483 19.331 18.2253 18.3549 19.4079C18.2989 19.4832 18.2217 19.5401 18.1332 19.5713C18.0448 19.6026 17.949 19.6068 17.8581 19.5834C17.7701 19.5599 17.684 19.5301 17.6003 19.4943C17.4329 19.4241 17.3748 19.3971 17.2601 19.3471L17.2533 19.3444C16.481 19.0072 15.7659 18.5518 15.1338 17.9944C14.9637 17.8459 14.8058 17.6839 14.6438 17.5273C14.1126 17.0187 13.6498 16.4433 13.2668 15.8155L13.1871 15.6873C13.1299 15.6011 13.0836 15.5081 13.0494 15.4105C12.9981 15.2121 13.1318 15.0528 13.1318 15.0528C13.1318 15.0528 13.4598 14.6937 13.6124 14.4993C13.7394 14.3377 13.8579 14.1696 13.9674 13.9957C14.1267 13.7392 14.1767 13.476 14.093 13.2721C13.715 12.3487 13.3235 11.4294 12.9212 10.5168C12.8415 10.3359 12.6053 10.2063 12.3906 10.1806C12.3177 10.1725 12.2448 10.1644 12.1719 10.159C11.9906 10.15 11.8089 10.1518 11.6279 10.1644V10.1658Z" fill="#3B9F18"/>
</svg>
