<svg width="42" height="42" viewBox="0 0 42 42" fill="none" xmlns="http://www.w3.org/2000/svg">
<circle cx="21" cy="21" r="21" fill="#F4213A"/>
<path d="M32.5055 15.6601C32.229 14.6199 31.4183 13.8 30.3903 13.5199C28.5122 13 20.9997 13 20.9997 13C20.9997 13 13.4876 13 11.6095 13.5002C10.6012 13.78 9.77081 14.6201 9.49425 15.6601C9 17.5599 9 21.5 9 21.5C9 21.5 9 25.4599 9.49425 27.3399C9.77108 28.3799 10.5815 29.1999 11.6096 29.48C13.5073 30 21 30 21 30C21 30 28.5122 30 30.3903 29.4998C31.4184 29.2199 32.229 28.3999 32.5058 27.3599C32.9999 25.4599 32.9999 21.52 32.9999 21.52C32.9999 21.52 33.0197 17.5599 32.5055 15.6601ZM18.6079 25.14V17.86L24.8549 21.5L18.6079 25.14Z" fill="white"/>
</svg>
